<?xml version="1.0" encoding="UTF-8" standalone="no"?>
<!DOCTYPE svg PUBLIC "-//W3C//DTD SVG 1.1//EN"
 "http://www.w3.org/Graphics/SVG/1.1/DTD/svg11.dtd">
<!-- Generated by graphviz version 2.43.0 (0)
 -->
<!-- Title: G Pages: 1 -->
<svg width="838pt" height="116pt"
 viewBox="0.00 0.00 838.00 116.00" xmlns="http://www.w3.org/2000/svg" xmlns:xlink="http://www.w3.org/1999/xlink">
<g id="graph0" class="graph" transform="scale(1 1) rotate(0) translate(4 112)">
<title>G</title>
<polygon fill="white" stroke="transparent" points="-4,4 -4,-112 834,-112 834,4 -4,4"/>
<!-- 4.3 -->
<g id="node1" class="node">
<title>4.3</title>
<text text-anchor="middle" x="283" y="-86.9" font-family="Arial" font-size="12.00">4.3</text>
</g>
<!-- .5 -->
<g id="node2" class="node">
<title>.5</title>
<text text-anchor="middle" x="719" y="-14.9" font-family="Arial" font-size="12.00">.5</text>
</g>
<!-- _CLIENT_SECRET_BRUTE_FORCE -->
<g id="node3" class="node">
<title>_CLIENT_SECRET_BRUTE_FORCE</title>
<polygon fill="#f8cecc" stroke="#b85450" points="830,-36 764,-36 764,0 830,0 830,-36"/>
<text text-anchor="middle" x="797" y="-14.9" font-family="Arial" font-size="12.00"> exploits</text>
</g>
<!-- _CLIENT_SECRET_BRUTE_FORCE_attack -->
<g id="node4" class="node">
<title>_CLIENT_SECRET_BRUTE_FORCE_attack</title>
<polygon fill="#f5f5f5" stroke="#666666" points="76,-36 0,-36 0,0 76,0 76,-36"/>
<text text-anchor="middle" x="38" y="-14.9" font-family="Arial" font-size="12.00"> mitigates</text>
</g>
<!-- _CLIENT_SECRET_BRUTE_FORCE_attack&#45;&gt;4.3 -->
<g id="edge1" class="edge">
<title>_CLIENT_SECRET_BRUTE_FORCE_attack&#45;&gt;4.3</title>
<path fill="none" stroke="black" d="M76.13,-33.1C79.12,-34.11 82.1,-35.09 85,-36 140.59,-53.46 206.08,-70.27 246.05,-80.11"/>
<polygon fill="black" stroke="black" points="245.34,-83.54 255.89,-82.52 247.01,-76.74 245.34,-83.54"/>
</g>
<!-- _CLIENT_SECRET_BRUTE_FORCE_countermeasure0 -->
<g id="node5" class="node">
<title>_CLIENT_SECRET_BRUTE_FORCE_countermeasure0</title>
<polygon fill="#fff2cc" stroke="#d6b656" points="290,-36 94,-36 94,0 290,0 290,-36"/>
<text text-anchor="start" x="135" y="-21.4" font-family="Arial" font-weight="bold" font-size="12.00">Countermeasure</text>
<text text-anchor="start" x="104" y="-9.4" font-family="Arial" font-size="12.00"> Use High Entropy for Secrets</text>
</g>
<!-- _CLIENT_SECRET_BRUTE_FORCE_countermeasure0&#45;&gt;4.3 -->
<g id="edge2" class="edge">
<title>_CLIENT_SECRET_BRUTE_FORCE_countermeasure0&#45;&gt;4.3</title>
<path fill="none" stroke="black" d="M214.49,-36.3C225.96,-45.12 240.06,-55.97 252.48,-65.53"/>
<polygon fill="black" stroke="black" points="250.7,-68.57 260.76,-71.9 254.97,-63.02 250.7,-68.57"/>
</g>
<!-- _CLIENT_SECRET_BRUTE_FORCE_countermeasure1 -->
<g id="node6" class="node">
<title>_CLIENT_SECRET_BRUTE_FORCE_countermeasure1</title>
<polygon fill="#fff2cc" stroke="#d6b656" points="442,-36 308,-36 308,0 442,0 442,-36"/>
<text text-anchor="start" x="318" y="-21.4" font-family="Arial" font-weight="bold" font-size="12.00">Countermeasure</text>
<text text-anchor="start" x="329.5" y="-9.4" font-family="Arial" font-size="12.00"> Lock Accounts</text>
</g>
<!-- _CLIENT_SECRET_BRUTE_FORCE_countermeasure1&#45;&gt;4.3 -->
<g id="edge3" class="edge">
<title>_CLIENT_SECRET_BRUTE_FORCE_countermeasure1&#45;&gt;4.3</title>
<path fill="none" stroke="black" d="M352.26,-36.3C340.56,-45.2 326.14,-56.18 313.49,-65.8"/>
<polygon fill="black" stroke="black" points="311.32,-63.06 305.48,-71.9 315.56,-68.63 311.32,-63.06"/>
</g>
<!-- _CLIENT_SECRET_BRUTE_FORCE_countermeasure2 -->
<g id="node7" class="node">
<title>_CLIENT_SECRET_BRUTE_FORCE_countermeasure2</title>
<polygon fill="#fff2cc" stroke="#d6b656" points="674,-36 460,-36 460,0 674,0 674,-36"/>
<text text-anchor="start" x="510" y="-21.4" font-family="Arial" font-weight="bold" font-size="12.00">Countermeasure</text>
<text text-anchor="start" x="470" y="-9.4" font-family="Arial" font-size="12.00"> Use strong client authentication</text>
</g>
<!-- _CLIENT_SECRET_BRUTE_FORCE_countermeasure2&#45;&gt;4.3 -->
<g id="edge4" class="edge">
<title>_CLIENT_SECRET_BRUTE_FORCE_countermeasure2&#45;&gt;4.3</title>
<path fill="none" stroke="black" d="M497.89,-36.03C441.83,-49.85 364.99,-68.79 320,-79.88"/>
<polygon fill="black" stroke="black" points="318.97,-76.53 310.09,-82.32 320.64,-83.33 318.97,-76.53"/>
</g>
</g>
</svg>
