<?xml version="1.0" encoding="UTF-8" standalone="no"?>
<!DOCTYPE svg PUBLIC "-//W3C//DTD SVG 1.1//EN"
 "http://www.w3.org/Graphics/SVG/1.1/DTD/svg11.dtd">
<!-- Generated by graphviz version 2.43.0 (0)
 -->
<!-- Title: G Pages: 1 -->
<svg width="1214pt" height="116pt"
 viewBox="0.00 0.00 1214.00 116.00" xmlns="http://www.w3.org/2000/svg" xmlns:xlink="http://www.w3.org/1999/xlink">
<g id="graph0" class="graph" transform="scale(1 1) rotate(0) translate(4 112)">
<title>G</title>
<polygon fill="white" stroke="transparent" points="-4,4 -4,-112 1210,-112 1210,4 -4,4"/>
<!-- 4.3 -->
<g id="node1" class="node">
<title>4.3</title>
<text text-anchor="middle" x="417" y="-86.9" font-family="Arial" font-size="12.00">4.3</text>
</g>
<!-- .2 -->
<g id="node2" class="node">
<title>.2</title>
<text text-anchor="middle" x="1095" y="-14.9" font-family="Arial" font-size="12.00">.2</text>
</g>
<!-- _AS_DB_TOKEN_DISCLOSURE -->
<g id="node3" class="node">
<title>_AS_DB_TOKEN_DISCLOSURE</title>
<polygon fill="#f8cecc" stroke="#b85450" points="1206,-36 1140,-36 1140,0 1206,0 1206,-36"/>
<text text-anchor="middle" x="1173" y="-14.9" font-family="Arial" font-size="12.00"> exploits</text>
</g>
<!-- _AS_DB_TOKEN_DISCLOSURE_attack -->
<g id="node4" class="node">
<title>_AS_DB_TOKEN_DISCLOSURE_attack</title>
<polygon fill="#f5f5f5" stroke="#666666" points="76,-36 0,-36 0,0 76,0 76,-36"/>
<text text-anchor="middle" x="38" y="-14.9" font-family="Arial" font-size="12.00"> mitigates</text>
</g>
<!-- _AS_DB_TOKEN_DISCLOSURE_attack&#45;&gt;4.3 -->
<g id="edge1" class="edge">
<title>_AS_DB_TOKEN_DISCLOSURE_attack&#45;&gt;4.3</title>
<path fill="none" stroke="black" d="M76.22,-33.76C78.84,-34.58 81.45,-35.33 84,-36 189.47,-63.6 317.71,-79.09 379.78,-85.48"/>
<polygon fill="black" stroke="black" points="379.57,-88.98 389.87,-86.5 380.27,-82.02 379.57,-88.98"/>
</g>
<!-- _AS_DB_TOKEN_DISCLOSURE_countermeasure0 -->
<g id="node5" class="node">
<title>_AS_DB_TOKEN_DISCLOSURE_countermeasure0</title>
<polygon fill="#d5e8d4" stroke="#82b366" points="422.5,-36 93.5,-36 93.5,0 422.5,0 422.5,-36"/>
<text text-anchor="start" x="201.5" y="-21.4" font-family="Arial" font-weight="bold" font-size="12.00">Countermeasure</text>
<text text-anchor="start" x="104" y="-9.4" font-family="Arial" font-size="12.00"> Store access token hashes only (Section 5.1.4.1.3).</text>
</g>
<!-- _AS_DB_TOKEN_DISCLOSURE_countermeasure0&#45;&gt;4.3 -->
<g id="edge2" class="edge">
<title>_AS_DB_TOKEN_DISCLOSURE_countermeasure0&#45;&gt;4.3</title>
<path fill="none" stroke="black" d="M296.9,-36.12C322.49,-47.39 355.77,-62.04 380.8,-73.06"/>
<polygon fill="black" stroke="black" points="379.4,-76.27 389.96,-77.1 382.22,-69.86 379.4,-76.27"/>
</g>
<!-- _AS_DB_TOKEN_DISCLOSURE_countermeasure1 -->
<g id="node6" class="node">
<title>_AS_DB_TOKEN_DISCLOSURE_countermeasure1</title>
<polygon fill="#fff2cc" stroke="#d6b656" points="711.5,-36 440.5,-36 440.5,0 711.5,0 711.5,-36"/>
<text text-anchor="start" x="519.5" y="-21.4" font-family="Arial" font-weight="bold" font-size="12.00">Countermeasure</text>
<text text-anchor="start" x="451" y="-9.4" font-family="Arial" font-size="12.00"> Enforce Standard System Security Means</text>
</g>
<!-- _AS_DB_TOKEN_DISCLOSURE_countermeasure1&#45;&gt;4.3 -->
<g id="edge3" class="edge">
<title>_AS_DB_TOKEN_DISCLOSURE_countermeasure1&#45;&gt;4.3</title>
<path fill="none" stroke="black" d="M537.1,-36.12C511.51,-47.39 478.23,-62.04 453.2,-73.06"/>
<polygon fill="black" stroke="black" points="451.78,-69.86 444.04,-77.1 454.6,-76.27 451.78,-69.86"/>
</g>
<!-- _AS_DB_TOKEN_DISCLOSURE_countermeasure2 -->
<g id="node7" class="node">
<title>_AS_DB_TOKEN_DISCLOSURE_countermeasure2</title>
<polygon fill="#fff2cc" stroke="#d6b656" points="1050,-36 730,-36 730,0 1050,0 1050,-36"/>
<text text-anchor="start" x="833" y="-21.4" font-family="Arial" font-weight="bold" font-size="12.00">Countermeasure</text>
<text text-anchor="start" x="740" y="-9.4" font-family="Arial" font-size="12.00"> Enforce Standard SQL Injection Countermeasures</text>
</g>
<!-- _AS_DB_TOKEN_DISCLOSURE_countermeasure2&#45;&gt;4.3 -->
<g id="edge4" class="edge">
<title>_AS_DB_TOKEN_DISCLOSURE_countermeasure2&#45;&gt;4.3</title>
<path fill="none" stroke="black" d="M774.9,-36.03C670.55,-51.48 522.95,-73.32 454.52,-83.45"/>
<polygon fill="black" stroke="black" points="453.62,-80.04 444.24,-84.97 454.64,-86.97 453.62,-80.04"/>
</g>
</g>
</svg>
