<?xml version="1.0" encoding="UTF-8" standalone="no"?>
<!DOCTYPE svg PUBLIC "-//W3C//DTD SVG 1.1//EN"
 "http://www.w3.org/Graphics/SVG/1.1/DTD/svg11.dtd">
<!-- Generated by graphviz version 2.43.0 (0)
 -->
<!-- Title: G Pages: 1 -->
<svg width="528pt" height="303pt"
 viewBox="0.00 0.00 527.50 303.00" xmlns="http://www.w3.org/2000/svg" xmlns:xlink="http://www.w3.org/1999/xlink">
<g id="graph0" class="graph" transform="scale(1 1) rotate(0) translate(4 299)">
<title>G</title>
<polygon fill="white" stroke="transparent" points="-4,4 -4,-299 523.5,-299 523.5,4 -4,4"/>
<!-- AuthServerPhishing1 -->
<g id="node1" class="node">
<title>AuthServerPhishing1</title>
<polygon fill="#f8cecc" stroke="#b85450" points="432,-295 75,-295 75,-222 432,-222 432,-295"/>
<text text-anchor="start" x="231" y="-279.9" font-family="Arial" font-weight="bold" font-size="12.00">Threat</text>
<text text-anchor="start" x="85.5" y="-267.9" font-family="Arial" font-size="12.00"> Spoofing, Elevation of privileges, Information Disclosure</text>
<g id="a_node1_0"><a xlink:href="#OAuth2.0.CONFIDENTIALITY" xlink:title="&lt;TABLE&gt;">
<polygon fill="#eeeeee" stroke="transparent" points="93.5,-235.5 93.5,-252.5 414.5,-252.5 414.5,-235.5 93.5,-235.5"/>
<text text-anchor="start" x="199.5" y="-240.9" font-family="Arial" font-size="12.00" fill="blue">CONFIDENTIALITY</text>
</a>
</g>
</g>
<!-- AuthServerPhishing1_attack -->
<g id="node2" class="node">
<title>AuthServerPhishing1_attack</title>
<polygon fill="#f5f5f5" stroke="#666666" points="507,-171 0,-171 0,-87 507,-87 507,-171"/>
<text text-anchor="start" x="231.5" y="-156.4" font-family="Arial" font-weight="bold" font-size="12.00">Attack</text>
<text text-anchor="start" x="43" y="-144.4" font-family="Arial" font-size="12.00">A hostile party could take advantage of this by intercepting the client&#39;s</text>
<text text-anchor="start" x="17" y="-132.4" font-family="Arial" font-size="12.00">requests and returning misleading or otherwise incorrect responses. &#160;This could</text>
<text text-anchor="start" x="27" y="-120.4" font-family="Arial" font-size="12.00">be achieved using DNS or Address Resolution Protocol (ARP) spoofing. &#160;Wide</text>
<text text-anchor="start" x="10.5" y="-108.4" font-family="Arial" font-size="12.00">deployment of OAuth and similar protocols may cause users to become inured to</text>
<text text-anchor="start" x="241.5" y="-96.4" font-family="Arial" font-size="12.00">t[...]</text>
</g>
<!-- AuthServerPhishing1_attack&#45;&gt;AuthServerPhishing1 -->
<g id="edge1" class="edge">
<title>AuthServerPhishing1_attack&#45;&gt;AuthServerPhishing1</title>
<path fill="none" stroke="black" d="M253.5,-171.04C253.5,-183.91 253.5,-198.2 253.5,-211.39"/>
<polygon fill="black" stroke="black" points="250,-211.69 253.5,-221.69 257,-211.69 250,-211.69"/>
<text text-anchor="middle" x="284" y="-192.8" font-family="Times,serif" font-size="14.00"> exploits</text>
</g>
<!-- AuthServerPhishing1_countermeasure0 -->
<g id="node3" class="node">
<title>AuthServerPhishing1_countermeasure0</title>
<polygon fill="#d5e8d4" stroke="#82b366" points="231,-36 16,-36 16,0 231,0 231,-36"/>
<text text-anchor="start" x="67" y="-21.4" font-family="Arial" font-weight="bold" font-size="12.00">Countermeasure</text>
<text text-anchor="start" x="26.5" y="-9.4" font-family="Arial" font-size="12.00"> TLS for the authorization server</text>
</g>
<!-- AuthServerPhishing1_countermeasure0&#45;&gt;AuthServerPhishing1_attack -->
<g id="edge2" class="edge">
<title>AuthServerPhishing1_countermeasure0&#45;&gt;AuthServerPhishing1_attack</title>
<path fill="none" stroke="black" d="M143.81,-36.03C158.06,-47.98 177.86,-64.58 196.72,-80.39"/>
<polygon fill="black" stroke="black" points="194.53,-83.13 204.45,-86.87 199.03,-77.76 194.53,-83.13"/>
<text text-anchor="middle" x="218" y="-57.8" font-family="Times,serif" font-size="14.00"> mitigates</text>
</g>
<!-- AuthServerPhishing1_countermeasure1 -->
<g id="node4" class="node">
<title>AuthServerPhishing1_countermeasure1</title>
<polygon fill="#d5e8d4" stroke="#82b366" points="519.5,-36 249.5,-36 249.5,0 519.5,0 519.5,-36"/>
<text text-anchor="start" x="327.5" y="-21.4" font-family="Arial" font-weight="bold" font-size="12.00">Countermeasure</text>
<text text-anchor="start" x="259.5" y="-9.4" font-family="Arial" font-size="12.00"> Users educated to avoid phishing attacks</text>
</g>
<!-- AuthServerPhishing1_countermeasure1&#45;&gt;AuthServerPhishing1_attack -->
<g id="edge3" class="edge">
<title>AuthServerPhishing1_countermeasure1&#45;&gt;AuthServerPhishing1_attack</title>
<path fill="none" stroke="black" d="M364.03,-36.03C349.67,-47.98 329.72,-64.58 310.72,-80.39"/>
<polygon fill="black" stroke="black" points="308.38,-77.78 302.93,-86.87 312.86,-83.16 308.38,-77.78"/>
<text text-anchor="middle" x="378" y="-57.8" font-family="Times,serif" font-size="14.00"> mitigates</text>
</g>
</g>
</svg>
