<?xml version="1.0" encoding="UTF-8" standalone="no"?>
<!DOCTYPE svg PUBLIC "-//W3C//DTD SVG 1.1//EN"
 "http://www.w3.org/Graphics/SVG/1.1/DTD/svg11.dtd">
<!-- Generated by graphviz version 2.43.0 (0)
 -->
<!-- Title: G Pages: 1 -->
<svg width="965pt" height="303pt"
 viewBox="0.00 0.00 964.50 303.00" xmlns="http://www.w3.org/2000/svg" xmlns:xlink="http://www.w3.org/1999/xlink">
<g id="graph0" class="graph" transform="scale(1 1) rotate(0) translate(4 299)">
<title>G</title>
<polygon fill="white" stroke="transparent" points="-4,4 -4,-299 960.5,-299 960.5,4 -4,4"/>
<!-- 4_3_2_AS_DB_TOKEN_DISCLOSURE -->
<g id="node1" class="node">
<title>4_3_2_AS_DB_TOKEN_DISCLOSURE</title>
<polygon fill="#f8cecc" stroke="#b85450" points="716,-295 249,-295 249,-210 716,-210 716,-295"/>
<text text-anchor="start" x="460" y="-279.9" font-family="Arial" font-weight="bold" font-size="12.00">Threat</text>
<text text-anchor="start" x="259.5" y="-267.9" font-family="Arial" font-size="12.00"> Spoofing, Elevation of privileges, Information Disclosure in: system Access</text>
<text text-anchor="start" x="377.5" y="-255.9" font-family="Arial" font-size="12.00">Token, system Authorization server</text>
<g id="a_node1_0"><a xlink:href="#OAuth2.CONFIDENTIALITY" xlink:title="&lt;TABLE&gt;">
<polygon fill="#eeeeee" stroke="transparent" points="267.5,-223.5 267.5,-240.5 501.5,-240.5 501.5,-223.5 267.5,-223.5"/>
<text text-anchor="start" x="330" y="-228.9" font-family="Arial" font-size="12.00" fill="blue">CONFIDENTIALITY</text>
</a>
</g>
<g id="a_node1_1"><a xlink:href="#OAuth2.INTEGRITY" xlink:title="&lt;TABLE&gt;">
<polygon fill="#eeeeee" stroke="transparent" points="509.5,-223.5 509.5,-240.5 698.5,-240.5 698.5,-223.5 509.5,-223.5"/>
<text text-anchor="start" x="572" y="-228.9" font-family="Arial" font-size="12.00" fill="blue">INTEGRITY</text>
</a>
</g>
</g>
<!-- 4_3_2_AS_DB_TOKEN_DISCLOSURE_attack -->
<g id="node2" class="node">
<title>4_3_2_AS_DB_TOKEN_DISCLOSURE_attack</title>
<polygon fill="#f5f5f5" stroke="#666666" points="740.5,-159 224.5,-159 224.5,-87 740.5,-87 740.5,-159"/>
<text text-anchor="start" x="460" y="-144.4" font-family="Arial" font-weight="bold" font-size="12.00">Attack</text>
<text text-anchor="start" x="234.5" y="-132.4" font-family="Arial" font-size="12.00">An attacker may obtain access tokens from the authorization server’s database by</text>
<text text-anchor="start" x="245.5" y="-120.4" font-family="Arial" font-size="12.00">gaining access to the database or launching a SQL injection attack. &#160;This threat</text>
<text text-anchor="start" x="255.5" y="-108.4" font-family="Arial" font-size="12.00">is applicable if the authorization server stores access tokens as handles in a</text>
<text text-anchor="start" x="452.5" y="-96.4" font-family="Arial" font-size="12.00">database.</text>
</g>
<!-- 4_3_2_AS_DB_TOKEN_DISCLOSURE_attack&#45;&gt;4_3_2_AS_DB_TOKEN_DISCLOSURE -->
<g id="edge1" class="edge">
<title>4_3_2_AS_DB_TOKEN_DISCLOSURE_attack&#45;&gt;4_3_2_AS_DB_TOKEN_DISCLOSURE</title>
<path fill="none" stroke="black" d="M482.5,-159.18C482.5,-171.63 482.5,-185.92 482.5,-199.47"/>
<polygon fill="black" stroke="black" points="479,-199.65 482.5,-209.65 486,-199.65 479,-199.65"/>
<text text-anchor="middle" x="513" y="-180.8" font-family="Times,serif" font-size="14.00"> exploits</text>
</g>
<!-- 4_3_2_AS_DB_TOKEN_DISCLOSURE_countermeasure0 -->
<g id="node3" class="node">
<title>4_3_2_AS_DB_TOKEN_DISCLOSURE_countermeasure0</title>
<polygon fill="#d5e8d4" stroke="#82b366" points="329,-36 0,-36 0,0 329,0 329,-36"/>
<text text-anchor="start" x="108" y="-21.4" font-family="Arial" font-weight="bold" font-size="12.00">Countermeasure</text>
<text text-anchor="start" x="10.5" y="-9.4" font-family="Arial" font-size="12.00"> Store access token hashes only (Section 5.1.4.1.3).</text>
</g>
<!-- 4_3_2_AS_DB_TOKEN_DISCLOSURE_countermeasure0&#45;&gt;4_3_2_AS_DB_TOKEN_DISCLOSURE_attack -->
<g id="edge2" class="edge">
<title>4_3_2_AS_DB_TOKEN_DISCLOSURE_countermeasure0&#45;&gt;4_3_2_AS_DB_TOKEN_DISCLOSURE_attack</title>
<path fill="none" stroke="black" d="M217.01,-36.01C257.03,-48.97 313.72,-67.33 364.44,-83.76"/>
<polygon fill="black" stroke="black" points="363.57,-87.16 374.16,-86.91 365.73,-80.5 363.57,-87.16"/>
<text text-anchor="middle" x="351" y="-57.8" font-family="Times,serif" font-size="14.00"> mitigates</text>
</g>
<!-- 4_3_2_AS_DB_TOKEN_DISCLOSURE_countermeasure1 -->
<g id="node4" class="node">
<title>4_3_2_AS_DB_TOKEN_DISCLOSURE_countermeasure1</title>
<polygon fill="#fff2cc" stroke="#d6b656" points="618,-36 347,-36 347,0 618,0 618,-36"/>
<text text-anchor="start" x="426" y="-21.4" font-family="Arial" font-weight="bold" font-size="12.00">Countermeasure</text>
<text text-anchor="start" x="357.5" y="-9.4" font-family="Arial" font-size="12.00"> Enforce Standard System Security Means</text>
</g>
<!-- 4_3_2_AS_DB_TOKEN_DISCLOSURE_countermeasure1&#45;&gt;4_3_2_AS_DB_TOKEN_DISCLOSURE_attack -->
<g id="edge3" class="edge">
<title>4_3_2_AS_DB_TOKEN_DISCLOSURE_countermeasure1&#45;&gt;4_3_2_AS_DB_TOKEN_DISCLOSURE_attack</title>
<path fill="none" stroke="black" d="M482.5,-36.01C482.5,-47.04 482.5,-61.99 482.5,-76.32"/>
<polygon fill="black" stroke="black" points="479,-76.59 482.5,-86.59 486,-76.59 479,-76.59"/>
<text text-anchor="middle" x="519" y="-57.8" font-family="Times,serif" font-size="14.00"> mitigates</text>
</g>
<!-- 4_3_2_AS_DB_TOKEN_DISCLOSURE_countermeasure2 -->
<g id="node5" class="node">
<title>4_3_2_AS_DB_TOKEN_DISCLOSURE_countermeasure2</title>
<polygon fill="#fff2cc" stroke="#d6b656" points="956.5,-36 636.5,-36 636.5,0 956.5,0 956.5,-36"/>
<text text-anchor="start" x="739.5" y="-21.4" font-family="Arial" font-weight="bold" font-size="12.00">Countermeasure</text>
<text text-anchor="start" x="646.5" y="-9.4" font-family="Arial" font-size="12.00"> Enforce Standard SQL Injection Countermeasures</text>
</g>
<!-- 4_3_2_AS_DB_TOKEN_DISCLOSURE_countermeasure2&#45;&gt;4_3_2_AS_DB_TOKEN_DISCLOSURE_attack -->
<g id="edge4" class="edge">
<title>4_3_2_AS_DB_TOKEN_DISCLOSURE_countermeasure2&#45;&gt;4_3_2_AS_DB_TOKEN_DISCLOSURE_attack</title>
<path fill="none" stroke="black" d="M744.65,-36.01C705.13,-48.97 649.16,-67.33 599.08,-83.76"/>
<polygon fill="black" stroke="black" points="597.88,-80.47 589.47,-86.91 600.07,-87.12 597.88,-80.47"/>
<text text-anchor="middle" x="722" y="-57.8" font-family="Times,serif" font-size="14.00"> mitigates</text>
</g>
</g>
</svg>
