<?xml version="1.0" encoding="UTF-8" standalone="no"?>
<!DOCTYPE svg PUBLIC "-//W3C//DTD SVG 1.1//EN"
 "http://www.w3.org/Graphics/SVG/1.1/DTD/svg11.dtd">
<!-- Generated by graphviz version 2.43.0 (0)
 -->
<!-- Title: G Pages: 1 -->
<svg width="973pt" height="291pt"
 viewBox="0.00 0.00 972.50 291.00" xmlns="http://www.w3.org/2000/svg" xmlns:xlink="http://www.w3.org/1999/xlink">
<g id="graph0" class="graph" transform="scale(1 1) rotate(0) translate(4 287)">
<title>G</title>
<polygon fill="white" stroke="transparent" points="-4,4 -4,-287 968.5,-287 968.5,4 -4,4"/>
<!-- 4_3_4_CLIENT_CREDENTIALS_DISCLOSURE -->
<g id="node1" class="node">
<title>4_3_4_CLIENT_CREDENTIALS_DISCLOSURE</title>
<polygon fill="#f8cecc" stroke="#b85450" points="709.5,-283 238.5,-283 238.5,-198 709.5,-198 709.5,-283"/>
<text text-anchor="start" x="451.5" y="-267.9" font-family="Arial" font-weight="bold" font-size="12.00">Threat</text>
<text text-anchor="start" x="249" y="-255.9" font-family="Arial" font-size="12.00"> Spoofing, Elevation of privileges, Information Disclosure in Client secret for</text>
<text text-anchor="start" x="372" y="-243.9" font-family="Arial" font-size="12.00">authentication with AUTH_SERVER</text>
<g id="a_node1_0"><a xlink:href="#OAuth2.CONFIDENTIALITY" xlink:title="&lt;TABLE&gt;">
<polygon fill="#eeeeee" stroke="transparent" points="257,-211.5 257,-228.5 493,-228.5 493,-211.5 257,-211.5"/>
<text text-anchor="start" x="320.5" y="-216.9" font-family="Arial" font-size="12.00" fill="blue">CONFIDENTIALITY</text>
</a>
</g>
<g id="a_node1_1"><a xlink:href="#OAuth2.INTEGRITY" xlink:title="&lt;TABLE&gt;">
<polygon fill="#eeeeee" stroke="transparent" points="501,-211.5 501,-228.5 692,-228.5 692,-211.5 501,-211.5"/>
<text text-anchor="start" x="564.5" y="-216.9" font-family="Arial" font-size="12.00" fill="blue">INTEGRITY</text>
</a>
</g>
</g>
<!-- 4_3_4_CLIENT_CREDENTIALS_DISCLOSURE_attack -->
<g id="node2" class="node">
<title>4_3_4_CLIENT_CREDENTIALS_DISCLOSURE_attack</title>
<polygon fill="#f5f5f5" stroke="#666666" points="727.5,-147 220.5,-147 220.5,-87 727.5,-87 727.5,-147"/>
<text text-anchor="start" x="452" y="-132.4" font-family="Arial" font-weight="bold" font-size="12.00">Attack</text>
<text text-anchor="start" x="266.5" y="-120.4" font-family="Arial" font-size="12.00">An attacker may obtain valid &quot;client_id&quot;/secret combinations from the</text>
<text text-anchor="start" x="231" y="-108.4" font-family="Arial" font-size="12.00">authorization server’s database by gaining access to the database or launching a</text>
<text text-anchor="start" x="412.5" y="-96.4" font-family="Arial" font-size="12.00">SQL injection attack.</text>
</g>
<!-- 4_3_4_CLIENT_CREDENTIALS_DISCLOSURE_attack&#45;&gt;4_3_4_CLIENT_CREDENTIALS_DISCLOSURE -->
<g id="edge1" class="edge">
<title>4_3_4_CLIENT_CREDENTIALS_DISCLOSURE_attack&#45;&gt;4_3_4_CLIENT_CREDENTIALS_DISCLOSURE</title>
<path fill="none" stroke="black" d="M474,-147.1C474,-159.19 474,-173.59 474,-187.38"/>
<polygon fill="black" stroke="black" points="470.5,-187.77 474,-197.77 477.5,-187.77 470.5,-187.77"/>
<text text-anchor="middle" x="504.5" y="-168.8" font-family="Times,serif" font-size="14.00"> exploits</text>
</g>
<!-- 4_3_4_CLIENT_CREDENTIALS_DISCLOSURE_countermeasure0 -->
<g id="node3" class="node">
<title>4_3_4_CLIENT_CREDENTIALS_DISCLOSURE_countermeasure0</title>
<polygon fill="#fff2cc" stroke="#d6b656" points="320,-36 0,-36 0,0 320,0 320,-36"/>
<text text-anchor="start" x="103" y="-21.4" font-family="Arial" font-weight="bold" font-size="12.00">Countermeasure</text>
<text text-anchor="start" x="10" y="-9.4" font-family="Arial" font-size="12.00"> Enforce Standard SQL Injection Countermeasures</text>
</g>
<!-- 4_3_4_CLIENT_CREDENTIALS_DISCLOSURE_countermeasure0&#45;&gt;4_3_4_CLIENT_CREDENTIALS_DISCLOSURE_attack -->
<g id="edge2" class="edge">
<title>4_3_4_CLIENT_CREDENTIALS_DISCLOSURE_countermeasure0&#45;&gt;4_3_4_CLIENT_CREDENTIALS_DISCLOSURE_attack</title>
<path fill="none" stroke="black" d="M215.05,-36.01C257.86,-49.23 318.47,-67.95 370.29,-83.96"/>
<polygon fill="black" stroke="black" points="369.27,-87.31 379.86,-86.92 371.34,-80.62 369.27,-87.31"/>
<text text-anchor="middle" x="353.5" y="-57.8" font-family="Times,serif" font-size="14.00"> mitigates</text>
</g>
<!-- 4_3_4_CLIENT_CREDENTIALS_DISCLOSURE_countermeasure1 -->
<g id="node4" class="node">
<title>4_3_4_CLIENT_CREDENTIALS_DISCLOSURE_countermeasure1</title>
<polygon fill="#fff2cc" stroke="#d6b656" points="609.5,-36 338.5,-36 338.5,0 609.5,0 609.5,-36"/>
<text text-anchor="start" x="417.5" y="-21.4" font-family="Arial" font-weight="bold" font-size="12.00">Countermeasure</text>
<text text-anchor="start" x="349" y="-9.4" font-family="Arial" font-size="12.00"> Enforce Standard System Security Means</text>
</g>
<!-- 4_3_4_CLIENT_CREDENTIALS_DISCLOSURE_countermeasure1&#45;&gt;4_3_4_CLIENT_CREDENTIALS_DISCLOSURE_attack -->
<g id="edge3" class="edge">
<title>4_3_4_CLIENT_CREDENTIALS_DISCLOSURE_countermeasure1&#45;&gt;4_3_4_CLIENT_CREDENTIALS_DISCLOSURE_attack</title>
<path fill="none" stroke="black" d="M474,-36.34C474,-47.46 474,-62.36 474,-76.27"/>
<polygon fill="black" stroke="black" points="470.5,-76.63 474,-86.63 477.5,-76.63 470.5,-76.63"/>
<text text-anchor="middle" x="510.5" y="-57.8" font-family="Times,serif" font-size="14.00"> mitigates</text>
</g>
<!-- 4_3_4_CLIENT_CREDENTIALS_DISCLOSURE_countermeasure2 -->
<g id="node5" class="node">
<title>4_3_4_CLIENT_CREDENTIALS_DISCLOSURE_countermeasure2</title>
<polygon fill="#fff2cc" stroke="#d6b656" points="964.5,-36 627.5,-36 627.5,0 964.5,0 964.5,-36"/>
<text text-anchor="start" x="739.5" y="-21.4" font-family="Arial" font-weight="bold" font-size="12.00">Countermeasure</text>
<text text-anchor="start" x="638" y="-9.4" font-family="Arial" font-size="12.00"> Enforce Credential Storage Protection Best Practices</text>
</g>
<!-- 4_3_4_CLIENT_CREDENTIALS_DISCLOSURE_countermeasure2&#45;&gt;4_3_4_CLIENT_CREDENTIALS_DISCLOSURE_attack -->
<g id="edge4" class="edge">
<title>4_3_4_CLIENT_CREDENTIALS_DISCLOSURE_countermeasure2&#45;&gt;4_3_4_CLIENT_CREDENTIALS_DISCLOSURE_attack</title>
<path fill="none" stroke="black" d="M739.54,-36.01C695.65,-49.23 633.49,-67.95 580.35,-83.96"/>
<polygon fill="black" stroke="black" points="579.1,-80.68 570.54,-86.92 581.12,-87.39 579.1,-80.68"/>
<text text-anchor="middle" x="709.5" y="-57.8" font-family="Times,serif" font-size="14.00"> mitigates</text>
</g>
</g>
</svg>
