<?xml version="1.0" encoding="UTF-8" standalone="no"?>
<!DOCTYPE svg PUBLIC "-//W3C//DTD SVG 1.1//EN"
 "http://www.w3.org/Graphics/SVG/1.1/DTD/svg11.dtd">
<!-- Generated by graphviz version 2.43.0 (0)
 -->
<!-- Title: G Pages: 1 -->
<svg width="866pt" height="303pt"
 viewBox="0.00 0.00 866.00 303.00" xmlns="http://www.w3.org/2000/svg" xmlns:xlink="http://www.w3.org/1999/xlink">
<g id="graph0" class="graph" transform="scale(1 1) rotate(0) translate(4 299)">
<title>G</title>
<polygon fill="white" stroke="transparent" points="-4,4 -4,-299 862,-299 862,4 -4,4"/>
<!-- 4_3_1_EAVESDROPPING_ACCESS_TOKENS1 -->
<g id="node1" class="node">
<title>4_3_1_EAVESDROPPING_ACCESS_TOKENS1</title>
<polygon fill="#f8cecc" stroke="#b85450" points="648.5,-295 154.5,-295 154.5,-186 648.5,-186 648.5,-295"/>
<text text-anchor="start" x="378.5" y="-279.9" font-family="Arial" font-weight="bold" font-size="12.00">Threat</text>
<text text-anchor="start" x="180.5" y="-267.9" font-family="Arial" font-size="12.00"> Spoofing, Elevation of privileges, Information Disclosure in: dataflow Auth</text>
<text text-anchor="start" x="185" y="-255.9" font-family="Arial" font-size="12.00">server sending the access token to the client, dataflow Client requesting</text>
<text text-anchor="start" x="164.5" y="-243.9" font-family="Arial" font-size="12.00">Authorization Server for the Access Token, endpoint Authorization server token</text>
<text text-anchor="start" x="375" y="-231.9" font-family="Arial" font-size="12.00">endpoint</text>
<g id="a_node1_0"><a xlink:href="#OAuth2.CONFIDENTIALITY" xlink:title="&lt;TABLE&gt;">
<polygon fill="#eeeeee" stroke="transparent" points="172.5,-199.5 172.5,-216.5 420.5,-216.5 420.5,-199.5 172.5,-199.5"/>
<text text-anchor="start" x="242" y="-204.9" font-family="Arial" font-size="12.00" fill="blue">CONFIDENTIALITY</text>
</a>
</g>
<g id="a_node1_1"><a xlink:href="#OAuth2.INTEGRITY" xlink:title="&lt;TABLE&gt;">
<polygon fill="#eeeeee" stroke="transparent" points="428.5,-199.5 428.5,-216.5 630.5,-216.5 630.5,-199.5 428.5,-199.5"/>
<text text-anchor="start" x="497.5" y="-204.9" font-family="Arial" font-size="12.00" fill="blue">INTEGRITY</text>
</a>
</g>
</g>
<!-- 4_3_1_EAVESDROPPING_ACCESS_TOKENS1_attack -->
<g id="node2" class="node">
<title>4_3_1_EAVESDROPPING_ACCESS_TOKENS1_attack</title>
<polygon fill="#f5f5f5" stroke="#666666" points="622,-135 181,-135 181,-87 622,-87 622,-135"/>
<text text-anchor="start" x="379.5" y="-120.4" font-family="Arial" font-weight="bold" font-size="12.00">Attack</text>
<text text-anchor="start" x="191.5" y="-108.4" font-family="Arial" font-size="12.00">Attackers may attempt to eavesdrop access tokens in transit from the</text>
<text text-anchor="start" x="302" y="-96.4" font-family="Arial" font-size="12.00">authorization server to the client.</text>
</g>
<!-- 4_3_1_EAVESDROPPING_ACCESS_TOKENS1_attack&#45;&gt;4_3_1_EAVESDROPPING_ACCESS_TOKENS1 -->
<g id="edge1" class="edge">
<title>4_3_1_EAVESDROPPING_ACCESS_TOKENS1_attack&#45;&gt;4_3_1_EAVESDROPPING_ACCESS_TOKENS1</title>
<path fill="none" stroke="black" d="M401.5,-135.09C401.5,-146.63 401.5,-161.23 401.5,-175.82"/>
<polygon fill="black" stroke="black" points="398,-175.89 401.5,-185.89 405,-175.89 398,-175.89"/>
<text text-anchor="middle" x="432" y="-156.8" font-family="Times,serif" font-size="14.00"> exploits</text>
</g>
<!-- 4_3_1_EAVESDROPPING_ACCESS_TOKENS1_countermeasure0 -->
<g id="node3" class="node">
<title>4_3_1_EAVESDROPPING_ACCESS_TOKENS1_countermeasure0</title>
<polygon fill="#fff2cc" stroke="#d6b656" points="365,-36 0,-36 0,0 365,0 365,-36"/>
<text text-anchor="start" x="126" y="-21.4" font-family="Arial" font-weight="bold" font-size="12.00">Countermeasure</text>
<text text-anchor="start" x="10.5" y="-9.4" font-family="Arial" font-size="12.00"> Secure transport layer to CLient to AUTH_SERVER by TLS</text>
</g>
<!-- 4_3_1_EAVESDROPPING_ACCESS_TOKENS1_countermeasure0&#45;&gt;4_3_1_EAVESDROPPING_ACCESS_TOKENS1_attack -->
<g id="edge2" class="edge">
<title>4_3_1_EAVESDROPPING_ACCESS_TOKENS1_countermeasure0&#45;&gt;4_3_1_EAVESDROPPING_ACCESS_TOKENS1_attack</title>
<path fill="none" stroke="black" d="M223.44,-36.01C255.14,-49.18 299.68,-67.69 336.29,-82.9"/>
<polygon fill="black" stroke="black" points="335.32,-86.29 345.89,-86.89 338,-79.82 335.32,-86.29"/>
<text text-anchor="middle" x="336" y="-57.8" font-family="Times,serif" font-size="14.00"> mitigates</text>
</g>
<!-- 4_3_1_EAVESDROPPING_ACCESS_TOKENS1_countermeasure1 -->
<g id="node4" class="node">
<title>4_3_1_EAVESDROPPING_ACCESS_TOKENS1_countermeasure1</title>
<polygon fill="#fff2cc" stroke="#d6b656" points="858,-36 383,-36 383,0 858,0 858,-36"/>
<text text-anchor="start" x="564" y="-21.4" font-family="Arial" font-weight="bold" font-size="12.00">Countermeasure</text>
<text text-anchor="start" x="393.5" y="-9.4" font-family="Arial" font-size="12.00"> Limiting the scope of access tokens obtained through automated approvals</text>
</g>
<!-- 4_3_1_EAVESDROPPING_ACCESS_TOKENS1_countermeasure1&#45;&gt;4_3_1_EAVESDROPPING_ACCESS_TOKENS1_attack -->
<g id="edge3" class="edge">
<title>4_3_1_EAVESDROPPING_ACCESS_TOKENS1_countermeasure1&#45;&gt;4_3_1_EAVESDROPPING_ACCESS_TOKENS1_attack</title>
<path fill="none" stroke="black" d="M579.56,-36.01C547.86,-49.18 503.32,-67.69 466.71,-82.9"/>
<polygon fill="black" stroke="black" points="465,-79.82 457.11,-86.89 467.68,-86.29 465,-79.82"/>
<text text-anchor="middle" x="567" y="-57.8" font-family="Times,serif" font-size="14.00"> mitigates</text>
</g>
</g>
</svg>
