<?xml version="1.0" encoding="UTF-8" standalone="no"?>
<!DOCTYPE svg PUBLIC "-//W3C//DTD SVG 1.1//EN"
 "http://www.w3.org/Graphics/SVG/1.1/DTD/svg11.dtd">
<!-- Generated by graphviz version 2.43.0 (0)
 -->
<!-- Title: G Pages: 1 -->
<svg width="588pt" height="267pt"
 viewBox="0.00 0.00 588.00 267.00" xmlns="http://www.w3.org/2000/svg" xmlns:xlink="http://www.w3.org/1999/xlink">
<g id="graph0" class="graph" transform="scale(1 1) rotate(0) translate(4 263)">
<title>G</title>
<polygon fill="white" stroke="transparent" points="-4,4 -4,-263 584,-263 584,4 -4,4"/>
<!-- 4_3_5_CLIENT_SECRET_BRUTE_FORCE -->
<g id="node1" class="node">
<title>4_3_5_CLIENT_SECRET_BRUTE_FORCE</title>
<polygon fill="#f8cecc" stroke="#b85450" points="516.5,-259 45.5,-259 45.5,-174 516.5,-174 516.5,-259"/>
<text text-anchor="start" x="258.5" y="-243.9" font-family="Arial" font-weight="bold" font-size="12.00">Threat</text>
<text text-anchor="start" x="56" y="-231.9" font-family="Arial" font-size="12.00"> Spoofing, Elevation of privileges, Information Disclosure in Client secret for</text>
<text text-anchor="start" x="179" y="-219.9" font-family="Arial" font-size="12.00">authentication with AUTH_SERVER</text>
<g id="a_node1_0"><a xlink:href="#OAuth2.CONFIDENTIALITY" xlink:title="&lt;TABLE&gt;">
<polygon fill="#eeeeee" stroke="transparent" points="64,-187.5 64,-204.5 300,-204.5 300,-187.5 64,-187.5"/>
<text text-anchor="start" x="127.5" y="-192.9" font-family="Arial" font-size="12.00" fill="blue">CONFIDENTIALITY</text>
</a>
</g>
<g id="a_node1_1"><a xlink:href="#OAuth2.INTEGRITY" xlink:title="&lt;TABLE&gt;">
<polygon fill="#eeeeee" stroke="transparent" points="308,-187.5 308,-204.5 499,-204.5 499,-187.5 308,-187.5"/>
<text text-anchor="start" x="371.5" y="-192.9" font-family="Arial" font-size="12.00" fill="blue">INTEGRITY</text>
</a>
</g>
</g>
<!-- 4_3_5_CLIENT_SECRET_BRUTE_FORCE_attack -->
<g id="node2" class="node">
<title>4_3_5_CLIENT_SECRET_BRUTE_FORCE_attack</title>
<polygon fill="#f5f5f5" stroke="#666666" points="464,-123 98,-123 98,-87 464,-87 464,-123"/>
<text text-anchor="start" x="258.5" y="-108.4" font-family="Arial" font-weight="bold" font-size="12.00">Attack</text>
<text text-anchor="start" x="108" y="-96.4" font-family="Arial" font-size="12.00">An attacker may try to guess valid &quot;client_id&quot;/secret pairs.</text>
</g>
<!-- 4_3_5_CLIENT_SECRET_BRUTE_FORCE_attack&#45;&gt;4_3_5_CLIENT_SECRET_BRUTE_FORCE -->
<g id="edge1" class="edge">
<title>4_3_5_CLIENT_SECRET_BRUTE_FORCE_attack&#45;&gt;4_3_5_CLIENT_SECRET_BRUTE_FORCE</title>
<path fill="none" stroke="black" d="M281,-123.11C281,-134.15 281,-149.16 281,-163.87"/>
<polygon fill="black" stroke="black" points="277.5,-163.95 281,-173.95 284.5,-163.95 277.5,-163.95"/>
<text text-anchor="middle" x="311.5" y="-144.8" font-family="Times,serif" font-size="14.00"> exploits</text>
</g>
<!-- 4_3_5_CLIENT_SECRET_BRUTE_FORCE_countermeasure0 -->
<g id="node3" class="node">
<title>4_3_5_CLIENT_SECRET_BRUTE_FORCE_countermeasure0</title>
<polygon fill="#fff2cc" stroke="#d6b656" points="196,-36 0,-36 0,0 196,0 196,-36"/>
<text text-anchor="start" x="41" y="-21.4" font-family="Arial" font-weight="bold" font-size="12.00">Countermeasure</text>
<text text-anchor="start" x="10" y="-9.4" font-family="Arial" font-size="12.00"> Use High Entropy for Secrets</text>
</g>
<!-- 4_3_5_CLIENT_SECRET_BRUTE_FORCE_countermeasure0&#45;&gt;4_3_5_CLIENT_SECRET_BRUTE_FORCE_attack -->
<g id="edge2" class="edge">
<title>4_3_5_CLIENT_SECRET_BRUTE_FORCE_countermeasure0&#45;&gt;4_3_5_CLIENT_SECRET_BRUTE_FORCE_attack</title>
<path fill="none" stroke="black" d="M133.76,-36.02C154.28,-45.75 180.55,-58.14 204,-69 213.59,-73.44 223.88,-78.15 233.71,-82.63"/>
<polygon fill="black" stroke="black" points="232.41,-85.89 242.96,-86.84 235.31,-79.51 232.41,-85.89"/>
<text text-anchor="middle" x="240.5" y="-57.8" font-family="Times,serif" font-size="14.00"> mitigates</text>
</g>
<!-- 4_3_5_CLIENT_SECRET_BRUTE_FORCE_countermeasure1 -->
<g id="node4" class="node">
<title>4_3_5_CLIENT_SECRET_BRUTE_FORCE_countermeasure1</title>
<polygon fill="#fff2cc" stroke="#d6b656" points="348,-36 214,-36 214,0 348,0 348,-36"/>
<text text-anchor="start" x="224" y="-21.4" font-family="Arial" font-weight="bold" font-size="12.00">Countermeasure</text>
<text text-anchor="start" x="235.5" y="-9.4" font-family="Arial" font-size="12.00"> Lock Accounts</text>
</g>
<!-- 4_3_5_CLIENT_SECRET_BRUTE_FORCE_countermeasure1&#45;&gt;4_3_5_CLIENT_SECRET_BRUTE_FORCE_attack -->
<g id="edge3" class="edge">
<title>4_3_5_CLIENT_SECRET_BRUTE_FORCE_countermeasure1&#45;&gt;4_3_5_CLIENT_SECRET_BRUTE_FORCE_attack</title>
<path fill="none" stroke="black" d="M281,-36.2C281,-47.84 281,-63.45 281,-76.76"/>
<polygon fill="black" stroke="black" points="277.5,-76.82 281,-86.82 284.5,-76.82 277.5,-76.82"/>
<text text-anchor="middle" x="317.5" y="-57.8" font-family="Times,serif" font-size="14.00"> mitigates</text>
</g>
<!-- 4_3_5_CLIENT_SECRET_BRUTE_FORCE_countermeasure2 -->
<g id="node5" class="node">
<title>4_3_5_CLIENT_SECRET_BRUTE_FORCE_countermeasure2</title>
<polygon fill="#fff2cc" stroke="#d6b656" points="580,-36 366,-36 366,0 580,0 580,-36"/>
<text text-anchor="start" x="416" y="-21.4" font-family="Arial" font-weight="bold" font-size="12.00">Countermeasure</text>
<text text-anchor="start" x="376" y="-9.4" font-family="Arial" font-size="12.00"> Use strong client authentication</text>
</g>
<!-- 4_3_5_CLIENT_SECRET_BRUTE_FORCE_countermeasure2&#45;&gt;4_3_5_CLIENT_SECRET_BRUTE_FORCE_attack -->
<g id="edge4" class="edge">
<title>4_3_5_CLIENT_SECRET_BRUTE_FORCE_countermeasure2&#45;&gt;4_3_5_CLIENT_SECRET_BRUTE_FORCE_attack</title>
<path fill="none" stroke="black" d="M434.15,-36.2C403.73,-49.67 361.27,-68.46 328.78,-82.85"/>
<polygon fill="black" stroke="black" points="327.2,-79.72 319.47,-86.97 330.03,-86.12 327.2,-79.72"/>
<text text-anchor="middle" x="424.5" y="-57.8" font-family="Times,serif" font-size="14.00"> mitigates</text>
</g>
</g>
</svg>
