<?xml version="1.0" encoding="UTF-8" standalone="no"?>
<!DOCTYPE svg PUBLIC "-//W3C//DTD SVG 1.1//EN"
 "http://www.w3.org/Graphics/SVG/1.1/DTD/svg11.dtd">
<!-- Generated by graphviz version 2.43.0 (0)
 -->
<!-- Title: G Pages: 1 -->
<svg width="519pt" height="291pt"
 viewBox="0.00 0.00 518.50 291.00" xmlns="http://www.w3.org/2000/svg" xmlns:xlink="http://www.w3.org/1999/xlink">
<g id="graph0" class="graph" transform="scale(1 1) rotate(0) translate(4 287)">
<title>G</title>
<polygon fill="white" stroke="transparent" points="-4,4 -4,-287 514.5,-287 514.5,4 -4,4"/>
<!-- 4_3_3_CLIENT_CREDENTIALS_DISCLOSURE -->
<g id="node1" class="node">
<title>4_3_3_CLIENT_CREDENTIALS_DISCLOSURE</title>
<polygon fill="#f8cecc" stroke="#b85450" points="499,-283 23,-283 23,-198 499,-198 499,-283"/>
<text text-anchor="start" x="238" y="-267.9" font-family="Arial" font-weight="bold" font-size="12.00">Threat</text>
<text text-anchor="start" x="33" y="-255.9" font-family="Arial" font-size="12.00"> Spoofing, Elevation of privileges, Information Disclosure in Client requesting</text>
<text text-anchor="start" x="135.5" y="-243.9" font-family="Arial" font-size="12.00">Authorization Server for the Access Token</text>
<g id="a_node1_0"><a xlink:href="#OAuth2.CONFIDENTIALITY" xlink:title="&lt;TABLE&gt;">
<polygon fill="#eeeeee" stroke="transparent" points="41,-211.5 41,-228.5 280,-228.5 280,-211.5 41,-211.5"/>
<text text-anchor="start" x="106" y="-216.9" font-family="Arial" font-size="12.00" fill="blue">CONFIDENTIALITY</text>
</a>
</g>
<g id="a_node1_1"><a xlink:href="#OAuth2.INTEGRITY" xlink:title="&lt;TABLE&gt;">
<polygon fill="#eeeeee" stroke="transparent" points="288,-211.5 288,-228.5 481,-228.5 481,-211.5 288,-211.5"/>
<text text-anchor="start" x="352.5" y="-216.9" font-family="Arial" font-size="12.00" fill="blue">INTEGRITY</text>
</a>
</g>
</g>
<!-- 4_3_3_CLIENT_CREDENTIALS_DISCLOSURE_attack -->
<g id="node2" class="node">
<title>4_3_3_CLIENT_CREDENTIALS_DISCLOSURE_attack</title>
<polygon fill="#f5f5f5" stroke="#666666" points="510.5,-147 11.5,-147 11.5,-87 510.5,-87 510.5,-147"/>
<text text-anchor="start" x="239" y="-132.4" font-family="Arial" font-weight="bold" font-size="12.00">Attack</text>
<text text-anchor="start" x="30" y="-120.4" font-family="Arial" font-size="12.00">An attacker could attempt to eavesdrop the transmission of client credentials</text>
<text text-anchor="start" x="22" y="-108.4" font-family="Arial" font-size="12.00">between the client and server during the client authentication process or during</text>
<text text-anchor="start" x="195" y="-96.4" font-family="Arial" font-size="12.00">OAuth token requests.</text>
</g>
<!-- 4_3_3_CLIENT_CREDENTIALS_DISCLOSURE_attack&#45;&gt;4_3_3_CLIENT_CREDENTIALS_DISCLOSURE -->
<g id="edge1" class="edge">
<title>4_3_3_CLIENT_CREDENTIALS_DISCLOSURE_attack&#45;&gt;4_3_3_CLIENT_CREDENTIALS_DISCLOSURE</title>
<path fill="none" stroke="black" d="M261,-147.1C261,-159.19 261,-173.59 261,-187.38"/>
<polygon fill="black" stroke="black" points="257.5,-187.77 261,-197.77 264.5,-187.77 257.5,-187.77"/>
<text text-anchor="middle" x="291.5" y="-168.8" font-family="Times,serif" font-size="14.00"> exploits</text>
</g>
<!-- 4_3_3_CLIENT_CREDENTIALS_DISCLOSURE_countermeasure0 -->
<g id="node3" class="node">
<title>4_3_3_CLIENT_CREDENTIALS_DISCLOSURE_countermeasure0</title>
<polygon fill="#d5e8d4" stroke="#82b366" points="262,-36 0,-36 0,0 262,0 262,-36"/>
<text text-anchor="start" x="74" y="-21.4" font-family="Arial" font-weight="bold" font-size="12.00">Countermeasure</text>
<text text-anchor="start" x="10" y="-9.4" font-family="Arial" font-size="12.00"> Ensure Confidentiality of Requests (TLS)</text>
</g>
<!-- 4_3_3_CLIENT_CREDENTIALS_DISCLOSURE_countermeasure0&#45;&gt;4_3_3_CLIENT_CREDENTIALS_DISCLOSURE_attack -->
<g id="edge2" class="edge">
<title>4_3_3_CLIENT_CREDENTIALS_DISCLOSURE_countermeasure0&#45;&gt;4_3_3_CLIENT_CREDENTIALS_DISCLOSURE_attack</title>
<path fill="none" stroke="black" d="M153.94,-36.12C170.47,-48.45 193.36,-65.53 213.73,-80.73"/>
<polygon fill="black" stroke="black" points="211.88,-83.71 221.98,-86.89 216.06,-78.1 211.88,-83.71"/>
<text text-anchor="middle" x="232.5" y="-57.8" font-family="Times,serif" font-size="14.00"> mitigates</text>
</g>
<!-- 4_3_3_CLIENT_CREDENTIALS_DISCLOSURE_countermeasure1 -->
<g id="node4" class="node">
<title>4_3_3_CLIENT_CREDENTIALS_DISCLOSURE_countermeasure1</title>
<polygon fill="#fff2cc" stroke="#d6b656" points="501.5,-36 280.5,-36 280.5,0 501.5,0 501.5,-36"/>
<text text-anchor="start" x="334.5" y="-21.4" font-family="Arial" font-weight="bold" font-size="12.00">Countermeasure</text>
<text text-anchor="start" x="291" y="-9.4" font-family="Arial" font-size="12.00"> Do not send plaintext credentials</text>
</g>
<!-- 4_3_3_CLIENT_CREDENTIALS_DISCLOSURE_countermeasure1&#45;&gt;4_3_3_CLIENT_CREDENTIALS_DISCLOSURE_attack -->
<g id="edge3" class="edge">
<title>4_3_3_CLIENT_CREDENTIALS_DISCLOSURE_countermeasure1&#45;&gt;4_3_3_CLIENT_CREDENTIALS_DISCLOSURE_attack</title>
<path fill="none" stroke="black" d="M368.06,-36.12C351.53,-48.45 328.64,-65.53 308.27,-80.73"/>
<polygon fill="black" stroke="black" points="305.94,-78.1 300.02,-86.89 310.12,-83.71 305.94,-78.1"/>
<text text-anchor="middle" x="377.5" y="-57.8" font-family="Times,serif" font-size="14.00"> mitigates</text>
</g>
</g>
</svg>
