<?xml version="1.0" encoding="UTF-8" standalone="no"?>
<!DOCTYPE svg PUBLIC "-//W3C//DTD SVG 1.1//EN"
 "http://www.w3.org/Graphics/SVG/1.1/DTD/svg11.dtd">
<!-- Generated by graphviz version 2.43.0 (0)
 -->
<!-- Title: G Pages: 1 -->
<svg width="1057pt" height="303pt"
 viewBox="0.00 0.00 1056.50 303.00" xmlns="http://www.w3.org/2000/svg" xmlns:xlink="http://www.w3.org/1999/xlink">
<g id="graph0" class="graph" transform="scale(1 1) rotate(0) translate(4 299)">
<title>G</title>
<polygon fill="white" stroke="transparent" points="-4,4 -4,-299 1052.5,-299 1052.5,4 -4,4"/>
<!-- 4_4_1_7_CLIENT_SPOOFING4 -->
<g id="node1" class="node">
<title>4_4_1_7_CLIENT_SPOOFING4</title>
<polygon fill="#f8cecc" stroke="#b85450" points="781.5,-295 427.5,-295 427.5,-222 781.5,-222 781.5,-295"/>
<text text-anchor="start" x="581.5" y="-279.9" font-family="Arial" font-weight="bold" font-size="12.00">Threat</text>
<text text-anchor="start" x="439" y="-267.9" font-family="Arial" font-size="12.00"> Authorization code Leakage through Counterfeit Client</text>
<g id="a_node1_0"><a xlink:href="#OAuth2.CONFIDENTIALITY" xlink:title="&lt;TABLE&gt;">
<polygon fill="#eeeeee" stroke="transparent" points="445.5,-235.5 445.5,-252.5 558.5,-252.5 558.5,-235.5 445.5,-235.5"/>
<text text-anchor="start" x="447.5" y="-240.9" font-family="Arial" font-size="12.00" fill="blue">CONFIDENTIALITY</text>
</a>
</g>
<g id="a_node1_1"><a xlink:href="#OAuth2.INTEGRITY" xlink:title="&lt;TABLE&gt;">
<polygon fill="#eeeeee" stroke="transparent" points="566.5,-235.5 566.5,-252.5 634.5,-252.5 634.5,-235.5 566.5,-235.5"/>
<text text-anchor="start" x="568.5" y="-240.9" font-family="Arial" font-size="12.00" fill="blue">INTEGRITY</text>
</a>
</g>
<g id="a_node1_2"><a xlink:href="#OAuth2.NON_REPUDIATION" xlink:title="&lt;TABLE&gt;">
<polygon fill="#eeeeee" stroke="transparent" points="642.5,-235.5 642.5,-252.5 763.5,-252.5 763.5,-235.5 642.5,-235.5"/>
<text text-anchor="start" x="644.5" y="-240.9" font-family="Arial" font-size="12.00" fill="blue">NON_REPUDIATION</text>
</a>
</g>
</g>
<!-- 4_4_1_7_CLIENT_SPOOFING4_attack -->
<g id="node2" class="node">
<title>4_4_1_7_CLIENT_SPOOFING4_attack</title>
<polygon fill="#f5f5f5" stroke="#666666" points="833,-171 376,-171 376,-87 833,-87 833,-171"/>
<text text-anchor="start" x="582.5" y="-156.4" font-family="Arial" font-weight="bold" font-size="12.00">Attack</text>
<text text-anchor="start" x="411" y="-144.4" font-family="Arial" font-size="12.00">The attacker leverages the authorization &quot;code&quot; grant type in an</text>
<text text-anchor="start" x="386.5" y="-132.4" font-family="Arial" font-size="12.00">attempt to get another user (victim) to log in, authorize access to his/her</text>
<text text-anchor="start" x="393" y="-120.4" font-family="Arial" font-size="12.00">resources, and subsequently obtain the authorization &quot;code&quot; and inject</text>
<text text-anchor="start" x="399" y="-108.4" font-family="Arial" font-size="12.00">it into a client application using the attacker’s account. The goal is to</text>
<text text-anchor="start" x="525.5" y="-96.4" font-family="Arial" font-size="12.00">associate an access au[...]</text>
</g>
<!-- 4_4_1_7_CLIENT_SPOOFING4_attack&#45;&gt;4_4_1_7_CLIENT_SPOOFING4 -->
<g id="edge1" class="edge">
<title>4_4_1_7_CLIENT_SPOOFING4_attack&#45;&gt;4_4_1_7_CLIENT_SPOOFING4</title>
<path fill="none" stroke="black" d="M604.5,-171.04C604.5,-183.91 604.5,-198.2 604.5,-211.39"/>
<polygon fill="black" stroke="black" points="601,-211.69 604.5,-221.69 608,-211.69 601,-211.69"/>
<text text-anchor="middle" x="635" y="-192.8" font-family="Times,serif" font-size="14.00"> exploits</text>
</g>
<!-- 4_4_1_7_CLIENT_SPOOFING4_countermeasure0 -->
<g id="node3" class="node">
<title>4_4_1_7_CLIENT_SPOOFING4_countermeasure0</title>
<polygon fill="#fff2cc" stroke="#d6b656" points="309,-36 0,-36 0,0 309,0 309,-36"/>
<text text-anchor="start" x="98" y="-21.4" font-family="Arial" font-weight="bold" font-size="12.00">Countermeasure</text>
<text text-anchor="start" x="10.5" y="-9.4" font-family="Arial" font-size="12.00"> Binding of Authorization &quot;code&quot; to &quot;redirect_uri&quot;</text>
</g>
<!-- 4_4_1_7_CLIENT_SPOOFING4_countermeasure0&#45;&gt;4_4_1_7_CLIENT_SPOOFING4_attack -->
<g id="edge2" class="edge">
<title>4_4_1_7_CLIENT_SPOOFING4_countermeasure0&#45;&gt;4_4_1_7_CLIENT_SPOOFING4_attack</title>
<path fill="none" stroke="black" d="M224.81,-36.03C278.52,-49.04 355.03,-67.57 425.3,-84.59"/>
<polygon fill="black" stroke="black" points="424.63,-88.03 435.18,-86.99 426.28,-81.23 424.63,-88.03"/>
<text text-anchor="middle" x="390" y="-57.8" font-family="Times,serif" font-size="14.00"> mitigates</text>
</g>
<!-- 4_4_1_7_CLIENT_SPOOFING4_countermeasure1 -->
<g id="node4" class="node">
<title>4_4_1_7_CLIENT_SPOOFING4_countermeasure1</title>
<polygon fill="#d5e8d4" stroke="#82b366" points="588,-36 327,-36 327,0 588,0 588,-36"/>
<text text-anchor="start" x="401" y="-21.4" font-family="Arial" font-weight="bold" font-size="12.00">Countermeasure</text>
<text text-anchor="start" x="337.5" y="-9.4" font-family="Arial" font-size="12.00"> Issue Installation&#45;Specific Client Secrets</text>
</g>
<!-- 4_4_1_7_CLIENT_SPOOFING4_countermeasure1&#45;&gt;4_4_1_7_CLIENT_SPOOFING4_attack -->
<g id="edge3" class="edge">
<title>4_4_1_7_CLIENT_SPOOFING4_countermeasure1&#45;&gt;4_4_1_7_CLIENT_SPOOFING4_attack</title>
<path fill="none" stroke="black" d="M480.47,-36.03C496.72,-48.08 519.37,-64.87 540.86,-80.81"/>
<polygon fill="black" stroke="black" points="538.91,-83.72 549.03,-86.87 543.08,-78.1 538.91,-83.72"/>
<text text-anchor="middle" x="559" y="-57.8" font-family="Times,serif" font-size="14.00"> mitigates</text>
</g>
<!-- 4_4_1_7_CLIENT_SPOOFING4_countermeasure2 -->
<g id="node5" class="node">
<title>4_4_1_7_CLIENT_SPOOFING4_countermeasure2</title>
<polygon fill="#d5e8d4" stroke="#82b366" points="896.5,-36 606.5,-36 606.5,0 896.5,0 896.5,-36"/>
<text text-anchor="start" x="694.5" y="-21.4" font-family="Arial" font-weight="bold" font-size="12.00">Countermeasure</text>
<text text-anchor="start" x="616.5" y="-9.4" font-family="Arial" font-size="12.00"> Binding of Authorization &quot;code&quot; to &quot;client_id&quot;</text>
</g>
<!-- 4_4_1_7_CLIENT_SPOOFING4_countermeasure2&#45;&gt;4_4_1_7_CLIENT_SPOOFING4_attack -->
<g id="edge4" class="edge">
<title>4_4_1_7_CLIENT_SPOOFING4_countermeasure2&#45;&gt;4_4_1_7_CLIENT_SPOOFING4_attack</title>
<path fill="none" stroke="black" d="M728.53,-36.03C712.28,-48.08 689.63,-64.87 668.14,-80.81"/>
<polygon fill="black" stroke="black" points="665.92,-78.1 659.97,-86.87 670.09,-83.72 665.92,-78.1"/>
<text text-anchor="middle" x="740" y="-57.8" font-family="Times,serif" font-size="14.00"> mitigates</text>
</g>
<!-- 4_4_1_7_CLIENT_SPOOFING4_countermeasure3 -->
<g id="node6" class="node">
<title>4_4_1_7_CLIENT_SPOOFING4_countermeasure3</title>
<polygon fill="#fff2cc" stroke="#d6b656" points="1048.5,-36 914.5,-36 914.5,0 1048.5,0 1048.5,-36"/>
<text text-anchor="start" x="924.5" y="-21.4" font-family="Arial" font-weight="bold" font-size="12.00">Countermeasure</text>
<text text-anchor="start" x="925.5" y="-9.4" font-family="Arial" font-size="12.00"> Implicit grant flow</text>
</g>
<!-- 4_4_1_7_CLIENT_SPOOFING4_countermeasure3&#45;&gt;4_4_1_7_CLIENT_SPOOFING4_attack -->
<g id="edge5" class="edge">
<title>4_4_1_7_CLIENT_SPOOFING4_countermeasure3&#45;&gt;4_4_1_7_CLIENT_SPOOFING4_attack</title>
<path fill="none" stroke="black" d="M922.59,-36.03C877.96,-48.93 814.55,-67.27 756.07,-84.18"/>
<polygon fill="black" stroke="black" points="754.99,-80.85 746.36,-86.99 756.93,-87.57 754.99,-80.85"/>
<text text-anchor="middle" x="896" y="-57.8" font-family="Times,serif" font-size="14.00"> mitigates</text>
</g>
</g>
</svg>
