<?xml version="1.0" encoding="UTF-8" standalone="no"?>
<!DOCTYPE svg PUBLIC "-//W3C//DTD SVG 1.1//EN"
 "http://www.w3.org/Graphics/SVG/1.1/DTD/svg11.dtd">
<!-- Generated by graphviz version 2.43.0 (0)
 -->
<!-- Title: G Pages: 1 -->
<svg width="1670pt" height="315pt"
 viewBox="0.00 0.00 1670.00 315.00" xmlns="http://www.w3.org/2000/svg" xmlns:xlink="http://www.w3.org/1999/xlink">
<g id="graph0" class="graph" transform="scale(1 1) rotate(0) translate(4 311)">
<title>G</title>
<polygon fill="white" stroke="transparent" points="-4,4 -4,-311 1666,-311 1666,4 -4,4"/>
<!-- 4_4_1_1_AUTH_CODE_DISCLOSURE -->
<g id="node1" class="node">
<title>4_4_1_1_AUTH_CODE_DISCLOSURE</title>
<polygon fill="#f8cecc" stroke="#b85450" points="1023,-307 585,-307 585,-222 1023,-222 1023,-307"/>
<text text-anchor="start" x="781" y="-291.9" font-family="Arial" font-weight="bold" font-size="12.00">Threat</text>
<text text-anchor="start" x="595" y="-279.9" font-family="Arial" font-size="12.00"> Spoofing, Elevation of privileges, Information Disclosure in: credential</text>
<text text-anchor="start" x="745" y="-267.9" font-family="Arial" font-size="12.00">Authorization Grant</text>
<g id="a_node1_0"><a xlink:href="#OAuth2.CONFIDENTIALITY" xlink:title="&lt;TABLE&gt;">
<polygon fill="#eeeeee" stroke="transparent" points="603,-235.5 603,-252.5 823,-252.5 823,-235.5 603,-235.5"/>
<text text-anchor="start" x="658.5" y="-240.9" font-family="Arial" font-size="12.00" fill="blue">CONFIDENTIALITY</text>
</a>
</g>
<g id="a_node1_1"><a xlink:href="#OAuth2.INTEGRITY" xlink:title="&lt;TABLE&gt;">
<polygon fill="#eeeeee" stroke="transparent" points="831,-235.5 831,-252.5 1005,-252.5 1005,-235.5 831,-235.5"/>
<text text-anchor="start" x="886" y="-240.9" font-family="Arial" font-size="12.00" fill="blue">INTEGRITY</text>
</a>
</g>
</g>
<!-- 4_4_1_1_AUTH_CODE_DISCLOSURE_attack -->
<g id="node2" class="node">
<title>4_4_1_1_AUTH_CODE_DISCLOSURE_attack</title>
<polygon fill="#f5f5f5" stroke="#666666" points="1029,-171 579,-171 579,-87 1029,-87 1029,-171"/>
<text text-anchor="start" x="781.5" y="-156.4" font-family="Arial" font-weight="bold" font-size="12.00">Attack</text>
<text text-anchor="start" x="599.5" y="-144.4" font-family="Arial" font-size="12.00">An attacker could try to eavesdrop transmission of the authorization</text>
<text text-anchor="start" x="608.5" y="-132.4" font-family="Arial" font-size="12.00">&quot;code&quot; between the authorization server and client. Furthermore,</text>
<text text-anchor="start" x="621" y="-120.4" font-family="Arial" font-size="12.00">authorization &quot;codes&quot; are passed via the browser, which may</text>
<text text-anchor="start" x="589" y="-108.4" font-family="Arial" font-size="12.00">unintentionally leak those codes to untrusted web sites and attackers in</text>
<text text-anchor="start" x="670" y="-96.4" font-family="Arial" font-size="12.00">different ways: &lt;br/&gt;o Referrer headers: [...]</text>
</g>
<!-- 4_4_1_1_AUTH_CODE_DISCLOSURE_attack&#45;&gt;4_4_1_1_AUTH_CODE_DISCLOSURE -->
<g id="edge1" class="edge">
<title>4_4_1_1_AUTH_CODE_DISCLOSURE_attack&#45;&gt;4_4_1_1_AUTH_CODE_DISCLOSURE</title>
<path fill="none" stroke="black" d="M804,-171.14C804,-183.96 804,-198.27 804,-211.72"/>
<polygon fill="black" stroke="black" points="800.5,-211.8 804,-221.8 807.5,-211.8 800.5,-211.8"/>
<text text-anchor="middle" x="834.5" y="-192.8" font-family="Times,serif" font-size="14.00"> exploits</text>
</g>
<!-- 4_4_1_1_AUTH_CODE_DISCLOSURE_countermeasure0 -->
<g id="node3" class="node">
<title>4_4_1_1_AUTH_CODE_DISCLOSURE_countermeasure0</title>
<polygon fill="#d5e8d4" stroke="#82b366" points="262,-36 0,-36 0,0 262,0 262,-36"/>
<text text-anchor="start" x="74" y="-21.4" font-family="Arial" font-weight="bold" font-size="12.00">Countermeasure</text>
<text text-anchor="start" x="10" y="-9.4" font-family="Arial" font-size="12.00"> Ensure Confidentiality of Requests (TLS)</text>
</g>
<!-- 4_4_1_1_AUTH_CODE_DISCLOSURE_countermeasure0&#45;&gt;4_4_1_1_AUTH_CODE_DISCLOSURE_attack -->
<g id="edge2" class="edge">
<title>4_4_1_1_AUTH_CODE_DISCLOSURE_countermeasure0&#45;&gt;4_4_1_1_AUTH_CODE_DISCLOSURE_attack</title>
<path fill="none" stroke="black" d="M236.16,-36.03C324.97,-50.42 455.47,-71.55 568.97,-89.93"/>
<polygon fill="black" stroke="black" points="568.42,-93.39 578.85,-91.53 569.54,-86.48 568.42,-93.39"/>
<text text-anchor="middle" x="464.5" y="-57.8" font-family="Times,serif" font-size="14.00"> mitigates</text>
</g>
<!-- 4_4_1_1_AUTH_CODE_DISCLOSURE_countermeasure1 -->
<g id="node4" class="node">
<title>4_4_1_1_AUTH_CODE_DISCLOSURE_countermeasure1</title>
<polygon fill="#d5e8d4" stroke="#82b366" points="570,-36 280,-36 280,0 570,0 570,-36"/>
<text text-anchor="start" x="368" y="-21.4" font-family="Arial" font-weight="bold" font-size="12.00">Countermeasure</text>
<text text-anchor="start" x="290" y="-9.4" font-family="Arial" font-size="12.00"> Binding of Authorization &quot;code&quot; to &quot;client_id&quot;</text>
</g>
<!-- 4_4_1_1_AUTH_CODE_DISCLOSURE_countermeasure1&#45;&gt;4_4_1_1_AUTH_CODE_DISCLOSURE_attack -->
<g id="edge3" class="edge">
<title>4_4_1_1_AUTH_CODE_DISCLOSURE_countermeasure1&#45;&gt;4_4_1_1_AUTH_CODE_DISCLOSURE_attack</title>
<path fill="none" stroke="black" d="M484.22,-36.03C529.08,-48.93 592.83,-67.27 651.62,-84.18"/>
<polygon fill="black" stroke="black" points="650.81,-87.59 661.39,-86.99 652.75,-80.86 650.81,-87.59"/>
<text text-anchor="middle" x="628.5" y="-57.8" font-family="Times,serif" font-size="14.00"> mitigates</text>
</g>
<!-- 4_4_1_1_AUTH_CODE_DISCLOSURE_countermeasure2 -->
<g id="node5" class="node">
<title>4_4_1_1_AUTH_CODE_DISCLOSURE_countermeasure2</title>
<polygon fill="#fff2cc" stroke="#d6b656" points="768,-36 588,-36 588,0 768,0 768,-36"/>
<text text-anchor="start" x="621" y="-21.4" font-family="Arial" font-weight="bold" font-size="12.00">Countermeasure</text>
<text text-anchor="start" x="598" y="-9.4" font-family="Arial" font-size="12.00"> Use Short Expiration Time</text>
</g>
<!-- 4_4_1_1_AUTH_CODE_DISCLOSURE_countermeasure2&#45;&gt;4_4_1_1_AUTH_CODE_DISCLOSURE_attack -->
<g id="edge4" class="edge">
<title>4_4_1_1_AUTH_CODE_DISCLOSURE_countermeasure2&#45;&gt;4_4_1_1_AUTH_CODE_DISCLOSURE_attack</title>
<path fill="none" stroke="black" d="M697.69,-36.03C711.44,-47.92 730.52,-64.43 748.72,-80.18"/>
<polygon fill="black" stroke="black" points="746.6,-82.97 756.45,-86.87 751.18,-77.68 746.6,-82.97"/>
<text text-anchor="middle" x="770.5" y="-57.8" font-family="Times,serif" font-size="14.00"> mitigates</text>
</g>
<!-- 4_4_1_1_AUTH_CODE_DISCLOSURE_countermeasure3 -->
<g id="node6" class="node">
<title>4_4_1_1_AUTH_CODE_DISCLOSURE_countermeasure3</title>
<polygon fill="#fff2cc" stroke="#d6b656" points="1074,-36 786,-36 786,0 1074,0 1074,-36"/>
<text text-anchor="start" x="873" y="-21.4" font-family="Arial" font-weight="bold" font-size="12.00">Countermeasure</text>
<text text-anchor="start" x="796" y="-9.4" font-family="Arial" font-size="12.00"> Limit Number of Usages or One&#45;Time Usage</text>
</g>
<!-- 4_4_1_1_AUTH_CODE_DISCLOSURE_countermeasure3&#45;&gt;4_4_1_1_AUTH_CODE_DISCLOSURE_attack -->
<g id="edge5" class="edge">
<title>4_4_1_1_AUTH_CODE_DISCLOSURE_countermeasure3&#45;&gt;4_4_1_1_AUTH_CODE_DISCLOSURE_attack</title>
<path fill="none" stroke="black" d="M910.31,-36.03C896.56,-47.92 877.48,-64.43 859.28,-80.18"/>
<polygon fill="black" stroke="black" points="856.82,-77.68 851.55,-86.87 861.4,-82.97 856.82,-77.68"/>
<text text-anchor="middle" x="926.5" y="-57.8" font-family="Times,serif" font-size="14.00"> mitigates</text>
</g>
<!-- 4_4_1_1_AUTH_CODE_DISCLOSURE_countermeasure4 -->
<g id="node7" class="node">
<title>4_4_1_1_AUTH_CODE_DISCLOSURE_countermeasure4</title>
<polygon fill="#fff2cc" stroke="#d6b656" points="1482,-36 1092,-36 1092,0 1482,0 1482,-36"/>
<text text-anchor="start" x="1230" y="-21.4" font-family="Arial" font-weight="bold" font-size="12.00">Countermeasure</text>
<text text-anchor="start" x="1102" y="-9.4" font-family="Arial" font-size="12.00"> Automatic Revocation of Derived Tokens If Abuse Is Detected</text>
</g>
<!-- 4_4_1_1_AUTH_CODE_DISCLOSURE_countermeasure4&#45;&gt;4_4_1_1_AUTH_CODE_DISCLOSURE_attack -->
<g id="edge6" class="edge">
<title>4_4_1_1_AUTH_CODE_DISCLOSURE_countermeasure4&#45;&gt;4_4_1_1_AUTH_CODE_DISCLOSURE_attack</title>
<path fill="none" stroke="black" d="M1211.53,-36.03C1153.76,-49.07 1071.43,-67.65 995.87,-84.7"/>
<polygon fill="black" stroke="black" points="994.73,-81.37 985.74,-86.99 996.27,-88.2 994.73,-81.37"/>
<text text-anchor="middle" x="1166.5" y="-57.8" font-family="Times,serif" font-size="14.00"> mitigates</text>
</g>
<!-- 4_4_1_1_AUTH_CODE_DISCLOSURE_countermeasure5 -->
<g id="node8" class="node">
<title>4_4_1_1_AUTH_CODE_DISCLOSURE_countermeasure5</title>
<polygon fill="#fff2cc" stroke="#d6b656" points="1662,-36 1500,-36 1500,0 1662,0 1662,-36"/>
<text text-anchor="start" x="1524" y="-21.4" font-family="Arial" font-weight="bold" font-size="12.00">Countermeasure</text>
<text text-anchor="start" x="1510" y="-9.4" font-family="Arial" font-size="12.00"> Reload the target page</text>
</g>
<!-- 4_4_1_1_AUTH_CODE_DISCLOSURE_countermeasure5&#45;&gt;4_4_1_1_AUTH_CODE_DISCLOSURE_attack -->
<g id="edge7" class="edge">
<title>4_4_1_1_AUTH_CODE_DISCLOSURE_countermeasure5&#45;&gt;4_4_1_1_AUTH_CODE_DISCLOSURE_attack</title>
<path fill="none" stroke="black" d="M1499.6,-34.58C1496.7,-35.07 1493.83,-35.54 1491,-36 1341.2,-60.16 1172.31,-82.84 1039.46,-99.63"/>
<polygon fill="black" stroke="black" points="1038.64,-96.21 1029.16,-100.94 1039.51,-103.16 1038.64,-96.21"/>
<text text-anchor="middle" x="1395.5" y="-57.8" font-family="Times,serif" font-size="14.00"> mitigates</text>
</g>
</g>
</svg>
