<?xml version="1.0" encoding="UTF-8" standalone="no"?>
<!DOCTYPE svg PUBLIC "-//W3C//DTD SVG 1.1//EN"
 "http://www.w3.org/Graphics/SVG/1.1/DTD/svg11.dtd">
<!-- Generated by graphviz version 2.43.0 (0)
 -->
<!-- Title: G Pages: 1 -->
<svg width="511pt" height="303pt"
 viewBox="0.00 0.00 511.00 303.00" xmlns="http://www.w3.org/2000/svg" xmlns:xlink="http://www.w3.org/1999/xlink">
<g id="graph0" class="graph" transform="scale(1 1) rotate(0) translate(4 299)">
<title>G</title>
<polygon fill="white" stroke="transparent" points="-4,4 -4,-299 507,-299 507,4 -4,4"/>
<!-- 4_4_2_1_TOKEN_LEAK1_NETWORK -->
<g id="node1" class="node">
<title>4_4_2_1_TOKEN_LEAK1_NETWORK</title>
<polygon fill="#f8cecc" stroke="#b85450" points="470.5,-295 32.5,-295 32.5,-210 470.5,-210 470.5,-295"/>
<text text-anchor="start" x="228.5" y="-279.9" font-family="Arial" font-weight="bold" font-size="12.00">Threat</text>
<text text-anchor="start" x="42.5" y="-267.9" font-family="Arial" font-size="12.00"> Spoofing, Elevation of privileges, Information Disclosure in: credential</text>
<text text-anchor="start" x="192.5" y="-255.9" font-family="Arial" font-size="12.00">Authorization Grant</text>
<g id="a_node1_0"><a xlink:href="#OAuth2.CONFIDENTIALITY" xlink:title="&lt;TABLE&gt;">
<polygon fill="#eeeeee" stroke="transparent" points="50.5,-223.5 50.5,-240.5 270.5,-240.5 270.5,-223.5 50.5,-223.5"/>
<text text-anchor="start" x="106" y="-228.9" font-family="Arial" font-size="12.00" fill="blue">CONFIDENTIALITY</text>
</a>
</g>
<g id="a_node1_1"><a xlink:href="#OAuth2.INTEGRITY" xlink:title="&lt;TABLE&gt;">
<polygon fill="#eeeeee" stroke="transparent" points="278.5,-223.5 278.5,-240.5 452.5,-240.5 452.5,-223.5 278.5,-223.5"/>
<text text-anchor="start" x="333.5" y="-228.9" font-family="Arial" font-size="12.00" fill="blue">INTEGRITY</text>
</a>
</g>
</g>
<!-- 4_4_2_1_TOKEN_LEAK1_NETWORK_attack -->
<g id="node2" class="node">
<title>4_4_2_1_TOKEN_LEAK1_NETWORK_attack</title>
<polygon fill="#f5f5f5" stroke="#666666" points="503,-159 0,-159 0,-87 503,-87 503,-159"/>
<text text-anchor="start" x="229.5" y="-144.4" font-family="Arial" font-weight="bold" font-size="12.00">Attack</text>
<text text-anchor="start" x="21" y="-132.4" font-family="Arial" font-size="12.00">This token might be eavesdropped by an attacker. The token is sent from the</text>
<text text-anchor="start" x="60.5" y="-120.4" font-family="Arial" font-size="12.00">server to the client via a URI fragment of the redirect URI. If the</text>
<text text-anchor="start" x="10.5" y="-108.4" font-family="Arial" font-size="12.00">communication is not secured or the endpoint is not secured, the token could be</text>
<text text-anchor="start" x="145.5" y="-96.4" font-family="Arial" font-size="12.00">leaked by parsing the returned URI.</text>
</g>
<!-- 4_4_2_1_TOKEN_LEAK1_NETWORK_attack&#45;&gt;4_4_2_1_TOKEN_LEAK1_NETWORK -->
<g id="edge1" class="edge">
<title>4_4_2_1_TOKEN_LEAK1_NETWORK_attack&#45;&gt;4_4_2_1_TOKEN_LEAK1_NETWORK</title>
<path fill="none" stroke="black" d="M251.5,-159.18C251.5,-171.63 251.5,-185.92 251.5,-199.47"/>
<polygon fill="black" stroke="black" points="248,-199.65 251.5,-209.65 255,-199.65 248,-199.65"/>
<text text-anchor="middle" x="282" y="-180.8" font-family="Times,serif" font-size="14.00"> exploits</text>
</g>
<!-- 4_4_2_1_TOKEN_LEAK1_NETWORK_countermeasure0 -->
<g id="node3" class="node">
<title>4_4_2_1_TOKEN_LEAK1_NETWORK_countermeasure0</title>
<polygon fill="#d5e8d4" stroke="#82b366" points="382.5,-36 120.5,-36 120.5,0 382.5,0 382.5,-36"/>
<text text-anchor="start" x="194.5" y="-21.4" font-family="Arial" font-weight="bold" font-size="12.00">Countermeasure</text>
<text text-anchor="start" x="130.5" y="-9.4" font-family="Arial" font-size="12.00"> Ensure Confidentiality of Requests (TLS)</text>
</g>
<!-- 4_4_2_1_TOKEN_LEAK1_NETWORK_countermeasure0&#45;&gt;4_4_2_1_TOKEN_LEAK1_NETWORK_attack -->
<g id="edge2" class="edge">
<title>4_4_2_1_TOKEN_LEAK1_NETWORK_countermeasure0&#45;&gt;4_4_2_1_TOKEN_LEAK1_NETWORK_attack</title>
<path fill="none" stroke="black" d="M251.5,-36.01C251.5,-47.04 251.5,-61.99 251.5,-76.32"/>
<polygon fill="black" stroke="black" points="248,-76.59 251.5,-86.59 255,-76.59 248,-76.59"/>
<text text-anchor="middle" x="288" y="-57.8" font-family="Times,serif" font-size="14.00"> mitigates</text>
</g>
</g>
</svg>
