<?xml version="1.0" encoding="UTF-8" standalone="no"?>
<!DOCTYPE svg PUBLIC "-//W3C//DTD SVG 1.1//EN"
 "http://www.w3.org/Graphics/SVG/1.1/DTD/svg11.dtd">
<!-- Generated by graphviz version 2.43.0 (0)
 -->
<!-- Title: G Pages: 1 -->
<svg width="740pt" height="291pt"
 viewBox="0.00 0.00 740.00 291.00" xmlns="http://www.w3.org/2000/svg" xmlns:xlink="http://www.w3.org/1999/xlink">
<g id="graph0" class="graph" transform="scale(1 1) rotate(0) translate(4 287)">
<title>G</title>
<polygon fill="white" stroke="transparent" points="-4,4 -4,-287 736,-287 736,4 -4,4"/>
<!-- 4_4_1_8_CSRF_ON_REDIRECT -->
<g id="node1" class="node">
<title>4_4_1_8_CSRF_ON_REDIRECT</title>
<polygon fill="#f8cecc" stroke="#b85450" points="617.5,-283 134.5,-283 134.5,-210 617.5,-210 617.5,-283"/>
<text text-anchor="start" x="353.5" y="-267.9" font-family="Arial" font-weight="bold" font-size="12.00">Threat</text>
<text text-anchor="start" x="145" y="-255.9" font-family="Arial" font-size="12.00"> Spoofing, Repudiation, Information Disclosure in Auth User Agent Redirection</text>
<g id="a_node1_0"><a xlink:href="#OAuth2.CONFIDENTIALITY" xlink:title="&lt;TABLE&gt;">
<polygon fill="#eeeeee" stroke="transparent" points="153,-223.5 153,-240.5 369,-240.5 369,-223.5 153,-223.5"/>
<text text-anchor="start" x="206.5" y="-228.9" font-family="Arial" font-size="12.00" fill="blue">CONFIDENTIALITY</text>
</a>
</g>
<g id="a_node1_1"><a xlink:href="#OAuth2.NON_REPUDIATION" xlink:title="&lt;TABLE&gt;">
<polygon fill="#eeeeee" stroke="transparent" points="377,-223.5 377,-240.5 600,-240.5 600,-223.5 377,-223.5"/>
<text text-anchor="start" x="430" y="-228.9" font-family="Arial" font-size="12.00" fill="blue">NON_REPUDIATION</text>
</a>
</g>
</g>
<!-- 4_4_1_8_CSRF_ON_REDIRECT_attack -->
<g id="node2" class="node">
<title>4_4_1_8_CSRF_ON_REDIRECT_attack</title>
<polygon fill="#f5f5f5" stroke="#666666" points="631,-159 121,-159 121,-87 631,-87 631,-159"/>
<text text-anchor="start" x="353.5" y="-144.4" font-family="Arial" font-weight="bold" font-size="12.00">Attack</text>
<text text-anchor="start" x="138" y="-132.4" font-family="Arial" font-size="12.00">Cross&#45;site request forgery (CSRF) is a web&#45;based attack whereby HTTP requests</text>
<text text-anchor="start" x="140" y="-120.4" font-family="Arial" font-size="12.00">are transmitted from a user that the web site trusts or has authenticated (e.g.,</text>
<text text-anchor="start" x="131" y="-108.4" font-family="Arial" font-size="12.00">via HTTP redirects or HTML forms). CSRF attacks on OAuth approvals can allow an</text>
<text text-anchor="start" x="157" y="-96.4" font-family="Arial" font-size="12.00">attacker to obtain authorization to OAuth protected resources without[...]</text>
</g>
<!-- 4_4_1_8_CSRF_ON_REDIRECT_attack&#45;&gt;4_4_1_8_CSRF_ON_REDIRECT -->
<g id="edge1" class="edge">
<title>4_4_1_8_CSRF_ON_REDIRECT_attack&#45;&gt;4_4_1_8_CSRF_ON_REDIRECT</title>
<path fill="none" stroke="black" d="M376,-159.14C376,-171.76 376,-186.19 376,-199.59"/>
<polygon fill="black" stroke="black" points="372.5,-199.59 376,-209.59 379.5,-199.59 372.5,-199.59"/>
<text text-anchor="middle" x="406.5" y="-180.8" font-family="Times,serif" font-size="14.00"> exploits</text>
</g>
<!-- 4_4_1_8_CSRF_ON_REDIRECT_countermeasure0 -->
<g id="node3" class="node">
<title>4_4_1_8_CSRF_ON_REDIRECT_countermeasure0</title>
<polygon fill="#fff2cc" stroke="#d6b656" points="378,-36 0,-36 0,0 378,0 378,-36"/>
<text text-anchor="start" x="132" y="-21.4" font-family="Arial" font-weight="bold" font-size="12.00">Countermeasure</text>
<text text-anchor="start" x="10" y="-9.4" font-family="Arial" font-size="12.00"> Link the state Parameter to User Agent Session (anti CSRF)</text>
</g>
<!-- 4_4_1_8_CSRF_ON_REDIRECT_countermeasure0&#45;&gt;4_4_1_8_CSRF_ON_REDIRECT_attack -->
<g id="edge2" class="edge">
<title>4_4_1_8_CSRF_ON_REDIRECT_countermeasure0&#45;&gt;4_4_1_8_CSRF_ON_REDIRECT_attack</title>
<path fill="none" stroke="black" d="M219.88,-36.01C242.54,-48.49 274.27,-65.97 303.22,-81.91"/>
<polygon fill="black" stroke="black" points="301.65,-85.04 312.1,-86.8 305.03,-78.91 301.65,-85.04"/>
<text text-anchor="middle" x="313.5" y="-57.8" font-family="Times,serif" font-size="14.00"> mitigates</text>
</g>
<!-- 4_4_1_8_CSRF_ON_REDIRECT_countermeasure1 -->
<g id="node4" class="node">
<title>4_4_1_8_CSRF_ON_REDIRECT_countermeasure1</title>
<polygon fill="#fff2cc" stroke="#d6b656" points="732,-36 396,-36 396,0 732,0 732,-36"/>
<text text-anchor="start" x="507" y="-21.4" font-family="Arial" font-weight="bold" font-size="12.00">Countermeasure</text>
<text text-anchor="start" x="406" y="-9.4" font-family="Arial" font-size="12.00"> Users can be educated to not follow untrusted URLs</text>
</g>
<!-- 4_4_1_8_CSRF_ON_REDIRECT_countermeasure1&#45;&gt;4_4_1_8_CSRF_ON_REDIRECT_attack -->
<g id="edge3" class="edge">
<title>4_4_1_8_CSRF_ON_REDIRECT_countermeasure1&#45;&gt;4_4_1_8_CSRF_ON_REDIRECT_attack</title>
<path fill="none" stroke="black" d="M532.96,-36.01C510.18,-48.49 478.27,-65.97 449.17,-81.91"/>
<polygon fill="black" stroke="black" points="447.33,-78.93 440.24,-86.8 450.69,-85.07 447.33,-78.93"/>
<text text-anchor="middle" x="533.5" y="-57.8" font-family="Times,serif" font-size="14.00"> mitigates</text>
</g>
</g>
</svg>
