<?xml version="1.0" encoding="UTF-8" standalone="no"?>
<!DOCTYPE svg PUBLIC "-//W3C//DTD SVG 1.1//EN"
 "http://www.w3.org/Graphics/SVG/1.1/DTD/svg11.dtd">
<!-- Generated by graphviz version 2.43.0 (0)
 -->
<!-- Title: G Pages: 1 -->
<svg width="1681pt" height="255pt"
 viewBox="0.00 0.00 1681.00 255.00" xmlns="http://www.w3.org/2000/svg" xmlns:xlink="http://www.w3.org/1999/xlink">
<g id="graph0" class="graph" transform="scale(1 1) rotate(0) translate(4 251)">
<title>G</title>
<polygon fill="white" stroke="transparent" points="-4,4 -4,-251 1677,-251 1677,4 -4,4"/>
<!-- 4_4_2_2_TOKEN_LEAK2_BROWSER_HISTORY -->
<g id="node1" class="node">
<title>4_4_2_2_TOKEN_LEAK2_BROWSER_HISTORY</title>
<polygon fill="#f8cecc" stroke="#b85450" points="1039,-247 547,-247 547,-174 1039,-174 1039,-247"/>
<text text-anchor="start" x="770" y="-231.9" font-family="Arial" font-weight="bold" font-size="12.00">Threat</text>
<text text-anchor="start" x="557" y="-219.9" font-family="Arial" font-size="12.00"> Spoofing, Elevation of privileges, Information Disclosure in Authorization Grant</text>
<g id="a_node1_0"><a xlink:href="#OAuth2.CONFIDENTIALITY" xlink:title="&lt;TABLE&gt;">
<polygon fill="#eeeeee" stroke="transparent" points="565,-187.5 565,-204.5 812,-204.5 812,-187.5 565,-187.5"/>
<text text-anchor="start" x="634" y="-192.9" font-family="Arial" font-size="12.00" fill="blue">CONFIDENTIALITY</text>
</a>
</g>
<g id="a_node1_1"><a xlink:href="#OAuth2.INTEGRITY" xlink:title="&lt;TABLE&gt;">
<polygon fill="#eeeeee" stroke="transparent" points="820,-187.5 820,-204.5 1021,-204.5 1021,-187.5 820,-187.5"/>
<text text-anchor="start" x="888.5" y="-192.9" font-family="Arial" font-size="12.00" fill="blue">INTEGRITY</text>
</a>
</g>
</g>
<!-- 4_4_2_2_TOKEN_LEAK2_BROWSER_HISTORY_attack -->
<g id="node2" class="node">
<title>4_4_2_2_TOKEN_LEAK2_BROWSER_HISTORY_attack</title>
<polygon fill="#f5f5f5" stroke="#666666" points="981,-123 605,-123 605,-87 981,-87 981,-123"/>
<text text-anchor="start" x="770.5" y="-108.4" font-family="Arial" font-weight="bold" font-size="12.00">Attack</text>
<text text-anchor="start" x="615" y="-96.4" font-family="Arial" font-size="12.00">A malicious client could attempt to obtain a token by fraud.</text>
</g>
<!-- 4_4_2_2_TOKEN_LEAK2_BROWSER_HISTORY_attack&#45;&gt;4_4_2_2_TOKEN_LEAK2_BROWSER_HISTORY -->
<g id="edge1" class="edge">
<title>4_4_2_2_TOKEN_LEAK2_BROWSER_HISTORY_attack&#45;&gt;4_4_2_2_TOKEN_LEAK2_BROWSER_HISTORY</title>
<path fill="none" stroke="black" d="M793,-123.09C793,-134.18 793,-149.2 793,-163.6"/>
<polygon fill="black" stroke="black" points="789.5,-163.92 793,-173.92 796.5,-163.92 789.5,-163.92"/>
<text text-anchor="middle" x="823.5" y="-144.8" font-family="Times,serif" font-size="14.00"> exploits</text>
</g>
<!-- 4_4_2_2_TOKEN_LEAK2_BROWSER_HISTORY_countermeasure0 -->
<g id="node3" class="node">
<title>4_4_2_2_TOKEN_LEAK2_BROWSER_HISTORY_countermeasure0</title>
<polygon fill="#fff2cc" stroke="#d6b656" points="244,-36 0,-36 0,0 244,0 244,-36"/>
<text text-anchor="start" x="65" y="-21.4" font-family="Arial" font-weight="bold" font-size="12.00">Countermeasure</text>
<text text-anchor="start" x="10" y="-9.4" font-family="Arial" font-size="12.00"> Validate Pre&#45;Registered &quot;redirect_uri&quot;</text>
</g>
<!-- 4_4_2_2_TOKEN_LEAK2_BROWSER_HISTORY_countermeasure0&#45;&gt;4_4_2_2_TOKEN_LEAK2_BROWSER_HISTORY_attack -->
<g id="edge2" class="edge">
<title>4_4_2_2_TOKEN_LEAK2_BROWSER_HISTORY_countermeasure0&#45;&gt;4_4_2_2_TOKEN_LEAK2_BROWSER_HISTORY_attack</title>
<path fill="none" stroke="black" d="M244.06,-35.81C317.11,-45.74 411.83,-58.41 496,-69 540.9,-74.65 589.65,-80.51 634.43,-85.78"/>
<polygon fill="black" stroke="black" points="634.18,-89.27 644.52,-86.96 634.99,-82.32 634.18,-89.27"/>
<text text-anchor="middle" x="532.5" y="-57.8" font-family="Times,serif" font-size="14.00"> mitigates</text>
</g>
<!-- 4_4_2_2_TOKEN_LEAK2_BROWSER_HISTORY_countermeasure1 -->
<g id="node4" class="node">
<title>4_4_2_2_TOKEN_LEAK2_BROWSER_HISTORY_countermeasure1</title>
<polygon fill="#fff2cc" stroke="#d6b656" points="538,-36 262,-36 262,0 538,0 538,-36"/>
<text text-anchor="start" x="343" y="-21.4" font-family="Arial" font-weight="bold" font-size="12.00">Countermeasure</text>
<text text-anchor="start" x="272" y="-9.4" font-family="Arial" font-size="12.00"> Validation of Client Properties by End User</text>
</g>
<!-- 4_4_2_2_TOKEN_LEAK2_BROWSER_HISTORY_countermeasure1&#45;&gt;4_4_2_2_TOKEN_LEAK2_BROWSER_HISTORY_attack -->
<g id="edge3" class="edge">
<title>4_4_2_2_TOKEN_LEAK2_BROWSER_HISTORY_countermeasure1&#45;&gt;4_4_2_2_TOKEN_LEAK2_BROWSER_HISTORY_attack</title>
<path fill="none" stroke="black" d="M479.06,-36.1C544.22,-50.19 636.59,-70.17 704.27,-84.81"/>
<polygon fill="black" stroke="black" points="703.56,-88.24 714.07,-86.93 705.04,-81.39 703.56,-88.24"/>
<text text-anchor="middle" x="657.5" y="-57.8" font-family="Times,serif" font-size="14.00"> mitigates</text>
</g>
<!-- 4_4_2_2_TOKEN_LEAK2_BROWSER_HISTORY_countermeasure2 -->
<g id="node5" class="node">
<title>4_4_2_2_TOKEN_LEAK2_BROWSER_HISTORY_countermeasure2</title>
<polygon fill="#fff2cc" stroke="#d6b656" points="1029.5,-36 556.5,-36 556.5,0 1029.5,0 1029.5,-36"/>
<text text-anchor="start" x="736.5" y="-21.4" font-family="Arial" font-weight="bold" font-size="12.00">Countermeasure</text>
<text text-anchor="start" x="567" y="-9.4" font-family="Arial" font-size="12.00"> Automatic Processing of Repeated Authorizations Requires Client Validation</text>
</g>
<!-- 4_4_2_2_TOKEN_LEAK2_BROWSER_HISTORY_countermeasure2&#45;&gt;4_4_2_2_TOKEN_LEAK2_BROWSER_HISTORY_attack -->
<g id="edge4" class="edge">
<title>4_4_2_2_TOKEN_LEAK2_BROWSER_HISTORY_countermeasure2&#45;&gt;4_4_2_2_TOKEN_LEAK2_BROWSER_HISTORY_attack</title>
<path fill="none" stroke="black" d="M793,-36.2C793,-47.84 793,-63.45 793,-76.76"/>
<polygon fill="black" stroke="black" points="789.5,-76.82 793,-86.82 796.5,-76.82 789.5,-76.82"/>
<text text-anchor="middle" x="829.5" y="-57.8" font-family="Times,serif" font-size="14.00"> mitigates</text>
</g>
<!-- 4_4_2_2_TOKEN_LEAK2_BROWSER_HISTORY_countermeasure3 -->
<g id="node6" class="node">
<title>4_4_2_2_TOKEN_LEAK2_BROWSER_HISTORY_countermeasure3</title>
<polygon fill="#fff2cc" stroke="#d6b656" points="1520.5,-36 1047.5,-36 1047.5,0 1520.5,0 1520.5,-36"/>
<text text-anchor="start" x="1227.5" y="-21.4" font-family="Arial" font-weight="bold" font-size="12.00">Countermeasure</text>
<text text-anchor="start" x="1058" y="-9.4" font-family="Arial" font-size="12.00"> Automatic Processing of Repeated Authorizations Requires Client Validation</text>
</g>
<!-- 4_4_2_2_TOKEN_LEAK2_BROWSER_HISTORY_countermeasure3&#45;&gt;4_4_2_2_TOKEN_LEAK2_BROWSER_HISTORY_attack -->
<g id="edge5" class="edge">
<title>4_4_2_2_TOKEN_LEAK2_BROWSER_HISTORY_countermeasure3&#45;&gt;4_4_2_2_TOKEN_LEAK2_BROWSER_HISTORY_attack</title>
<path fill="none" stroke="black" d="M1185.52,-36.05C1103.26,-50.29 986.12,-70.57 901.24,-85.26"/>
<polygon fill="black" stroke="black" points="900.57,-81.83 891.31,-86.98 901.76,-88.72 900.57,-81.83"/>
<text text-anchor="middle" x="1104.5" y="-57.8" font-family="Times,serif" font-size="14.00"> mitigates</text>
</g>
<!-- 4_4_2_2_TOKEN_LEAK2_BROWSER_HISTORY_countermeasure4 -->
<g id="node7" class="node">
<title>4_4_2_2_TOKEN_LEAK2_BROWSER_HISTORY_countermeasure4</title>
<polygon fill="#fff2cc" stroke="#d6b656" points="1673,-36 1539,-36 1539,0 1673,0 1673,-36"/>
<text text-anchor="start" x="1549" y="-21.4" font-family="Arial" font-weight="bold" font-size="12.00">Countermeasure</text>
<text text-anchor="start" x="1550" y="-9.4" font-family="Arial" font-size="12.00"> Limit Token Scope</text>
</g>
<!-- 4_4_2_2_TOKEN_LEAK2_BROWSER_HISTORY_countermeasure4&#45;&gt;4_4_2_2_TOKEN_LEAK2_BROWSER_HISTORY_attack -->
<g id="edge6" class="edge">
<title>4_4_2_2_TOKEN_LEAK2_BROWSER_HISTORY_countermeasure4&#45;&gt;4_4_2_2_TOKEN_LEAK2_BROWSER_HISTORY_attack</title>
<path fill="none" stroke="black" d="M1538.95,-34.49C1535.93,-35.03 1532.94,-35.54 1530,-36 1348.68,-64.52 1140.25,-82.39 991.41,-92.61"/>
<polygon fill="black" stroke="black" points="990.99,-89.13 981.25,-93.3 991.46,-96.11 990.99,-89.13"/>
<text text-anchor="middle" x="1425.5" y="-57.8" font-family="Times,serif" font-size="14.00"> mitigates</text>
</g>
</g>
</svg>
