<?xml version="1.0" encoding="UTF-8" standalone="no"?>
<!DOCTYPE svg PUBLIC "-//W3C//DTD SVG 1.1//EN"
 "http://www.w3.org/Graphics/SVG/1.1/DTD/svg11.dtd">
<!-- Generated by graphviz version 2.43.0 (0)
 -->
<!-- Title: G Pages: 1 -->
<svg width="1961pt" height="291pt"
 viewBox="0.00 0.00 1960.50 291.00" xmlns="http://www.w3.org/2000/svg" xmlns:xlink="http://www.w3.org/1999/xlink">
<g id="graph0" class="graph" transform="scale(1 1) rotate(0) translate(4 287)">
<title>G</title>
<polygon fill="white" stroke="transparent" points="-4,4 -4,-287 1956.5,-287 1956.5,4 -4,4"/>
<!-- 4_4_1_4_CLIENT_SPOOFING1 -->
<g id="node1" class="node">
<title>4_4_1_4_CLIENT_SPOOFING1</title>
<polygon fill="#f8cecc" stroke="#b85450" points="1000,-283 751,-283 751,-210 1000,-210 1000,-283"/>
<text text-anchor="start" x="853" y="-267.9" font-family="Arial" font-weight="bold" font-size="12.00">Threat</text>
<text text-anchor="start" x="761.5" y="-255.9" font-family="Arial" font-size="12.00"> Malicious Client Obtains Authorization</text>
<g id="a_node1_0"><a xlink:href="#OAuth2.CONFIDENTIALITY" xlink:title="&lt;TABLE&gt;">
<polygon fill="#eeeeee" stroke="transparent" points="769.5,-223.5 769.5,-240.5 894.5,-240.5 894.5,-223.5 769.5,-223.5"/>
<text text-anchor="start" x="777.5" y="-228.9" font-family="Arial" font-size="12.00" fill="blue">CONFIDENTIALITY</text>
</a>
</g>
<g id="a_node1_1"><a xlink:href="#OAuth2.INTEGRITY" xlink:title="&lt;TABLE&gt;">
<polygon fill="#eeeeee" stroke="transparent" points="902.5,-223.5 902.5,-240.5 982.5,-240.5 982.5,-223.5 902.5,-223.5"/>
<text text-anchor="start" x="910.5" y="-228.9" font-family="Arial" font-size="12.00" fill="blue">INTEGRITY</text>
</a>
</g>
</g>
<!-- 4_4_1_4_CLIENT_SPOOFING1_attack -->
<g id="node2" class="node">
<title>4_4_1_4_CLIENT_SPOOFING1_attack</title>
<polygon fill="#f5f5f5" stroke="#666666" points="1117,-159 634,-159 634,-87 1117,-87 1117,-159"/>
<text text-anchor="start" x="853.5" y="-144.4" font-family="Arial" font-weight="bold" font-size="12.00">Attack</text>
<text text-anchor="start" x="658.5" y="-132.4" font-family="Arial" font-size="12.00">A malicious client could pretend to be a valid client and obtain an access</text>
<text text-anchor="start" x="663" y="-120.4" font-family="Arial" font-size="12.00">authorization in this way. The malicious client could even utilize screen&#45;</text>
<text text-anchor="start" x="644.5" y="-108.4" font-family="Arial" font-size="12.00">scraping techniques in order to simulate a user’s consent in the authorization</text>
<text text-anchor="start" x="862" y="-96.4" font-family="Arial" font-size="12.00">flow.</text>
</g>
<!-- 4_4_1_4_CLIENT_SPOOFING1_attack&#45;&gt;4_4_1_4_CLIENT_SPOOFING1 -->
<g id="edge1" class="edge">
<title>4_4_1_4_CLIENT_SPOOFING1_attack&#45;&gt;4_4_1_4_CLIENT_SPOOFING1</title>
<path fill="none" stroke="black" d="M875.5,-159.14C875.5,-171.76 875.5,-186.19 875.5,-199.59"/>
<polygon fill="black" stroke="black" points="872,-199.59 875.5,-209.59 879,-199.59 872,-199.59"/>
<text text-anchor="middle" x="906" y="-180.8" font-family="Times,serif" font-size="14.00"> exploits</text>
</g>
<!-- 4_4_1_4_CLIENT_SPOOFING1_countermeasure0 -->
<g id="node3" class="node">
<title>4_4_1_4_CLIENT_SPOOFING1_countermeasure0</title>
<polygon fill="#d5e8d4" stroke="#82b366" points="261,-36 0,-36 0,0 261,0 261,-36"/>
<text text-anchor="start" x="74" y="-21.4" font-family="Arial" font-weight="bold" font-size="12.00">Countermeasure</text>
<text text-anchor="start" x="10.5" y="-9.4" font-family="Arial" font-size="12.00"> Issue Installation&#45;Specific Client Secrets</text>
</g>
<!-- 4_4_1_4_CLIENT_SPOOFING1_countermeasure0&#45;&gt;4_4_1_4_CLIENT_SPOOFING1_attack -->
<g id="edge2" class="edge">
<title>4_4_1_4_CLIENT_SPOOFING1_countermeasure0&#45;&gt;4_4_1_4_CLIENT_SPOOFING1_attack</title>
<path fill="none" stroke="black" d="M253.31,-36.02C323.14,-45.7 412.22,-58.04 491.5,-69 534.26,-74.91 579.71,-81.19 623.8,-87.28"/>
<polygon fill="black" stroke="black" points="623.4,-90.76 633.78,-88.66 624.36,-83.82 623.4,-90.76"/>
<text text-anchor="middle" x="528" y="-57.8" font-family="Times,serif" font-size="14.00"> mitigates</text>
</g>
<!-- 4_4_1_4_CLIENT_SPOOFING1_countermeasure1 -->
<g id="node4" class="node">
<title>4_4_1_4_CLIENT_SPOOFING1_countermeasure1</title>
<polygon fill="#fff2cc" stroke="#d6b656" points="523.5,-36 279.5,-36 279.5,0 523.5,0 523.5,-36"/>
<text text-anchor="start" x="344.5" y="-21.4" font-family="Arial" font-weight="bold" font-size="12.00">Countermeasure</text>
<text text-anchor="start" x="289.5" y="-9.4" font-family="Arial" font-size="12.00"> Validate Pre&#45;Registered &quot;redirect_uri&quot;</text>
</g>
<!-- 4_4_1_4_CLIENT_SPOOFING1_countermeasure1&#45;&gt;4_4_1_4_CLIENT_SPOOFING1_attack -->
<g id="edge3" class="edge">
<title>4_4_1_4_CLIENT_SPOOFING1_countermeasure1&#45;&gt;4_4_1_4_CLIENT_SPOOFING1_attack</title>
<path fill="none" stroke="black" d="M479.77,-36.01C540.67,-49.24 627.44,-68.1 704.22,-84.78"/>
<polygon fill="black" stroke="black" points="703.5,-88.21 714.02,-86.91 704.99,-81.37 703.5,-88.21"/>
<text text-anchor="middle" x="661" y="-57.8" font-family="Times,serif" font-size="14.00"> mitigates</text>
</g>
<!-- 4_4_1_4_CLIENT_SPOOFING1_countermeasure2 -->
<g id="node5" class="node">
<title>4_4_1_4_CLIENT_SPOOFING1_countermeasure2</title>
<polygon fill="#fff2cc" stroke="#d6b656" points="817.5,-36 541.5,-36 541.5,0 817.5,0 817.5,-36"/>
<text text-anchor="start" x="622.5" y="-21.4" font-family="Arial" font-weight="bold" font-size="12.00">Countermeasure</text>
<text text-anchor="start" x="551.5" y="-9.4" font-family="Arial" font-size="12.00"> Validation of Client Properties by End User</text>
</g>
<!-- 4_4_1_4_CLIENT_SPOOFING1_countermeasure2&#45;&gt;4_4_1_4_CLIENT_SPOOFING1_attack -->
<g id="edge4" class="edge">
<title>4_4_1_4_CLIENT_SPOOFING1_countermeasure2&#45;&gt;4_4_1_4_CLIENT_SPOOFING1_attack</title>
<path fill="none" stroke="black" d="M711.87,-36.01C735.71,-48.54 769.16,-66.12 799.61,-82.12"/>
<polygon fill="black" stroke="black" points="798.04,-85.25 808.52,-86.8 801.3,-79.05 798.04,-85.25"/>
<text text-anchor="middle" x="809" y="-57.8" font-family="Times,serif" font-size="14.00"> mitigates</text>
</g>
<!-- 4_4_1_4_CLIENT_SPOOFING1_countermeasure3 -->
<g id="node6" class="node">
<title>4_4_1_4_CLIENT_SPOOFING1_countermeasure3</title>
<polygon fill="#fff2cc" stroke="#d6b656" points="1309,-36 836,-36 836,0 1309,0 1309,-36"/>
<text text-anchor="start" x="1016" y="-21.4" font-family="Arial" font-weight="bold" font-size="12.00">Countermeasure</text>
<text text-anchor="start" x="846.5" y="-9.4" font-family="Arial" font-size="12.00"> Automatic Processing of Repeated Authorizations Requires Client Validation</text>
</g>
<!-- 4_4_1_4_CLIENT_SPOOFING1_countermeasure3&#45;&gt;4_4_1_4_CLIENT_SPOOFING1_attack -->
<g id="edge5" class="edge">
<title>4_4_1_4_CLIENT_SPOOFING1_countermeasure3&#45;&gt;4_4_1_4_CLIENT_SPOOFING1_attack</title>
<path fill="none" stroke="black" d="M1039.97,-36.01C1016,-48.54 982.38,-66.12 951.78,-82.12"/>
<polygon fill="black" stroke="black" points="950.06,-79.07 942.82,-86.8 953.3,-85.27 950.06,-79.07"/>
<text text-anchor="middle" x="1040" y="-57.8" font-family="Times,serif" font-size="14.00"> mitigates</text>
</g>
<!-- 4_4_1_4_CLIENT_SPOOFING1_countermeasure4 -->
<g id="node7" class="node">
<title>4_4_1_4_CLIENT_SPOOFING1_countermeasure4</title>
<polygon fill="#fff2cc" stroke="#d6b656" points="1800,-36 1327,-36 1327,0 1800,0 1800,-36"/>
<text text-anchor="start" x="1507" y="-21.4" font-family="Arial" font-weight="bold" font-size="12.00">Countermeasure</text>
<text text-anchor="start" x="1337.5" y="-9.4" font-family="Arial" font-size="12.00"> Automatic Processing of Repeated Authorizations Requires Client Validation</text>
</g>
<!-- 4_4_1_4_CLIENT_SPOOFING1_countermeasure4&#45;&gt;4_4_1_4_CLIENT_SPOOFING1_attack -->
<g id="edge6" class="edge">
<title>4_4_1_4_CLIENT_SPOOFING1_countermeasure4&#45;&gt;4_4_1_4_CLIENT_SPOOFING1_attack</title>
<path fill="none" stroke="black" d="M1449.89,-36.01C1360.33,-49.42 1232.2,-68.6 1119.68,-85.44"/>
<polygon fill="black" stroke="black" points="1118.9,-82.02 1109.53,-86.96 1119.94,-88.94 1118.9,-82.02"/>
<text text-anchor="middle" x="1358" y="-57.8" font-family="Times,serif" font-size="14.00"> mitigates</text>
</g>
<!-- 4_4_1_4_CLIENT_SPOOFING1_countermeasure5 -->
<g id="node8" class="node">
<title>4_4_1_4_CLIENT_SPOOFING1_countermeasure5</title>
<polygon fill="#fff2cc" stroke="#d6b656" points="1952.5,-36 1818.5,-36 1818.5,0 1952.5,0 1952.5,-36"/>
<text text-anchor="start" x="1828.5" y="-21.4" font-family="Arial" font-weight="bold" font-size="12.00">Countermeasure</text>
<text text-anchor="start" x="1829.5" y="-9.4" font-family="Arial" font-size="12.00"> Limit Token Scope</text>
</g>
<!-- 4_4_1_4_CLIENT_SPOOFING1_countermeasure5&#45;&gt;4_4_1_4_CLIENT_SPOOFING1_attack -->
<g id="edge7" class="edge">
<title>4_4_1_4_CLIENT_SPOOFING1_countermeasure5&#45;&gt;4_4_1_4_CLIENT_SPOOFING1_attack</title>
<path fill="none" stroke="black" d="M1818.45,-34.49C1815.43,-35.03 1812.44,-35.54 1809.5,-36 1579.95,-72.09 1316.11,-94.67 1127.53,-107.58"/>
<polygon fill="black" stroke="black" points="1127.22,-104.09 1117.48,-108.26 1127.69,-111.08 1127.22,-104.09"/>
<text text-anchor="middle" x="1719" y="-57.8" font-family="Times,serif" font-size="14.00"> mitigates</text>
</g>
</g>
</svg>
