<?xml version="1.0" encoding="UTF-8" standalone="no"?>
<!DOCTYPE svg PUBLIC "-//W3C//DTD SVG 1.1//EN"
 "http://www.w3.org/Graphics/SVG/1.1/DTD/svg11.dtd">
<!-- Generated by graphviz version 2.43.0 (0)
 -->
<!-- Title: G Pages: 1 -->
<svg width="491pt" height="291pt"
 viewBox="0.00 0.00 491.00 291.00" xmlns="http://www.w3.org/2000/svg" xmlns:xlink="http://www.w3.org/1999/xlink">
<g id="graph0" class="graph" transform="scale(1 1) rotate(0) translate(4 287)">
<title>G</title>
<polygon fill="white" stroke="transparent" points="-4,4 -4,-287 487,-287 487,4 -4,4"/>
<!-- 4_4_1_6_CLIENT_SPOOFING3 -->
<g id="node1" class="node">
<title>4_4_1_6_CLIENT_SPOOFING3</title>
<polygon fill="#f8cecc" stroke="#b85450" points="354,-283 129,-283 129,-210 354,-210 354,-283"/>
<text text-anchor="start" x="219" y="-267.9" font-family="Arial" font-weight="bold" font-size="12.00">Threat</text>
<text text-anchor="start" x="157" y="-255.9" font-family="Arial" font-size="12.00"> Authorization code Phishing</text>
<g id="a_node1_0"><a xlink:href="#OAuth2.CONFIDENTIALITY" xlink:title="&lt;TABLE&gt;">
<polygon fill="#eeeeee" stroke="transparent" points="147.5,-223.5 147.5,-240.5 260.5,-240.5 260.5,-223.5 147.5,-223.5"/>
<text text-anchor="start" x="149.5" y="-228.9" font-family="Arial" font-size="12.00" fill="blue">CONFIDENTIALITY</text>
</a>
</g>
<g id="a_node1_1"><a xlink:href="#OAuth2.INTEGRITY" xlink:title="&lt;TABLE&gt;">
<polygon fill="#eeeeee" stroke="transparent" points="268.5,-223.5 268.5,-240.5 336.5,-240.5 336.5,-223.5 268.5,-223.5"/>
<text text-anchor="start" x="270.5" y="-228.9" font-family="Arial" font-size="12.00" fill="blue">INTEGRITY</text>
</a>
</g>
</g>
<!-- 4_4_1_6_CLIENT_SPOOFING3_attack -->
<g id="node2" class="node">
<title>4_4_1_6_CLIENT_SPOOFING3_attack</title>
<polygon fill="#f5f5f5" stroke="#666666" points="483,-159 0,-159 0,-87 483,-87 483,-159"/>
<text text-anchor="start" x="219.5" y="-144.4" font-family="Arial" font-weight="bold" font-size="12.00">Attack</text>
<text text-anchor="start" x="14.5" y="-132.4" font-family="Arial" font-size="12.00">A hostile party could impersonate the client site and impersonate the user’s</text>
<text text-anchor="start" x="10.5" y="-120.4" font-family="Arial" font-size="12.00">session on this client. This could be achieved using DNS or ARP spoofing. This</text>
<text text-anchor="start" x="22.5" y="-108.4" font-family="Arial" font-size="12.00">applies to clients, which are web applications; thus, the redirect URI is not</text>
<text text-anchor="start" x="83" y="-96.4" font-family="Arial" font-size="12.00">local to the host where the user’s browser is running.</text>
</g>
<!-- 4_4_1_6_CLIENT_SPOOFING3_attack&#45;&gt;4_4_1_6_CLIENT_SPOOFING3 -->
<g id="edge1" class="edge">
<title>4_4_1_6_CLIENT_SPOOFING3_attack&#45;&gt;4_4_1_6_CLIENT_SPOOFING3</title>
<path fill="none" stroke="black" d="M241.5,-159.14C241.5,-171.76 241.5,-186.19 241.5,-199.59"/>
<polygon fill="black" stroke="black" points="238,-199.59 241.5,-209.59 245,-199.59 238,-199.59"/>
<text text-anchor="middle" x="272" y="-180.8" font-family="Times,serif" font-size="14.00"> exploits</text>
</g>
<!-- 4_4_1_6_CLIENT_SPOOFING3_countermeasure0 -->
<g id="node3" class="node">
<title>4_4_1_6_CLIENT_SPOOFING3_countermeasure0</title>
<polygon fill="#d5e8d4" stroke="#82b366" points="349,-36 134,-36 134,0 349,0 349,-36"/>
<text text-anchor="start" x="185" y="-21.4" font-family="Arial" font-weight="bold" font-size="12.00">Countermeasure</text>
<text text-anchor="start" x="144.5" y="-9.4" font-family="Arial" font-size="12.00"> TLS for the authorization server</text>
</g>
<!-- 4_4_1_6_CLIENT_SPOOFING3_countermeasure0&#45;&gt;4_4_1_6_CLIENT_SPOOFING3_attack -->
<g id="edge2" class="edge">
<title>4_4_1_6_CLIENT_SPOOFING3_countermeasure0&#45;&gt;4_4_1_6_CLIENT_SPOOFING3_attack</title>
<path fill="none" stroke="black" d="M241.5,-36.01C241.5,-47.04 241.5,-61.99 241.5,-76.32"/>
<polygon fill="black" stroke="black" points="238,-76.59 241.5,-86.59 245,-76.59 238,-76.59"/>
<text text-anchor="middle" x="278" y="-57.8" font-family="Times,serif" font-size="14.00"> mitigates</text>
</g>
</g>
</svg>
