<?xml version="1.0" encoding="UTF-8" standalone="no"?>
<!DOCTYPE svg PUBLIC "-//W3C//DTD SVG 1.1//EN"
 "http://www.w3.org/Graphics/SVG/1.1/DTD/svg11.dtd">
<!-- Generated by graphviz version 2.43.0 (0)
 -->
<!-- Title: G Pages: 1 -->
<svg width="496pt" height="303pt"
 viewBox="0.00 0.00 496.00 303.00" xmlns="http://www.w3.org/2000/svg" xmlns:xlink="http://www.w3.org/1999/xlink">
<g id="graph0" class="graph" transform="scale(1 1) rotate(0) translate(4 299)">
<title>G</title>
<polygon fill="white" stroke="transparent" points="-4,4 -4,-299 492,-299 492,4 -4,4"/>
<!-- 4_4_1_11_DOS_TOKEN_ENTROPY -->
<g id="node1" class="node">
<title>4_4_1_11_DOS_TOKEN_ENTROPY</title>
<polygon fill="#f8cecc" stroke="#b85450" points="400,-295 88,-295 88,-222 400,-222 400,-295"/>
<text text-anchor="start" x="221" y="-279.9" font-family="Arial" font-weight="bold" font-size="12.00">Threat</text>
<text text-anchor="start" x="98" y="-267.9" font-family="Arial" font-size="12.00"> Denial of Service in Auth User Agent Redirection</text>
<g id="a_node1_0"><a xlink:href="#OAuth2.AVAILABILITY" xlink:title="&lt;TABLE&gt;">
<polygon fill="#eeeeee" stroke="transparent" points="106,-235.5 106,-252.5 382,-252.5 382,-235.5 106,-235.5"/>
<text text-anchor="start" x="204" y="-240.9" font-family="Arial" font-size="12.00" fill="blue">AVAILABILITY</text>
</a>
</g>
</g>
<!-- 4_4_1_11_DOS_TOKEN_ENTROPY_attack -->
<g id="node2" class="node">
<title>4_4_1_11_DOS_TOKEN_ENTROPY_attack</title>
<polygon fill="#f5f5f5" stroke="#666666" points="488,-171 0,-171 0,-87 488,-87 488,-171"/>
<text text-anchor="start" x="221.5" y="-156.4" font-family="Arial" font-weight="bold" font-size="12.00">Attack</text>
<text text-anchor="start" x="41.5" y="-144.4" font-family="Arial" font-size="12.00">If an authorization server includes a nontrivial amount of entropy in</text>
<text text-anchor="start" x="56.5" y="-132.4" font-family="Arial" font-size="12.00">authorization &quot;codes&quot; or access tokens (limiting the number of</text>
<text text-anchor="start" x="41" y="-120.4" font-family="Arial" font-size="12.00">possible codes/tokens) and automatically grants either without user</text>
<text text-anchor="start" x="10" y="-108.4" font-family="Arial" font-size="12.00">intervention and has no limit on codes or access tokens per user, an &#160;attacker</text>
<text text-anchor="start" x="158" y="-96.4" font-family="Arial" font-size="12.00">could exhaust the pool of[...]</text>
</g>
<!-- 4_4_1_11_DOS_TOKEN_ENTROPY_attack&#45;&gt;4_4_1_11_DOS_TOKEN_ENTROPY -->
<g id="edge1" class="edge">
<title>4_4_1_11_DOS_TOKEN_ENTROPY_attack&#45;&gt;4_4_1_11_DOS_TOKEN_ENTROPY</title>
<path fill="none" stroke="black" d="M244,-171.04C244,-183.91 244,-198.2 244,-211.39"/>
<polygon fill="black" stroke="black" points="240.5,-211.69 244,-221.69 247.5,-211.69 240.5,-211.69"/>
<text text-anchor="middle" x="274.5" y="-192.8" font-family="Times,serif" font-size="14.00"> exploits</text>
</g>
<!-- 4_4_1_11_DOS_TOKEN_ENTROPY_countermeasure0 -->
<g id="node3" class="node">
<title>4_4_1_11_DOS_TOKEN_ENTROPY_countermeasure0</title>
<polygon fill="#fff2cc" stroke="#d6b656" points="262,-36 16,-36 16,0 262,0 262,-36"/>
<text text-anchor="start" x="82" y="-21.4" font-family="Arial" font-weight="bold" font-size="12.00">Countermeasure</text>
<text text-anchor="start" x="26" y="-9.4" font-family="Arial" font-size="12.00"> Limit access tokens granted per user</text>
</g>
<!-- 4_4_1_11_DOS_TOKEN_ENTROPY_countermeasure0&#45;&gt;4_4_1_11_DOS_TOKEN_ENTROPY_attack -->
<g id="edge2" class="edge">
<title>4_4_1_11_DOS_TOKEN_ENTROPY_countermeasure0&#45;&gt;4_4_1_11_DOS_TOKEN_ENTROPY_attack</title>
<path fill="none" stroke="black" d="M155.41,-36.03C166.61,-47.66 182.06,-63.7 196.93,-79.13"/>
<polygon fill="black" stroke="black" points="194.7,-81.86 204.15,-86.64 199.74,-77.01 194.7,-81.86"/>
<text text-anchor="middle" x="222.5" y="-57.8" font-family="Times,serif" font-size="14.00"> mitigates</text>
</g>
<!-- 4_4_1_11_DOS_TOKEN_ENTROPY_countermeasure1 -->
<g id="node4" class="node">
<title>4_4_1_11_DOS_TOKEN_ENTROPY_countermeasure1</title>
<polygon fill="#fff2cc" stroke="#d6b656" points="420,-36 280,-36 280,0 420,0 420,-36"/>
<text text-anchor="start" x="293" y="-21.4" font-family="Arial" font-weight="bold" font-size="12.00">Countermeasure</text>
<text text-anchor="start" x="290" y="-9.4" font-family="Arial" font-size="12.00"> High entropy codes</text>
</g>
<!-- 4_4_1_11_DOS_TOKEN_ENTROPY_countermeasure1&#45;&gt;4_4_1_11_DOS_TOKEN_ENTROPY_attack -->
<g id="edge3" class="edge">
<title>4_4_1_11_DOS_TOKEN_ENTROPY_countermeasure1&#45;&gt;4_4_1_11_DOS_TOKEN_ENTROPY_attack</title>
<path fill="none" stroke="black" d="M333.44,-36.03C322.13,-47.66 306.53,-63.7 291.52,-79.13"/>
<polygon fill="black" stroke="black" points="288.69,-77.03 284.23,-86.64 293.71,-81.91 288.69,-77.03"/>
<text text-anchor="middle" x="351.5" y="-57.8" font-family="Times,serif" font-size="14.00"> mitigates</text>
</g>
</g>
</svg>
