<?xml version="1.0" encoding="UTF-8" standalone="no"?>
<!DOCTYPE svg PUBLIC "-//W3C//DTD SVG 1.1//EN"
 "http://www.w3.org/Graphics/SVG/1.1/DTD/svg11.dtd">
<!-- Generated by graphviz version 2.43.0 (0)
 -->
<!-- Title: G Pages: 1 -->
<svg width="509pt" height="303pt"
 viewBox="0.00 0.00 508.50 303.00" xmlns="http://www.w3.org/2000/svg" xmlns:xlink="http://www.w3.org/1999/xlink">
<g id="graph0" class="graph" transform="scale(1 1) rotate(0) translate(4 299)">
<title>G</title>
<polygon fill="white" stroke="transparent" points="-4,4 -4,-299 504.5,-299 504.5,4 -4,4"/>
<!-- 4_4_1_10_RESOURCE_OWNER_SPOOFING1 -->
<g id="node1" class="node">
<title>4_4_1_10_RESOURCE_OWNER_SPOOFING1</title>
<polygon fill="#f8cecc" stroke="#b85450" points="489,-295 17,-295 17,-210 489,-210 489,-295"/>
<text text-anchor="start" x="230" y="-279.9" font-family="Arial" font-weight="bold" font-size="12.00">Threat</text>
<text text-anchor="start" x="27" y="-267.9" font-family="Arial" font-size="12.00"> Spoofing, Repudiation, Information Disclosure in: dataflow Auth User Agent</text>
<text text-anchor="start" x="219.5" y="-255.9" font-family="Arial" font-size="12.00">Redirection</text>
<g id="a_node1_0"><a xlink:href="#OAuth2.CONFIDENTIALITY" xlink:title="&lt;TABLE&gt;">
<polygon fill="#eeeeee" stroke="transparent" points="35,-223.5 35,-240.5 245,-240.5 245,-223.5 35,-223.5"/>
<text text-anchor="start" x="85.5" y="-228.9" font-family="Arial" font-size="12.00" fill="blue">CONFIDENTIALITY</text>
</a>
</g>
<g id="a_node1_1"><a xlink:href="#OAuth2.NON_REPUDIATION" xlink:title="&lt;TABLE&gt;">
<polygon fill="#eeeeee" stroke="transparent" points="253,-223.5 253,-240.5 471,-240.5 471,-223.5 253,-223.5"/>
<text text-anchor="start" x="303.5" y="-228.9" font-family="Arial" font-size="12.00" fill="blue">NON_REPUDIATION</text>
</a>
</g>
</g>
<!-- 4_4_1_10_RESOURCE_OWNER_SPOOFING1_attack -->
<g id="node2" class="node">
<title>4_4_1_10_RESOURCE_OWNER_SPOOFING1_attack</title>
<polygon fill="#f5f5f5" stroke="#666666" points="500.5,-159 5.5,-159 5.5,-87 500.5,-87 500.5,-159"/>
<text text-anchor="start" x="231" y="-144.4" font-family="Arial" font-weight="bold" font-size="12.00">Attack</text>
<text text-anchor="start" x="24.5" y="-132.4" font-family="Arial" font-size="12.00">When a client requests access to protected resources, the authorization flow</text>
<text text-anchor="start" x="17" y="-120.4" font-family="Arial" font-size="12.00">normally involves the resource owner’s explicit response to the access request,</text>
<text text-anchor="start" x="16" y="-108.4" font-family="Arial" font-size="12.00">either granting or denying access to the protected resources. A malicious client</text>
<text text-anchor="start" x="40" y="-96.4" font-family="Arial" font-size="12.00">can exploit knowledge of the structure of this flow in order to gain a[...]</text>
</g>
<!-- 4_4_1_10_RESOURCE_OWNER_SPOOFING1_attack&#45;&gt;4_4_1_10_RESOURCE_OWNER_SPOOFING1 -->
<g id="edge1" class="edge">
<title>4_4_1_10_RESOURCE_OWNER_SPOOFING1_attack&#45;&gt;4_4_1_10_RESOURCE_OWNER_SPOOFING1</title>
<path fill="none" stroke="black" d="M253,-159.18C253,-171.63 253,-185.92 253,-199.47"/>
<polygon fill="black" stroke="black" points="249.5,-199.65 253,-209.65 256.5,-199.65 249.5,-199.65"/>
<text text-anchor="middle" x="283.5" y="-180.8" font-family="Times,serif" font-size="14.00"> exploits</text>
</g>
<!-- 4_4_1_10_RESOURCE_OWNER_SPOOFING1_countermeasure0 -->
<g id="node3" class="node">
<title>4_4_1_10_RESOURCE_OWNER_SPOOFING1_countermeasure0</title>
<polygon fill="#fff2cc" stroke="#d6b656" points="274,-36 0,-36 0,0 274,0 274,-36"/>
<text text-anchor="start" x="80" y="-21.4" font-family="Arial" font-weight="bold" font-size="12.00">Countermeasure</text>
<text text-anchor="start" x="10" y="-9.4" font-family="Arial" font-size="12.00"> Interactive (non automatic) user approval</text>
</g>
<!-- 4_4_1_10_RESOURCE_OWNER_SPOOFING1_countermeasure0&#45;&gt;4_4_1_10_RESOURCE_OWNER_SPOOFING1_attack -->
<g id="edge2" class="edge">
<title>4_4_1_10_RESOURCE_OWNER_SPOOFING1_countermeasure0&#45;&gt;4_4_1_10_RESOURCE_OWNER_SPOOFING1_attack</title>
<path fill="none" stroke="black" d="M156.16,-36.01C169.55,-47.9 188.05,-64.33 205.31,-79.65"/>
<polygon fill="black" stroke="black" points="203.32,-82.57 213.12,-86.59 207.97,-77.33 203.32,-82.57"/>
<text text-anchor="middle" x="228.5" y="-57.8" font-family="Times,serif" font-size="14.00"> mitigates</text>
</g>
<!-- 4_4_1_10_RESOURCE_OWNER_SPOOFING1_countermeasure1 -->
<g id="node4" class="node">
<title>4_4_1_10_RESOURCE_OWNER_SPOOFING1_countermeasure1</title>
<polygon fill="#fff2cc" stroke="#d6b656" points="447.5,-36 292.5,-36 292.5,0 447.5,0 447.5,-36"/>
<text text-anchor="start" x="313.5" y="-21.4" font-family="Arial" font-weight="bold" font-size="12.00">Countermeasure</text>
<text text-anchor="start" x="303" y="-9.4" font-family="Arial" font-size="12.00"> Notify User&#39;s approval</text>
</g>
<!-- 4_4_1_10_RESOURCE_OWNER_SPOOFING1_countermeasure1&#45;&gt;4_4_1_10_RESOURCE_OWNER_SPOOFING1_attack -->
<g id="edge3" class="edge">
<title>4_4_1_10_RESOURCE_OWNER_SPOOFING1_countermeasure1&#45;&gt;4_4_1_10_RESOURCE_OWNER_SPOOFING1_attack</title>
<path fill="none" stroke="black" d="M350.68,-36.01C337.17,-47.9 318.5,-64.33 301.11,-79.65"/>
<polygon fill="black" stroke="black" points="298.42,-77.35 293.22,-86.59 303.04,-82.61 298.42,-77.35"/>
<text text-anchor="middle" x="364.5" y="-57.8" font-family="Times,serif" font-size="14.00"> mitigates</text>
</g>
</g>
</svg>
