<?xml version="1.0" encoding="UTF-8" standalone="no"?>
<!DOCTYPE svg PUBLIC "-//W3C//DTD SVG 1.1//EN"
 "http://www.w3.org/Graphics/SVG/1.1/DTD/svg11.dtd">
<!-- Generated by graphviz version 2.43.0 (0)
 -->
<!-- Title: G Pages: 1 -->
<svg width="1211pt" height="279pt"
 viewBox="0.00 0.00 1211.00 279.00" xmlns="http://www.w3.org/2000/svg" xmlns:xlink="http://www.w3.org/1999/xlink">
<g id="graph0" class="graph" transform="scale(1 1) rotate(0) translate(4 275)">
<title>G</title>
<polygon fill="white" stroke="transparent" points="-4,4 -4,-275 1207,-275 1207,4 -4,4"/>
<!-- 4_4_1_3_AUTH_CODE_BRUTE_FORCE -->
<g id="node1" class="node">
<title>4_4_1_3_AUTH_CODE_BRUTE_FORCE</title>
<polygon fill="#f8cecc" stroke="#b85450" points="793,-271 301,-271 301,-198 793,-198 793,-271"/>
<text text-anchor="start" x="524" y="-255.9" font-family="Arial" font-weight="bold" font-size="12.00">Threat</text>
<text text-anchor="start" x="311" y="-243.9" font-family="Arial" font-size="12.00"> Spoofing, Elevation of privileges, Information Disclosure in Authorization Grant</text>
<g id="a_node1_0"><a xlink:href="#OAuth2.CONFIDENTIALITY" xlink:title="&lt;TABLE&gt;">
<polygon fill="#eeeeee" stroke="transparent" points="319,-211.5 319,-228.5 566,-228.5 566,-211.5 319,-211.5"/>
<text text-anchor="start" x="388" y="-216.9" font-family="Arial" font-size="12.00" fill="blue">CONFIDENTIALITY</text>
</a>
</g>
<g id="a_node1_1"><a xlink:href="#OAuth2.INTEGRITY" xlink:title="&lt;TABLE&gt;">
<polygon fill="#eeeeee" stroke="transparent" points="574,-211.5 574,-228.5 775,-228.5 775,-211.5 574,-211.5"/>
<text text-anchor="start" x="642.5" y="-216.9" font-family="Arial" font-size="12.00" fill="blue">INTEGRITY</text>
</a>
</g>
</g>
<!-- 4_4_1_3_AUTH_CODE_BRUTE_FORCE_attack -->
<g id="node2" class="node">
<title>4_4_1_3_AUTH_CODE_BRUTE_FORCE_attack</title>
<polygon fill="#f5f5f5" stroke="#666666" points="761.5,-147 332.5,-147 332.5,-87 761.5,-87 761.5,-147"/>
<text text-anchor="start" x="525" y="-132.4" font-family="Arial" font-weight="bold" font-size="12.00">Attack</text>
<text text-anchor="start" x="347.5" y="-120.4" font-family="Arial" font-size="12.00">An attacker may try to guess valid authorization &quot;code&quot; values and</text>
<text text-anchor="start" x="343" y="-108.4" font-family="Arial" font-size="12.00">send the guessed code value using the grant type &quot;code&quot; in order to</text>
<text text-anchor="start" x="464.5" y="-96.4" font-family="Arial" font-size="12.00">obtain a valid access token.</text>
</g>
<!-- 4_4_1_3_AUTH_CODE_BRUTE_FORCE_attack&#45;&gt;4_4_1_3_AUTH_CODE_BRUTE_FORCE -->
<g id="edge1" class="edge">
<title>4_4_1_3_AUTH_CODE_BRUTE_FORCE_attack&#45;&gt;4_4_1_3_AUTH_CODE_BRUTE_FORCE</title>
<path fill="none" stroke="black" d="M547,-147.15C547,-159.39 547,-173.94 547,-187.57"/>
<polygon fill="black" stroke="black" points="543.5,-187.76 547,-197.76 550.5,-187.76 543.5,-187.76"/>
<text text-anchor="middle" x="577.5" y="-168.8" font-family="Times,serif" font-size="14.00"> exploits</text>
</g>
<!-- 4_4_1_3_AUTH_CODE_BRUTE_FORCE_countermeasure0 -->
<g id="node3" class="node">
<title>4_4_1_3_AUTH_CODE_BRUTE_FORCE_countermeasure0</title>
<polygon fill="#fff2cc" stroke="#d6b656" points="196,-36 0,-36 0,0 196,0 196,-36"/>
<text text-anchor="start" x="41" y="-21.4" font-family="Arial" font-weight="bold" font-size="12.00">Countermeasure</text>
<text text-anchor="start" x="10" y="-9.4" font-family="Arial" font-size="12.00"> Use High Entropy for Secrets</text>
</g>
<!-- 4_4_1_3_AUTH_CODE_BRUTE_FORCE_countermeasure0&#45;&gt;4_4_1_3_AUTH_CODE_BRUTE_FORCE_attack -->
<g id="edge2" class="edge">
<title>4_4_1_3_AUTH_CODE_BRUTE_FORCE_countermeasure0&#45;&gt;4_4_1_3_AUTH_CODE_BRUTE_FORCE_attack</title>
<path fill="none" stroke="black" d="M172.52,-36.01C215.83,-45.82 271.46,-58.29 321,-69 345.12,-74.21 370.71,-79.64 395.67,-84.87"/>
<polygon fill="black" stroke="black" points="395.07,-88.32 405.58,-86.94 396.5,-81.47 395.07,-88.32"/>
<text text-anchor="middle" x="357.5" y="-57.8" font-family="Times,serif" font-size="14.00"> mitigates</text>
</g>
<!-- 4_4_1_3_AUTH_CODE_BRUTE_FORCE_countermeasure1 -->
<g id="node4" class="node">
<title>4_4_1_3_AUTH_CODE_BRUTE_FORCE_countermeasure1</title>
<polygon fill="#fff2cc" stroke="#d6b656" points="398.5,-36 213.5,-36 213.5,0 398.5,0 398.5,-36"/>
<text text-anchor="start" x="249.5" y="-21.4" font-family="Arial" font-weight="bold" font-size="12.00">Countermeasure</text>
<text text-anchor="start" x="224" y="-9.4" font-family="Arial" font-size="12.00"> Sign Self&#45;Contained Tokens</text>
</g>
<!-- 4_4_1_3_AUTH_CODE_BRUTE_FORCE_countermeasure1&#45;&gt;4_4_1_3_AUTH_CODE_BRUTE_FORCE_attack -->
<g id="edge3" class="edge">
<title>4_4_1_3_AUTH_CODE_BRUTE_FORCE_countermeasure1&#45;&gt;4_4_1_3_AUTH_CODE_BRUTE_FORCE_attack</title>
<path fill="none" stroke="black" d="M348.25,-36.01C380.5,-48.98 425.91,-67.26 465.19,-83.07"/>
<polygon fill="black" stroke="black" points="463.92,-86.34 474.51,-86.82 466.54,-79.84 463.92,-86.34"/>
<text text-anchor="middle" x="463.5" y="-57.8" font-family="Times,serif" font-size="14.00"> mitigates</text>
</g>
<!-- 4_4_1_3_AUTH_CODE_BRUTE_FORCE_countermeasure2 -->
<g id="node5" class="node">
<title>4_4_1_3_AUTH_CODE_BRUTE_FORCE_countermeasure2</title>
<polygon fill="#d5e8d4" stroke="#82b366" points="677.5,-36 416.5,-36 416.5,0 677.5,0 677.5,-36"/>
<text text-anchor="start" x="490.5" y="-21.4" font-family="Arial" font-weight="bold" font-size="12.00">Countermeasure</text>
<text text-anchor="start" x="427" y="-9.4" font-family="Arial" font-size="12.00"> Issue Installation&#45;Specific Client Secrets</text>
</g>
<!-- 4_4_1_3_AUTH_CODE_BRUTE_FORCE_countermeasure2&#45;&gt;4_4_1_3_AUTH_CODE_BRUTE_FORCE_attack -->
<g id="edge4" class="edge">
<title>4_4_1_3_AUTH_CODE_BRUTE_FORCE_countermeasure2&#45;&gt;4_4_1_3_AUTH_CODE_BRUTE_FORCE_attack</title>
<path fill="none" stroke="black" d="M547,-36.34C547,-47.46 547,-62.36 547,-76.27"/>
<polygon fill="black" stroke="black" points="543.5,-76.63 547,-86.63 550.5,-76.63 543.5,-76.63"/>
<text text-anchor="middle" x="583.5" y="-57.8" font-family="Times,serif" font-size="14.00"> mitigates</text>
</g>
<!-- 4_4_1_3_AUTH_CODE_BRUTE_FORCE_countermeasure3 -->
<g id="node6" class="node">
<title>4_4_1_3_AUTH_CODE_BRUTE_FORCE_countermeasure3</title>
<polygon fill="#fff2cc" stroke="#d6b656" points="1004.5,-36 695.5,-36 695.5,0 1004.5,0 1004.5,-36"/>
<text text-anchor="start" x="793.5" y="-21.4" font-family="Arial" font-weight="bold" font-size="12.00">Countermeasure</text>
<text text-anchor="start" x="706" y="-9.4" font-family="Arial" font-size="12.00"> Binding of Authorization &quot;code&quot; to &quot;redirect_uri&quot;</text>
</g>
<!-- 4_4_1_3_AUTH_CODE_BRUTE_FORCE_countermeasure3&#45;&gt;4_4_1_3_AUTH_CODE_BRUTE_FORCE_attack -->
<g id="edge5" class="edge">
<title>4_4_1_3_AUTH_CODE_BRUTE_FORCE_countermeasure3&#45;&gt;4_4_1_3_AUTH_CODE_BRUTE_FORCE_attack</title>
<path fill="none" stroke="black" d="M796.87,-36.01C755.66,-49.2 697.32,-67.88 647.39,-83.86"/>
<polygon fill="black" stroke="black" points="646.3,-80.54 637.84,-86.92 648.43,-87.2 646.3,-80.54"/>
<text text-anchor="middle" x="770.5" y="-57.8" font-family="Times,serif" font-size="14.00"> mitigates</text>
</g>
<!-- 4_4_1_3_AUTH_CODE_BRUTE_FORCE_countermeasure4 -->
<g id="node7" class="node">
<title>4_4_1_3_AUTH_CODE_BRUTE_FORCE_countermeasure4</title>
<polygon fill="#fff2cc" stroke="#d6b656" points="1203,-36 1023,-36 1023,0 1203,0 1203,-36"/>
<text text-anchor="start" x="1056" y="-21.4" font-family="Arial" font-weight="bold" font-size="12.00">Countermeasure</text>
<text text-anchor="start" x="1033" y="-9.4" font-family="Arial" font-size="12.00"> Use Short Expiration Time</text>
</g>
<!-- 4_4_1_3_AUTH_CODE_BRUTE_FORCE_countermeasure4&#45;&gt;4_4_1_3_AUTH_CODE_BRUTE_FORCE_attack -->
<g id="edge6" class="edge">
<title>4_4_1_3_AUTH_CODE_BRUTE_FORCE_countermeasure4&#45;&gt;4_4_1_3_AUTH_CODE_BRUTE_FORCE_attack</title>
<path fill="none" stroke="black" d="M1022.89,-34.47C1019.89,-34.99 1016.92,-35.5 1014,-36 919.05,-52.28 813.24,-70.41 726.38,-85.29"/>
<polygon fill="black" stroke="black" points="725.69,-81.86 716.43,-86.99 726.87,-88.75 725.69,-81.86"/>
<text text-anchor="middle" x="934.5" y="-57.8" font-family="Times,serif" font-size="14.00"> mitigates</text>
</g>
</g>
</svg>
