<?xml version="1.0" encoding="UTF-8" standalone="no"?>
<!DOCTYPE svg PUBLIC "-//W3C//DTD SVG 1.1//EN"
 "http://www.w3.org/Graphics/SVG/1.1/DTD/svg11.dtd">
<!-- Generated by graphviz version 2.43.0 (0)
 -->
<!-- Title: G Pages: 1 -->
<svg width="777pt" height="291pt"
 viewBox="0.00 0.00 776.50 291.00" xmlns="http://www.w3.org/2000/svg" xmlns:xlink="http://www.w3.org/1999/xlink">
<g id="graph0" class="graph" transform="scale(1 1) rotate(0) translate(4 287)">
<title>G</title>
<polygon fill="white" stroke="transparent" points="-4,4 -4,-287 772.5,-287 772.5,4 -4,4"/>
<!-- 4_4_2_5_CSRF_IMPLICIT -->
<g id="node1" class="node">
<title>4_4_2_5_CSRF_IMPLICIT</title>
<polygon fill="#f8cecc" stroke="#b85450" points="649.5,-283 157.5,-283 157.5,-210 649.5,-210 649.5,-283"/>
<text text-anchor="start" x="380.5" y="-267.9" font-family="Arial" font-weight="bold" font-size="12.00">Threat</text>
<text text-anchor="start" x="167.5" y="-255.9" font-family="Arial" font-size="12.00"> Spoofing, Elevation of privileges, Information Disclosure in Authorization Grant</text>
<g id="a_node1_0"><a xlink:href="#OAuth2.CONFIDENTIALITY" xlink:title="&lt;TABLE&gt;">
<polygon fill="#eeeeee" stroke="transparent" points="175.5,-223.5 175.5,-240.5 422.5,-240.5 422.5,-223.5 175.5,-223.5"/>
<text text-anchor="start" x="244.5" y="-228.9" font-family="Arial" font-size="12.00" fill="blue">CONFIDENTIALITY</text>
</a>
</g>
<g id="a_node1_1"><a xlink:href="#OAuth2.INTEGRITY" xlink:title="&lt;TABLE&gt;">
<polygon fill="#eeeeee" stroke="transparent" points="430.5,-223.5 430.5,-240.5 631.5,-240.5 631.5,-223.5 430.5,-223.5"/>
<text text-anchor="start" x="499" y="-228.9" font-family="Arial" font-size="12.00" fill="blue">INTEGRITY</text>
</a>
</g>
</g>
<!-- 4_4_2_5_CSRF_IMPLICIT_attack -->
<g id="node2" class="node">
<title>4_4_2_5_CSRF_IMPLICIT_attack</title>
<polygon fill="#f5f5f5" stroke="#666666" points="647.5,-159 159.5,-159 159.5,-87 647.5,-87 647.5,-159"/>
<text text-anchor="start" x="381" y="-144.4" font-family="Arial" font-weight="bold" font-size="12.00">Attack</text>
<text text-anchor="start" x="175" y="-132.4" font-family="Arial" font-size="12.00">CSRF attacks (see Section 4.4.1.8) also work against the redirect URI used in</text>
<text text-anchor="start" x="169.5" y="-120.4" font-family="Arial" font-size="12.00">the implicit grant flow. An attacker could acquire an access token to their own</text>
<text text-anchor="start" x="173.5" y="-108.4" font-family="Arial" font-size="12.00">protected resources. He could then construct a redirect URI and embed their</text>
<text text-anchor="start" x="182.5" y="-96.4" font-family="Arial" font-size="12.00">access token in that URI. If he can trick the user into following the redi[...]</text>
</g>
<!-- 4_4_2_5_CSRF_IMPLICIT_attack&#45;&gt;4_4_2_5_CSRF_IMPLICIT -->
<g id="edge1" class="edge">
<title>4_4_2_5_CSRF_IMPLICIT_attack&#45;&gt;4_4_2_5_CSRF_IMPLICIT</title>
<path fill="none" stroke="black" d="M403.5,-159.14C403.5,-171.76 403.5,-186.19 403.5,-199.59"/>
<polygon fill="black" stroke="black" points="400,-199.59 403.5,-209.59 407,-199.59 400,-199.59"/>
<text text-anchor="middle" x="434" y="-180.8" font-family="Times,serif" font-size="14.00"> exploits</text>
</g>
<!-- 4_4_2_5_CSRF_IMPLICIT_countermeasure0 -->
<g id="node3" class="node">
<title>4_4_2_5_CSRF_IMPLICIT_countermeasure0</title>
<polygon fill="#fff2cc" stroke="#d6b656" points="415,-36 0,-36 0,0 415,0 415,-36"/>
<text text-anchor="start" x="151" y="-21.4" font-family="Arial" font-weight="bold" font-size="12.00">Countermeasure</text>
<text text-anchor="start" x="10.5" y="-9.4" font-family="Arial" font-size="12.00"> Link the authorization request with the redirect URI (state param)</text>
</g>
<!-- 4_4_2_5_CSRF_IMPLICIT_countermeasure0&#45;&gt;4_4_2_5_CSRF_IMPLICIT_attack -->
<g id="edge2" class="edge">
<title>4_4_2_5_CSRF_IMPLICIT_countermeasure0&#45;&gt;4_4_2_5_CSRF_IMPLICIT_attack</title>
<path fill="none" stroke="black" d="M239.87,-36.01C263.71,-48.54 297.16,-66.12 327.61,-82.12"/>
<polygon fill="black" stroke="black" points="326.04,-85.25 336.52,-86.8 329.3,-79.05 326.04,-85.25"/>
<text text-anchor="middle" x="337" y="-57.8" font-family="Times,serif" font-size="14.00"> mitigates</text>
</g>
<!-- 4_4_2_5_CSRF_IMPLICIT_countermeasure1 -->
<g id="node4" class="node">
<title>4_4_2_5_CSRF_IMPLICIT_countermeasure1</title>
<polygon fill="#fff2cc" stroke="#d6b656" points="768.5,-36 432.5,-36 432.5,0 768.5,0 768.5,-36"/>
<text text-anchor="start" x="543.5" y="-21.4" font-family="Arial" font-weight="bold" font-size="12.00">Countermeasure</text>
<text text-anchor="start" x="442.5" y="-9.4" font-family="Arial" font-size="12.00"> Users can be educated to not follow untrusted URLs</text>
</g>
<!-- 4_4_2_5_CSRF_IMPLICIT_countermeasure1&#45;&gt;4_4_2_5_CSRF_IMPLICIT_attack -->
<g id="edge3" class="edge">
<title>4_4_2_5_CSRF_IMPLICIT_countermeasure1&#45;&gt;4_4_2_5_CSRF_IMPLICIT_attack</title>
<path fill="none" stroke="black" d="M567.97,-36.01C544,-48.54 510.38,-66.12 479.78,-82.12"/>
<polygon fill="black" stroke="black" points="478.06,-79.07 470.82,-86.8 481.3,-85.27 478.06,-79.07"/>
<text text-anchor="middle" x="567" y="-57.8" font-family="Times,serif" font-size="14.00"> mitigates</text>
</g>
</g>
</svg>
