<?xml version="1.0" encoding="UTF-8" standalone="no"?>
<!DOCTYPE svg PUBLIC "-//W3C//DTD SVG 1.1//EN"
 "http://www.w3.org/Graphics/SVG/1.1/DTD/svg11.dtd">
<!-- Generated by graphviz version 2.43.0 (0)
 -->
<!-- Title: G Pages: 1 -->
<svg width="933pt" height="303pt"
 viewBox="0.00 0.00 932.50 303.00" xmlns="http://www.w3.org/2000/svg" xmlns:xlink="http://www.w3.org/1999/xlink">
<g id="graph0" class="graph" transform="scale(1 1) rotate(0) translate(4 299)">
<title>G</title>
<polygon fill="white" stroke="transparent" points="-4,4 -4,-299 928.5,-299 928.5,4 -4,4"/>
<!-- 4_4_1_12_DOS2 -->
<g id="node1" class="node">
<title>4_4_1_12_DOS2</title>
<polygon fill="#f8cecc" stroke="#b85450" points="676.5,-295 371.5,-295 371.5,-222 676.5,-222 676.5,-295"/>
<text text-anchor="start" x="501.5" y="-279.9" font-family="Arial" font-weight="bold" font-size="12.00">Threat</text>
<text text-anchor="start" x="382" y="-267.9" font-family="Arial" font-size="12.00"> DoS Using Manufactured Authorization &quot;codes&quot;</text>
<g id="a_node1_0"><a xlink:href="#OAuth2.AVAILABILITY" xlink:title="&lt;TABLE&gt;">
<polygon fill="#eeeeee" stroke="transparent" points="390,-235.5 390,-252.5 659,-252.5 659,-235.5 390,-235.5"/>
<text text-anchor="start" x="484.5" y="-240.9" font-family="Arial" font-size="12.00" fill="blue">AVAILABILITY</text>
</a>
</g>
</g>
<!-- 4_4_1_12_DOS2_attack -->
<g id="node2" class="node">
<title>4_4_1_12_DOS2_attack</title>
<polygon fill="#f5f5f5" stroke="#666666" points="757,-171 291,-171 291,-87 757,-87 757,-171"/>
<text text-anchor="start" x="501.5" y="-156.4" font-family="Arial" font-weight="bold" font-size="12.00">Attack</text>
<text text-anchor="start" x="301" y="-144.4" font-family="Arial" font-size="12.00">An attacker who owns a botnet can locate the redirect URIs of clients &#160;that</text>
<text text-anchor="start" x="317" y="-132.4" font-family="Arial" font-size="12.00">listen on HTTP, access them with random authorization &quot;codes&quot;, &#160;and</text>
<text text-anchor="start" x="303" y="-120.4" font-family="Arial" font-size="12.00">cause a large number of HTTPS connections to be concentrated onto &#160;the</text>
<text text-anchor="start" x="303" y="-108.4" font-family="Arial" font-size="12.00">authorization server. This can result in a denial&#45;of&#45;service &#160;(DoS) attack on</text>
<text text-anchor="start" x="470" y="-96.4" font-family="Arial" font-size="12.00">the authorizati[...]</text>
</g>
<!-- 4_4_1_12_DOS2_attack&#45;&gt;4_4_1_12_DOS2 -->
<g id="edge1" class="edge">
<title>4_4_1_12_DOS2_attack&#45;&gt;4_4_1_12_DOS2</title>
<path fill="none" stroke="black" d="M524,-171.04C524,-183.91 524,-198.2 524,-211.39"/>
<polygon fill="black" stroke="black" points="520.5,-211.69 524,-221.69 527.5,-211.69 520.5,-211.69"/>
<text text-anchor="middle" x="554.5" y="-192.8" font-family="Times,serif" font-size="14.00"> exploits</text>
</g>
<!-- 4_4_1_12_DOS2_countermeasure0 -->
<g id="node3" class="node">
<title>4_4_1_12_DOS2_countermeasure0</title>
<polygon fill="#fff2cc" stroke="#d6b656" points="378,-36 0,-36 0,0 378,0 378,-36"/>
<text text-anchor="start" x="132" y="-21.4" font-family="Arial" font-weight="bold" font-size="12.00">Countermeasure</text>
<text text-anchor="start" x="10" y="-9.4" font-family="Arial" font-size="12.00"> Link the state Parameter to User Agent Session (anti CSRF)</text>
</g>
<!-- 4_4_1_12_DOS2_countermeasure0&#45;&gt;4_4_1_12_DOS2_attack -->
<g id="edge2" class="edge">
<title>4_4_1_12_DOS2_countermeasure0&#45;&gt;4_4_1_12_DOS2_attack</title>
<path fill="none" stroke="black" d="M241.34,-36.03C280.76,-48.85 336.65,-67.04 388.35,-83.86"/>
<polygon fill="black" stroke="black" points="387.36,-87.22 397.95,-86.99 389.52,-80.56 387.36,-87.22"/>
<text text-anchor="middle" x="373.5" y="-57.8" font-family="Times,serif" font-size="14.00"> mitigates</text>
</g>
<!-- 4_4_1_12_DOS2_countermeasure1 -->
<g id="node4" class="node">
<title>4_4_1_12_DOS2_countermeasure1</title>
<polygon fill="#fff2cc" stroke="#d6b656" points="651.5,-36 396.5,-36 396.5,0 651.5,0 651.5,-36"/>
<text text-anchor="start" x="467.5" y="-21.4" font-family="Arial" font-weight="bold" font-size="12.00">Countermeasure</text>
<text text-anchor="start" x="407" y="-9.4" font-family="Arial" font-size="12.00"> Client limits authenticated users codes</text>
</g>
<!-- 4_4_1_12_DOS2_countermeasure1&#45;&gt;4_4_1_12_DOS2_attack -->
<g id="edge3" class="edge">
<title>4_4_1_12_DOS2_countermeasure1&#45;&gt;4_4_1_12_DOS2_attack</title>
<path fill="none" stroke="black" d="M524,-36.03C524,-47.03 524,-61.96 524,-76.6"/>
<polygon fill="black" stroke="black" points="520.5,-76.64 524,-86.64 527.5,-76.64 520.5,-76.64"/>
<text text-anchor="middle" x="560.5" y="-57.8" font-family="Times,serif" font-size="14.00"> mitigates</text>
</g>
<!-- 4_4_1_12_DOS2_countermeasure2 -->
<g id="node5" class="node">
<title>4_4_1_12_DOS2_countermeasure2</title>
<polygon fill="#fff2cc" stroke="#d6b656" points="924.5,-36 669.5,-36 669.5,0 924.5,0 924.5,-36"/>
<text text-anchor="start" x="740.5" y="-21.4" font-family="Arial" font-weight="bold" font-size="12.00">Countermeasure</text>
<text text-anchor="start" x="680" y="-9.4" font-family="Arial" font-size="12.00"> Client limits authenticated users codes</text>
</g>
<!-- 4_4_1_12_DOS2_countermeasure2&#45;&gt;4_4_1_12_DOS2_attack -->
<g id="edge4" class="edge">
<title>4_4_1_12_DOS2_countermeasure2&#45;&gt;4_4_1_12_DOS2_attack</title>
<path fill="none" stroke="black" d="M754.34,-36.03C722.63,-48.7 677.81,-66.59 636.12,-83.23"/>
<polygon fill="black" stroke="black" points="634.71,-80.03 626.72,-86.99 637.31,-86.53 634.71,-80.03"/>
<text text-anchor="middle" x="744.5" y="-57.8" font-family="Times,serif" font-size="14.00"> mitigates</text>
</g>
</g>
</svg>
