<?xml version="1.0" encoding="UTF-8" standalone="no"?>
<!DOCTYPE svg PUBLIC "-//W3C//DTD SVG 1.1//EN"
 "http://www.w3.org/Graphics/SVG/1.1/DTD/svg11.dtd">
<!-- Generated by graphviz version 2.43.0 (0)
 -->
<!-- Title: G Pages: 1 -->
<svg width="478pt" height="303pt"
 viewBox="0.00 0.00 478.00 303.00" xmlns="http://www.w3.org/2000/svg" xmlns:xlink="http://www.w3.org/1999/xlink">
<g id="graph0" class="graph" transform="scale(1 1) rotate(0) translate(4 299)">
<title>G</title>
<polygon fill="white" stroke="transparent" points="-4,4 -4,-299 474,-299 474,4 -4,4"/>
<!-- 4_4_1_13_CODE_SUBSTITUTION -->
<g id="node1" class="node">
<title>4_4_1_13_CODE_SUBSTITUTION</title>
<polygon fill="#f8cecc" stroke="#b85450" points="412,-295 58,-295 58,-222 412,-222 412,-295"/>
<text text-anchor="start" x="212" y="-279.9" font-family="Arial" font-weight="bold" font-size="12.00">Threat</text>
<text text-anchor="start" x="182" y="-267.9" font-family="Arial" font-size="12.00"> Denial of Service</text>
<g id="a_node1_0"><a xlink:href="#OAuth2.CONFIDENTIALITY" xlink:title="&lt;TABLE&gt;">
<polygon fill="#eeeeee" stroke="transparent" points="76,-235.5 76,-252.5 189,-252.5 189,-235.5 76,-235.5"/>
<text text-anchor="start" x="78" y="-240.9" font-family="Arial" font-size="12.00" fill="blue">CONFIDENTIALITY</text>
</a>
</g>
<g id="a_node1_1"><a xlink:href="#OAuth2.INTEGRITY" xlink:title="&lt;TABLE&gt;">
<polygon fill="#eeeeee" stroke="transparent" points="197,-235.5 197,-252.5 265,-252.5 265,-235.5 197,-235.5"/>
<text text-anchor="start" x="199" y="-240.9" font-family="Arial" font-size="12.00" fill="blue">INTEGRITY</text>
</a>
</g>
<g id="a_node1_2"><a xlink:href="#OAuth2.NON_REPUDIATION" xlink:title="&lt;TABLE&gt;">
<polygon fill="#eeeeee" stroke="transparent" points="273,-235.5 273,-252.5 394,-252.5 394,-235.5 273,-235.5"/>
<text text-anchor="start" x="275" y="-240.9" font-family="Arial" font-size="12.00" fill="blue">NON_REPUDIATION</text>
</a>
</g>
</g>
<!-- 4_4_1_13_CODE_SUBSTITUTION_attack -->
<g id="node2" class="node">
<title>4_4_1_13_CODE_SUBSTITUTION_attack</title>
<polygon fill="#f5f5f5" stroke="#666666" points="470,-171 0,-171 0,-87 470,-87 470,-171"/>
<text text-anchor="start" x="212.5" y="-156.4" font-family="Arial" font-weight="bold" font-size="12.00">Attack</text>
<text text-anchor="start" x="20" y="-144.4" font-family="Arial" font-size="12.00">An attacker could attempt to log into an application or web site &#160;using a</text>
<text text-anchor="start" x="10" y="-132.4" font-family="Arial" font-size="12.00">victim’s identity. Applications relying on identity data &#160;provided by an OAuth</text>
<text text-anchor="start" x="26" y="-120.4" font-family="Arial" font-size="12.00">protected service API to login users are &#160;vulnerable to this threat. This</text>
<text text-anchor="start" x="45.5" y="-108.4" font-family="Arial" font-size="12.00">pattern can be found in so&#45;called &#160;&quot;social login&quot; scenarios. &#160;As a</text>
<text text-anchor="start" x="185.5" y="-96.4" font-family="Arial" font-size="12.00">prerequisite, [...]</text>
</g>
<!-- 4_4_1_13_CODE_SUBSTITUTION_attack&#45;&gt;4_4_1_13_CODE_SUBSTITUTION -->
<g id="edge1" class="edge">
<title>4_4_1_13_CODE_SUBSTITUTION_attack&#45;&gt;4_4_1_13_CODE_SUBSTITUTION</title>
<path fill="none" stroke="black" d="M235,-171.04C235,-183.91 235,-198.2 235,-211.39"/>
<polygon fill="black" stroke="black" points="231.5,-211.69 235,-221.69 238.5,-211.69 231.5,-211.69"/>
<text text-anchor="middle" x="265.5" y="-192.8" font-family="Times,serif" font-size="14.00"> exploits</text>
</g>
<!-- 4_4_1_13_CODE_SUBSTITUTION_countermeasure0 -->
<g id="node3" class="node">
<title>4_4_1_13_CODE_SUBSTITUTION_countermeasure0</title>
<polygon fill="#fff2cc" stroke="#d6b656" points="239,-36 3,-36 3,0 239,0 239,-36"/>
<text text-anchor="start" x="64" y="-21.4" font-family="Arial" font-weight="bold" font-size="12.00">Countermeasure</text>
<text text-anchor="start" x="13" y="-9.4" font-family="Arial" font-size="12.00"> Clients indicate their ids in requests</text>
</g>
<!-- 4_4_1_13_CODE_SUBSTITUTION_countermeasure0&#45;&gt;4_4_1_13_CODE_SUBSTITUTION_attack -->
<g id="edge2" class="edge">
<title>4_4_1_13_CODE_SUBSTITUTION_countermeasure0&#45;&gt;4_4_1_13_CODE_SUBSTITUTION_attack</title>
<path fill="none" stroke="black" d="M138.81,-36.03C151.09,-47.77 168.06,-63.99 184.33,-79.55"/>
<polygon fill="black" stroke="black" points="182.09,-82.26 191.74,-86.64 186.93,-77.2 182.09,-82.26"/>
<text text-anchor="middle" x="208.5" y="-57.8" font-family="Times,serif" font-size="14.00"> mitigates</text>
</g>
<!-- 4_4_1_13_CODE_SUBSTITUTION_countermeasure1 -->
<g id="node4" class="node">
<title>4_4_1_13_CODE_SUBSTITUTION_countermeasure1</title>
<polygon fill="#fff2cc" stroke="#d6b656" points="442.5,-36 257.5,-36 257.5,0 442.5,0 442.5,-36"/>
<text text-anchor="start" x="293.5" y="-21.4" font-family="Arial" font-weight="bold" font-size="12.00">Countermeasure</text>
<text text-anchor="start" x="268" y="-9.4" font-family="Arial" font-size="12.00"> Secure User Login Protocol</text>
</g>
<!-- 4_4_1_13_CODE_SUBSTITUTION_countermeasure1&#45;&gt;4_4_1_13_CODE_SUBSTITUTION_attack -->
<g id="edge3" class="edge">
<title>4_4_1_13_CODE_SUBSTITUTION_countermeasure1&#45;&gt;4_4_1_13_CODE_SUBSTITUTION_attack</title>
<path fill="none" stroke="black" d="M332.03,-36.03C319.65,-47.77 302.53,-63.99 286.11,-79.55"/>
<polygon fill="black" stroke="black" points="283.49,-77.22 278.64,-86.64 288.31,-82.3 283.49,-77.22"/>
<text text-anchor="middle" x="348.5" y="-57.8" font-family="Times,serif" font-size="14.00"> mitigates</text>
</g>
</g>
</svg>
