<?xml version="1.0" encoding="UTF-8" standalone="no"?>
<!DOCTYPE svg PUBLIC "-//W3C//DTD SVG 1.1//EN"
 "http://www.w3.org/Graphics/SVG/1.1/DTD/svg11.dtd">
<!-- Generated by graphviz version 2.43.0 (0)
 -->
<!-- Title: G Pages: 1 -->
<svg width="500pt" height="303pt"
 viewBox="0.00 0.00 500.00 303.00" xmlns="http://www.w3.org/2000/svg" xmlns:xlink="http://www.w3.org/1999/xlink">
<g id="graph0" class="graph" transform="scale(1 1) rotate(0) translate(4 299)">
<title>G</title>
<polygon fill="white" stroke="transparent" points="-4,4 -4,-299 496,-299 496,4 -4,4"/>
<!-- 4_4_2_6_TOKEN_SUBSTITUTION -->
<g id="node1" class="node">
<title>4_4_2_6_TOKEN_SUBSTITUTION</title>
<polygon fill="#f8cecc" stroke="#b85450" points="492,-295 0,-295 0,-222 492,-222 492,-295"/>
<text text-anchor="start" x="223" y="-279.9" font-family="Arial" font-weight="bold" font-size="12.00">Threat</text>
<text text-anchor="start" x="10" y="-267.9" font-family="Arial" font-size="12.00"> Spoofing, Elevation of privileges, Information Disclosure in Authorization Grant</text>
<g id="a_node1_0"><a xlink:href="#OAuth2.CONFIDENTIALITY" xlink:title="&lt;TABLE&gt;">
<polygon fill="#eeeeee" stroke="transparent" points="18,-235.5 18,-252.5 265,-252.5 265,-235.5 18,-235.5"/>
<text text-anchor="start" x="87" y="-240.9" font-family="Arial" font-size="12.00" fill="blue">CONFIDENTIALITY</text>
</a>
</g>
<g id="a_node1_1"><a xlink:href="#OAuth2.INTEGRITY" xlink:title="&lt;TABLE&gt;">
<polygon fill="#eeeeee" stroke="transparent" points="273,-235.5 273,-252.5 474,-252.5 474,-235.5 273,-235.5"/>
<text text-anchor="start" x="341.5" y="-240.9" font-family="Arial" font-size="12.00" fill="blue">INTEGRITY</text>
</a>
</g>
</g>
<!-- 4_4_2_6_TOKEN_SUBSTITUTION_attack -->
<g id="node2" class="node">
<title>4_4_2_6_TOKEN_SUBSTITUTION_attack</title>
<polygon fill="#f5f5f5" stroke="#666666" points="486.5,-171 5.5,-171 5.5,-87 486.5,-87 486.5,-171"/>
<text text-anchor="start" x="224" y="-156.4" font-family="Arial" font-weight="bold" font-size="12.00">Attack</text>
<text text-anchor="start" x="33.5" y="-144.4" font-family="Arial" font-size="12.00">An attacker could attempt to log into an application or web site using a</text>
<text text-anchor="start" x="23.5" y="-132.4" font-family="Arial" font-size="12.00">victim’s identity. Applications relying on identity data provided by an OAuth</text>
<text text-anchor="start" x="16" y="-120.4" font-family="Arial" font-size="12.00">protected service API to login users are vulnerable to this threat. This pattern</text>
<text text-anchor="start" x="45" y="-108.4" font-family="Arial" font-size="12.00">can be found in so&#45;called &quot;social login&quot; scenarios. As a prerequisite,</text>
<text text-anchor="start" x="221.5" y="-96.4" font-family="Arial" font-size="12.00">a res[...]</text>
</g>
<!-- 4_4_2_6_TOKEN_SUBSTITUTION_attack&#45;&gt;4_4_2_6_TOKEN_SUBSTITUTION -->
<g id="edge1" class="edge">
<title>4_4_2_6_TOKEN_SUBSTITUTION_attack&#45;&gt;4_4_2_6_TOKEN_SUBSTITUTION</title>
<path fill="none" stroke="black" d="M246,-171.04C246,-183.91 246,-198.2 246,-211.39"/>
<polygon fill="black" stroke="black" points="242.5,-211.69 246,-221.69 249.5,-211.69 242.5,-211.69"/>
<text text-anchor="middle" x="276.5" y="-192.8" font-family="Times,serif" font-size="14.00"> exploits</text>
</g>
<!-- 4_4_2_6_TOKEN_SUBSTITUTION_countermeasure0 -->
<g id="node3" class="node">
<title>4_4_2_6_TOKEN_SUBSTITUTION_countermeasure0</title>
<polygon fill="#fff2cc" stroke="#d6b656" points="338.5,-36 153.5,-36 153.5,0 338.5,0 338.5,-36"/>
<text text-anchor="start" x="189.5" y="-21.4" font-family="Arial" font-weight="bold" font-size="12.00">Countermeasure</text>
<text text-anchor="start" x="164" y="-9.4" font-family="Arial" font-size="12.00"> Secure User Login Protocol</text>
</g>
<!-- 4_4_2_6_TOKEN_SUBSTITUTION_countermeasure0&#45;&gt;4_4_2_6_TOKEN_SUBSTITUTION_attack -->
<g id="edge2" class="edge">
<title>4_4_2_6_TOKEN_SUBSTITUTION_countermeasure0&#45;&gt;4_4_2_6_TOKEN_SUBSTITUTION_attack</title>
<path fill="none" stroke="black" d="M246,-36.03C246,-47.03 246,-61.96 246,-76.6"/>
<polygon fill="black" stroke="black" points="242.5,-76.64 246,-86.64 249.5,-76.64 242.5,-76.64"/>
<text text-anchor="middle" x="282.5" y="-57.8" font-family="Times,serif" font-size="14.00"> mitigates</text>
</g>
</g>
</svg>
