<?xml version="1.0" encoding="UTF-8" standalone="no"?>
<!DOCTYPE svg PUBLIC "-//W3C//DTD SVG 1.1//EN"
 "http://www.w3.org/Graphics/SVG/1.1/DTD/svg11.dtd">
<!-- Generated by graphviz version 2.43.0 (0)
 -->
<!-- Title: G Pages: 1 -->
<svg width="586pt" height="303pt"
 viewBox="0.00 0.00 585.50 303.00" xmlns="http://www.w3.org/2000/svg" xmlns:xlink="http://www.w3.org/1999/xlink">
<g id="graph0" class="graph" transform="scale(1 1) rotate(0) translate(4 299)">
<title>G</title>
<polygon fill="white" stroke="transparent" points="-4,4 -4,-299 581.5,-299 581.5,4 -4,4"/>
<!-- 4_4_1_9_CLICKJACKING -->
<g id="node1" class="node">
<title>4_4_1_9_CLICKJACKING</title>
<polygon fill="#f8cecc" stroke="#b85450" points="577.5,-295 94.5,-295 94.5,-222 577.5,-222 577.5,-295"/>
<text text-anchor="start" x="313.5" y="-279.9" font-family="Arial" font-weight="bold" font-size="12.00">Threat</text>
<text text-anchor="start" x="105" y="-267.9" font-family="Arial" font-size="12.00"> Spoofing, Repudiation, Information Disclosure in Auth User Agent Redirection</text>
<g id="a_node1_0"><a xlink:href="#OAuth2.CONFIDENTIALITY" xlink:title="&lt;TABLE&gt;">
<polygon fill="#eeeeee" stroke="transparent" points="113,-235.5 113,-252.5 329,-252.5 329,-235.5 113,-235.5"/>
<text text-anchor="start" x="166.5" y="-240.9" font-family="Arial" font-size="12.00" fill="blue">CONFIDENTIALITY</text>
</a>
</g>
<g id="a_node1_1"><a xlink:href="#OAuth2.NON_REPUDIATION" xlink:title="&lt;TABLE&gt;">
<polygon fill="#eeeeee" stroke="transparent" points="337,-235.5 337,-252.5 560,-252.5 560,-235.5 337,-235.5"/>
<text text-anchor="start" x="390" y="-240.9" font-family="Arial" font-size="12.00" fill="blue">NON_REPUDIATION</text>
</a>
</g>
</g>
<!-- 4_4_1_9_CLICKJACKING_attack -->
<g id="node2" class="node">
<title>4_4_1_9_CLICKJACKING_attack</title>
<polygon fill="#f5f5f5" stroke="#666666" points="568.5,-171 103.5,-171 103.5,-87 568.5,-87 568.5,-171"/>
<text text-anchor="start" x="314" y="-156.4" font-family="Arial" font-weight="bold" font-size="12.00">Attack</text>
<text text-anchor="start" x="126" y="-144.4" font-family="Arial" font-size="12.00">With clickjacking, a malicious site loads the target site in a transparent</text>
<text text-anchor="start" x="118" y="-132.4" font-family="Arial" font-size="12.00">iFrame (see [iFrame]) overlaid on top of a set of dummy buttons that are</text>
<text text-anchor="start" x="114" y="-120.4" font-family="Arial" font-size="12.00">carefully constructed to be placed directly under important buttons on the</text>
<text text-anchor="start" x="115.5" y="-108.4" font-family="Arial" font-size="12.00">target site. When a user clicks a visible button, they are actually clicking a</text>
<text text-anchor="start" x="306.5" y="-96.4" font-family="Arial" font-size="12.00">button[...]</text>
</g>
<!-- 4_4_1_9_CLICKJACKING_attack&#45;&gt;4_4_1_9_CLICKJACKING -->
<g id="edge1" class="edge">
<title>4_4_1_9_CLICKJACKING_attack&#45;&gt;4_4_1_9_CLICKJACKING</title>
<path fill="none" stroke="black" d="M336,-171.04C336,-183.91 336,-198.2 336,-211.39"/>
<polygon fill="black" stroke="black" points="332.5,-211.69 336,-221.69 339.5,-211.69 332.5,-211.69"/>
<text text-anchor="middle" x="366.5" y="-192.8" font-family="Times,serif" font-size="14.00"> exploits</text>
</g>
<!-- 4_4_1_9_CLICKJACKING_countermeasure0 -->
<g id="node3" class="node">
<title>4_4_1_9_CLICKJACKING_countermeasure0</title>
<polygon fill="#fff2cc" stroke="#d6b656" points="378,-36 0,-36 0,0 378,0 378,-36"/>
<text text-anchor="start" x="132" y="-21.4" font-family="Arial" font-weight="bold" font-size="12.00">Countermeasure</text>
<text text-anchor="start" x="10" y="-9.4" font-family="Arial" font-size="12.00"> Link the state Parameter to User Agent Session (anti CSRF)</text>
</g>
<!-- 4_4_1_9_CLICKJACKING_countermeasure0&#45;&gt;4_4_1_9_CLICKJACKING_attack -->
<g id="edge2" class="edge">
<title>4_4_1_9_CLICKJACKING_countermeasure0&#45;&gt;4_4_1_9_CLICKJACKING_attack</title>
<path fill="none" stroke="black" d="M211.97,-36.03C228.22,-48.08 250.87,-64.87 272.36,-80.81"/>
<polygon fill="black" stroke="black" points="270.41,-83.72 280.53,-86.87 274.58,-78.1 270.41,-83.72"/>
<text text-anchor="middle" x="290.5" y="-57.8" font-family="Times,serif" font-size="14.00"> mitigates</text>
</g>
<!-- 4_4_1_9_CLICKJACKING_countermeasure1 -->
<g id="node4" class="node">
<title>4_4_1_9_CLICKJACKING_countermeasure1</title>
<polygon fill="#fff2cc" stroke="#d6b656" points="569.5,-36 396.5,-36 396.5,0 569.5,0 569.5,-36"/>
<text text-anchor="start" x="426.5" y="-21.4" font-family="Arial" font-weight="bold" font-size="12.00">Countermeasure</text>
<text text-anchor="start" x="407" y="-9.4" font-family="Arial" font-size="12.00"> JavaScript frame&#45;busting</text>
</g>
<!-- 4_4_1_9_CLICKJACKING_countermeasure1&#45;&gt;4_4_1_9_CLICKJACKING_attack -->
<g id="edge3" class="edge">
<title>4_4_1_9_CLICKJACKING_countermeasure1&#45;&gt;4_4_1_9_CLICKJACKING_attack</title>
<path fill="none" stroke="black" d="M460.03,-36.03C443.78,-48.08 421.13,-64.87 399.64,-80.81"/>
<polygon fill="black" stroke="black" points="397.42,-78.1 391.47,-86.87 401.59,-83.72 397.42,-78.1"/>
<text text-anchor="middle" x="471.5" y="-57.8" font-family="Times,serif" font-size="14.00"> mitigates</text>
</g>
</g>
</svg>
