<?xml version="1.0" encoding="UTF-8" standalone="no"?>
<!DOCTYPE svg PUBLIC "-//W3C//DTD SVG 1.1//EN"
 "http://www.w3.org/Graphics/SVG/1.1/DTD/svg11.dtd">
<!-- Generated by graphviz version 2.43.0 (0)
 -->
<!-- Title: G Pages: 1 -->
<svg width="830pt" height="291pt"
 viewBox="0.00 0.00 829.50 291.00" xmlns="http://www.w3.org/2000/svg" xmlns:xlink="http://www.w3.org/1999/xlink">
<g id="graph0" class="graph" transform="scale(1 1) rotate(0) translate(4 287)">
<title>G</title>
<polygon fill="white" stroke="transparent" points="-4,4 -4,-287 825.5,-287 825.5,4 -4,4"/>
<!-- 4_4_2_4_MANIPULATION_SCRIPTS -->
<g id="node1" class="node">
<title>4_4_2_4_MANIPULATION_SCRIPTS</title>
<polygon fill="#f8cecc" stroke="#b85450" points="477,-283 252,-283 252,-210 477,-210 477,-283"/>
<text text-anchor="start" x="342" y="-267.9" font-family="Arial" font-weight="bold" font-size="12.00">Threat</text>
<text text-anchor="start" x="294.5" y="-255.9" font-family="Arial" font-size="12.00"> Manipulation of Scripts</text>
<g id="a_node1_0"><a xlink:href="#OAuth2.CONFIDENTIALITY" xlink:title="&lt;TABLE&gt;">
<polygon fill="#eeeeee" stroke="transparent" points="270.5,-223.5 270.5,-240.5 383.5,-240.5 383.5,-223.5 270.5,-223.5"/>
<text text-anchor="start" x="272.5" y="-228.9" font-family="Arial" font-size="12.00" fill="blue">CONFIDENTIALITY</text>
</a>
</g>
<g id="a_node1_1"><a xlink:href="#OAuth2.INTEGRITY" xlink:title="&lt;TABLE&gt;">
<polygon fill="#eeeeee" stroke="transparent" points="391.5,-223.5 391.5,-240.5 459.5,-240.5 459.5,-223.5 391.5,-223.5"/>
<text text-anchor="start" x="393.5" y="-228.9" font-family="Arial" font-size="12.00" fill="blue">INTEGRITY</text>
</a>
</g>
</g>
<!-- 4_4_2_4_MANIPULATION_SCRIPTS_attack -->
<g id="node2" class="node">
<title>4_4_2_4_MANIPULATION_SCRIPTS_attack</title>
<polygon fill="#f5f5f5" stroke="#666666" points="615.5,-159 113.5,-159 113.5,-87 615.5,-87 615.5,-159"/>
<text text-anchor="start" x="342" y="-144.4" font-family="Arial" font-weight="bold" font-size="12.00">Attack</text>
<text text-anchor="start" x="139" y="-132.4" font-family="Arial" font-size="12.00">A hostile party could act as the client web server and replace or modify the</text>
<text text-anchor="start" x="132" y="-120.4" font-family="Arial" font-size="12.00">actual implementation of the client (script). This could be achieved using DNS</text>
<text text-anchor="start" x="123.5" y="-108.4" font-family="Arial" font-size="12.00">or ARP spoofing. This applies to clients implemented within the web browser in a</text>
<text text-anchor="start" x="307" y="-96.4" font-family="Arial" font-size="12.00">scripting language.</text>
</g>
<!-- 4_4_2_4_MANIPULATION_SCRIPTS_attack&#45;&gt;4_4_2_4_MANIPULATION_SCRIPTS -->
<g id="edge1" class="edge">
<title>4_4_2_4_MANIPULATION_SCRIPTS_attack&#45;&gt;4_4_2_4_MANIPULATION_SCRIPTS</title>
<path fill="none" stroke="black" d="M364.5,-159.14C364.5,-171.76 364.5,-186.19 364.5,-199.59"/>
<polygon fill="black" stroke="black" points="361,-199.59 364.5,-209.59 368,-199.59 361,-199.59"/>
<text text-anchor="middle" x="395" y="-180.8" font-family="Times,serif" font-size="14.00"> exploits</text>
</g>
<!-- 4_4_2_4_MANIPULATION_SCRIPTS_countermeasure0 -->
<g id="node3" class="node">
<title>4_4_2_4_MANIPULATION_SCRIPTS_countermeasure0</title>
<polygon fill="#d5e8d4" stroke="#82b366" points="215,-36 0,-36 0,0 215,0 215,-36"/>
<text text-anchor="start" x="51" y="-21.4" font-family="Arial" font-weight="bold" font-size="12.00">Countermeasure</text>
<text text-anchor="start" x="10.5" y="-9.4" font-family="Arial" font-size="12.00"> TLS for the authorization server</text>
</g>
<!-- 4_4_2_4_MANIPULATION_SCRIPTS_countermeasure0&#45;&gt;4_4_2_4_MANIPULATION_SCRIPTS_attack -->
<g id="edge2" class="edge">
<title>4_4_2_4_MANIPULATION_SCRIPTS_countermeasure0&#45;&gt;4_4_2_4_MANIPULATION_SCRIPTS_attack</title>
<path fill="none" stroke="black" d="M149.94,-36.01C181.88,-48.81 226.95,-66.87 267.55,-83.14"/>
<polygon fill="black" stroke="black" points="266.36,-86.44 276.95,-86.91 268.96,-79.94 266.36,-86.44"/>
<text text-anchor="middle" x="265" y="-57.8" font-family="Times,serif" font-size="14.00"> mitigates</text>
</g>
<!-- 4_4_2_4_MANIPULATION_SCRIPTS_countermeasure1 -->
<g id="node4" class="node">
<title>4_4_2_4_MANIPULATION_SCRIPTS_countermeasure1</title>
<polygon fill="#d5e8d4" stroke="#82b366" points="495.5,-36 233.5,-36 233.5,0 495.5,0 495.5,-36"/>
<text text-anchor="start" x="307.5" y="-21.4" font-family="Arial" font-weight="bold" font-size="12.00">Countermeasure</text>
<text text-anchor="start" x="243.5" y="-9.4" font-family="Arial" font-size="12.00"> Ensure Confidentiality of Requests (TLS)</text>
</g>
<!-- 4_4_2_4_MANIPULATION_SCRIPTS_countermeasure1&#45;&gt;4_4_2_4_MANIPULATION_SCRIPTS_attack -->
<g id="edge3" class="edge">
<title>4_4_2_4_MANIPULATION_SCRIPTS_countermeasure1&#45;&gt;4_4_2_4_MANIPULATION_SCRIPTS_attack</title>
<path fill="none" stroke="black" d="M364.5,-36.01C364.5,-47.04 364.5,-61.99 364.5,-76.32"/>
<polygon fill="black" stroke="black" points="361,-76.59 364.5,-86.59 368,-76.59 361,-76.59"/>
<text text-anchor="middle" x="401" y="-57.8" font-family="Times,serif" font-size="14.00"> mitigates</text>
</g>
<!-- 4_4_2_4_MANIPULATION_SCRIPTS_countermeasure2 -->
<g id="node5" class="node">
<title>4_4_2_4_MANIPULATION_SCRIPTS_countermeasure2</title>
<polygon fill="#fff2cc" stroke="#d6b656" points="821.5,-36 513.5,-36 513.5,0 821.5,0 821.5,-36"/>
<text text-anchor="start" x="610.5" y="-21.4" font-family="Arial" font-weight="bold" font-size="12.00">Countermeasure</text>
<text text-anchor="start" x="523.5" y="-9.4" font-family="Arial" font-size="12.00"> One&#45;time, per&#45;use secrets (e.g., &quot;client_secret&quot;)</text>
</g>
<!-- 4_4_2_4_MANIPULATION_SCRIPTS_countermeasure2&#45;&gt;4_4_2_4_MANIPULATION_SCRIPTS_attack -->
<g id="edge4" class="edge">
<title>4_4_2_4_MANIPULATION_SCRIPTS_countermeasure2&#45;&gt;4_4_2_4_MANIPULATION_SCRIPTS_attack</title>
<path fill="none" stroke="black" d="M617.47,-36.01C579.41,-48.94 525.55,-67.26 477.3,-83.66"/>
<polygon fill="black" stroke="black" points="476.07,-80.38 467.73,-86.91 478.32,-87.01 476.07,-80.38"/>
<text text-anchor="middle" x="597" y="-57.8" font-family="Times,serif" font-size="14.00"> mitigates</text>
</g>
</g>
</svg>
