<?xml version="1.0" encoding="UTF-8" standalone="no"?>
<!DOCTYPE svg PUBLIC "-//W3C//DTD SVG 1.1//EN"
 "http://www.w3.org/Graphics/SVG/1.1/DTD/svg11.dtd">
<!-- Generated by graphviz version 2.43.0 (0)
 -->
<!-- Title: G Pages: 1 -->
<svg width="489pt" height="315pt"
 viewBox="0.00 0.00 489.00 315.00" xmlns="http://www.w3.org/2000/svg" xmlns:xlink="http://www.w3.org/1999/xlink">
<g id="graph0" class="graph" transform="scale(1 1) rotate(0) translate(4 311)">
<title>G</title>
<polygon fill="white" stroke="transparent" points="-4,4 -4,-311 485,-311 485,4 -4,4"/>
<!-- 4_4_2_6_TOKEN_SUBSTITUTION -->
<g id="node1" class="node">
<title>4_4_2_6_TOKEN_SUBSTITUTION</title>
<polygon fill="#f8cecc" stroke="#b85450" points="459.5,-307 21.5,-307 21.5,-222 459.5,-222 459.5,-307"/>
<text text-anchor="start" x="217.5" y="-291.9" font-family="Arial" font-weight="bold" font-size="12.00">Threat</text>
<text text-anchor="start" x="31.5" y="-279.9" font-family="Arial" font-size="12.00"> Spoofing, Elevation of privileges, Information Disclosure in: credential</text>
<text text-anchor="start" x="181.5" y="-267.9" font-family="Arial" font-size="12.00">Authorization Grant</text>
<g id="a_node1_0"><a xlink:href="#OAuth2.CONFIDENTIALITY" xlink:title="&lt;TABLE&gt;">
<polygon fill="#eeeeee" stroke="transparent" points="39.5,-235.5 39.5,-252.5 259.5,-252.5 259.5,-235.5 39.5,-235.5"/>
<text text-anchor="start" x="95" y="-240.9" font-family="Arial" font-size="12.00" fill="blue">CONFIDENTIALITY</text>
</a>
</g>
<g id="a_node1_1"><a xlink:href="#OAuth2.INTEGRITY" xlink:title="&lt;TABLE&gt;">
<polygon fill="#eeeeee" stroke="transparent" points="267.5,-235.5 267.5,-252.5 441.5,-252.5 441.5,-235.5 267.5,-235.5"/>
<text text-anchor="start" x="322.5" y="-240.9" font-family="Arial" font-size="12.00" fill="blue">INTEGRITY</text>
</a>
</g>
</g>
<!-- 4_4_2_6_TOKEN_SUBSTITUTION_attack -->
<g id="node2" class="node">
<title>4_4_2_6_TOKEN_SUBSTITUTION_attack</title>
<polygon fill="#f5f5f5" stroke="#666666" points="481,-171 0,-171 0,-87 481,-87 481,-171"/>
<text text-anchor="start" x="218.5" y="-156.4" font-family="Arial" font-weight="bold" font-size="12.00">Attack</text>
<text text-anchor="start" x="28" y="-144.4" font-family="Arial" font-size="12.00">An attacker could attempt to log into an application or web site using a</text>
<text text-anchor="start" x="18" y="-132.4" font-family="Arial" font-size="12.00">victim’s identity. Applications relying on identity data provided by an OAuth</text>
<text text-anchor="start" x="10.5" y="-120.4" font-family="Arial" font-size="12.00">protected service API to login users are vulnerable to this threat. This pattern</text>
<text text-anchor="start" x="39.5" y="-108.4" font-family="Arial" font-size="12.00">can be found in so&#45;called &quot;social login&quot; scenarios. As a prerequisite,</text>
<text text-anchor="start" x="216" y="-96.4" font-family="Arial" font-size="12.00">a res[...]</text>
</g>
<!-- 4_4_2_6_TOKEN_SUBSTITUTION_attack&#45;&gt;4_4_2_6_TOKEN_SUBSTITUTION -->
<g id="edge1" class="edge">
<title>4_4_2_6_TOKEN_SUBSTITUTION_attack&#45;&gt;4_4_2_6_TOKEN_SUBSTITUTION</title>
<path fill="none" stroke="black" d="M240.5,-171.14C240.5,-183.96 240.5,-198.27 240.5,-211.72"/>
<polygon fill="black" stroke="black" points="237,-211.8 240.5,-221.8 244,-211.8 237,-211.8"/>
<text text-anchor="middle" x="271" y="-192.8" font-family="Times,serif" font-size="14.00"> exploits</text>
</g>
<!-- 4_4_2_6_TOKEN_SUBSTITUTION_countermeasure0 -->
<g id="node3" class="node">
<title>4_4_2_6_TOKEN_SUBSTITUTION_countermeasure0</title>
<polygon fill="#fff2cc" stroke="#d6b656" points="333,-36 148,-36 148,0 333,0 333,-36"/>
<text text-anchor="start" x="184" y="-21.4" font-family="Arial" font-weight="bold" font-size="12.00">Countermeasure</text>
<text text-anchor="start" x="158.5" y="-9.4" font-family="Arial" font-size="12.00"> Secure User Login Protocol</text>
</g>
<!-- 4_4_2_6_TOKEN_SUBSTITUTION_countermeasure0&#45;&gt;4_4_2_6_TOKEN_SUBSTITUTION_attack -->
<g id="edge2" class="edge">
<title>4_4_2_6_TOKEN_SUBSTITUTION_countermeasure0&#45;&gt;4_4_2_6_TOKEN_SUBSTITUTION_attack</title>
<path fill="none" stroke="black" d="M240.5,-36.03C240.5,-47.03 240.5,-61.96 240.5,-76.6"/>
<polygon fill="black" stroke="black" points="237,-76.64 240.5,-86.64 244,-76.64 237,-76.64"/>
<text text-anchor="middle" x="277" y="-57.8" font-family="Times,serif" font-size="14.00"> mitigates</text>
</g>
</g>
</svg>
