<?xml version="1.0" encoding="UTF-8" standalone="no"?>
<!DOCTYPE svg PUBLIC "-//W3C//DTD SVG 1.1//EN"
 "http://www.w3.org/Graphics/SVG/1.1/DTD/svg11.dtd">
<!-- Generated by graphviz version 2.43.0 (0)
 -->
<!-- Title: G Pages: 1 -->
<svg width="532pt" height="291pt"
 viewBox="0.00 0.00 531.50 291.00" xmlns="http://www.w3.org/2000/svg" xmlns:xlink="http://www.w3.org/1999/xlink">
<g id="graph0" class="graph" transform="scale(1 1) rotate(0) translate(4 287)">
<title>G</title>
<polygon fill="white" stroke="transparent" points="-4,4 -4,-287 527.5,-287 527.5,4 -4,4"/>
<!-- 4_4_1_5_CLIENT_SPOOFING2 -->
<g id="node1" class="node">
<title>4_4_1_5_CLIENT_SPOOFING2</title>
<polygon fill="#f8cecc" stroke="#b85450" points="421,-283 64,-283 64,-210 421,-210 421,-283"/>
<text text-anchor="start" x="220" y="-267.9" font-family="Arial" font-weight="bold" font-size="12.00">Threat</text>
<text text-anchor="start" x="74.5" y="-255.9" font-family="Arial" font-size="12.00"> Spoofing, Elevation of privileges, Information Disclosure</text>
<g id="a_node1_0"><a xlink:href="#OAuth2.CONFIDENTIALITY" xlink:title="&lt;TABLE&gt;">
<polygon fill="#eeeeee" stroke="transparent" points="82.5,-223.5 82.5,-240.5 261.5,-240.5 261.5,-223.5 82.5,-223.5"/>
<text text-anchor="start" x="117.5" y="-228.9" font-family="Arial" font-size="12.00" fill="blue">CONFIDENTIALITY</text>
</a>
</g>
<g id="a_node1_1"><a xlink:href="#OAuth2.INTEGRITY" xlink:title="&lt;TABLE&gt;">
<polygon fill="#eeeeee" stroke="transparent" points="269.5,-223.5 269.5,-240.5 403.5,-240.5 403.5,-223.5 269.5,-223.5"/>
<text text-anchor="start" x="304.5" y="-228.9" font-family="Arial" font-size="12.00" fill="blue">INTEGRITY</text>
</a>
</g>
</g>
<!-- 4_4_1_5_CLIENT_SPOOFING2_attack -->
<g id="node2" class="node">
<title>4_4_1_5_CLIENT_SPOOFING2_attack</title>
<polygon fill="#f5f5f5" stroke="#666666" points="466.5,-159 18.5,-159 18.5,-87 466.5,-87 466.5,-159"/>
<text text-anchor="start" x="220" y="-144.4" font-family="Arial" font-weight="bold" font-size="12.00">Attack</text>
<text text-anchor="start" x="33" y="-132.4" font-family="Arial" font-size="12.00">A hostile party could impersonate the client site and get access to the</text>
<text text-anchor="start" x="54.5" y="-120.4" font-family="Arial" font-size="12.00">authorization &quot;code&quot;. This could be achieved using DNS or ARP</text>
<text text-anchor="start" x="35" y="-108.4" font-family="Arial" font-size="12.00">spoofing. This applies to clients, which are web applications; thus, the</text>
<text text-anchor="start" x="28.5" y="-96.4" font-family="Arial" font-size="12.00">redirect URI is not local to the host where the user’s browser is running.</text>
</g>
<!-- 4_4_1_5_CLIENT_SPOOFING2_attack&#45;&gt;4_4_1_5_CLIENT_SPOOFING2 -->
<g id="edge1" class="edge">
<title>4_4_1_5_CLIENT_SPOOFING2_attack&#45;&gt;4_4_1_5_CLIENT_SPOOFING2</title>
<path fill="none" stroke="black" d="M242.5,-159.14C242.5,-171.76 242.5,-186.19 242.5,-199.59"/>
<polygon fill="black" stroke="black" points="239,-199.59 242.5,-209.59 246,-199.59 239,-199.59"/>
<text text-anchor="middle" x="273" y="-180.8" font-family="Times,serif" font-size="14.00"> exploits</text>
</g>
<!-- 4_4_1_5_CLIENT_SPOOFING2_countermeasure0 -->
<g id="node3" class="node">
<title>4_4_1_5_CLIENT_SPOOFING2_countermeasure0</title>
<polygon fill="#d5e8d4" stroke="#82b366" points="215,-36 0,-36 0,0 215,0 215,-36"/>
<text text-anchor="start" x="51" y="-21.4" font-family="Arial" font-weight="bold" font-size="12.00">Countermeasure</text>
<text text-anchor="start" x="10.5" y="-9.4" font-family="Arial" font-size="12.00"> TLS for the authorization server</text>
</g>
<!-- 4_4_1_5_CLIENT_SPOOFING2_countermeasure0&#45;&gt;4_4_1_5_CLIENT_SPOOFING2_attack -->
<g id="edge2" class="edge">
<title>4_4_1_5_CLIENT_SPOOFING2_countermeasure0&#45;&gt;4_4_1_5_CLIENT_SPOOFING2_attack</title>
<path fill="none" stroke="black" d="M129.79,-36.01C145.73,-48.17 167.88,-65.07 188.33,-80.67"/>
<polygon fill="black" stroke="black" points="186.29,-83.52 196.37,-86.8 190.54,-77.95 186.29,-83.52"/>
<text text-anchor="middle" x="208" y="-57.8" font-family="Times,serif" font-size="14.00"> mitigates</text>
</g>
<!-- 4_4_1_5_CLIENT_SPOOFING2_countermeasure1 -->
<g id="node4" class="node">
<title>4_4_1_5_CLIENT_SPOOFING2_countermeasure1</title>
<polygon fill="#d5e8d4" stroke="#82b366" points="523.5,-36 233.5,-36 233.5,0 523.5,0 523.5,-36"/>
<text text-anchor="start" x="321.5" y="-21.4" font-family="Arial" font-weight="bold" font-size="12.00">Countermeasure</text>
<text text-anchor="start" x="243.5" y="-9.4" font-family="Arial" font-size="12.00"> Binding of Authorization &quot;code&quot; to &quot;client_id&quot;</text>
</g>
<!-- 4_4_1_5_CLIENT_SPOOFING2_countermeasure1&#45;&gt;4_4_1_5_CLIENT_SPOOFING2_attack -->
<g id="edge3" class="edge">
<title>4_4_1_5_CLIENT_SPOOFING2_countermeasure1&#45;&gt;4_4_1_5_CLIENT_SPOOFING2_attack</title>
<path fill="none" stroke="black" d="M356.04,-36.01C339.99,-48.17 317.67,-65.07 297.07,-80.67"/>
<polygon fill="black" stroke="black" points="294.83,-77.98 288.97,-86.8 299.06,-83.56 294.83,-77.98"/>
<text text-anchor="middle" x="367" y="-57.8" font-family="Times,serif" font-size="14.00"> mitigates</text>
</g>
</g>
</svg>
