<?xml version="1.0" encoding="UTF-8" standalone="no"?>
<!DOCTYPE svg PUBLIC "-//W3C//DTD SVG 1.1//EN"
 "http://www.w3.org/Graphics/SVG/1.1/DTD/svg11.dtd">
<!-- Generated by graphviz version 2.43.0 (0)
 -->
<!-- Title: G Pages: 1 -->
<svg width="965pt" height="303pt"
 viewBox="0.00 0.00 965.00 303.00" xmlns="http://www.w3.org/2000/svg" xmlns:xlink="http://www.w3.org/1999/xlink">
<g id="graph0" class="graph" transform="scale(1 1) rotate(0) translate(4 299)">
<title>G</title>
<polygon fill="white" stroke="transparent" points="-4,4 -4,-299 961,-299 961,4 -4,4"/>
<!-- 4_4_1_2_AUTH_CODE_DISCLOSURE_DB -->
<g id="node1" class="node">
<title>4_4_1_2_AUTH_CODE_DISCLOSURE_DB</title>
<polygon fill="#f8cecc" stroke="#b85450" points="677,-295 222,-295 222,-210 677,-210 677,-295"/>
<text text-anchor="start" x="427" y="-279.9" font-family="Arial" font-weight="bold" font-size="12.00">Threat</text>
<text text-anchor="start" x="232.5" y="-267.9" font-family="Arial" font-size="12.00"> Spoofing, Elevation of privileges, Information Disclosure in Authorization</text>
<text text-anchor="start" x="430.5" y="-255.9" font-family="Arial" font-size="12.00">server</text>
<g id="a_node1_0"><a xlink:href="#OAuth2.CONFIDENTIALITY" xlink:title="&lt;TABLE&gt;">
<polygon fill="#eeeeee" stroke="transparent" points="240.5,-223.5 240.5,-240.5 468.5,-240.5 468.5,-223.5 240.5,-223.5"/>
<text text-anchor="start" x="300" y="-228.9" font-family="Arial" font-size="12.00" fill="blue">CONFIDENTIALITY</text>
</a>
</g>
<g id="a_node1_1"><a xlink:href="#OAuth2.INTEGRITY" xlink:title="&lt;TABLE&gt;">
<polygon fill="#eeeeee" stroke="transparent" points="476.5,-223.5 476.5,-240.5 659.5,-240.5 659.5,-223.5 476.5,-223.5"/>
<text text-anchor="start" x="536" y="-228.9" font-family="Arial" font-size="12.00" fill="blue">INTEGRITY</text>
</a>
</g>
</g>
<!-- 4_4_1_2_AUTH_CODE_DISCLOSURE_DB_attack -->
<g id="node2" class="node">
<title>4_4_1_2_AUTH_CODE_DISCLOSURE_DB_attack</title>
<polygon fill="#f5f5f5" stroke="#666666" points="673,-159 226,-159 226,-87 673,-87 673,-159"/>
<text text-anchor="start" x="427.5" y="-144.4" font-family="Arial" font-weight="bold" font-size="12.00">Attack</text>
<text text-anchor="start" x="236.5" y="-132.4" font-family="Arial" font-size="12.00">This threat is applicable if the authorization server stores &#160;authorization</text>
<text text-anchor="start" x="274.5" y="-120.4" font-family="Arial" font-size="12.00">&quot;codes&quot; as handles in a database. An attacker may &#160;obtain</text>
<text text-anchor="start" x="250" y="-108.4" font-family="Arial" font-size="12.00">authorization &quot;codes&quot; from the authorization server’s database &#160;by</text>
<text text-anchor="start" x="247" y="-96.4" font-family="Arial" font-size="12.00">gaining access to the database or launching a SQL injection &#160;attack.</text>
</g>
<!-- 4_4_1_2_AUTH_CODE_DISCLOSURE_DB_attack&#45;&gt;4_4_1_2_AUTH_CODE_DISCLOSURE_DB -->
<g id="edge1" class="edge">
<title>4_4_1_2_AUTH_CODE_DISCLOSURE_DB_attack&#45;&gt;4_4_1_2_AUTH_CODE_DISCLOSURE_DB</title>
<path fill="none" stroke="black" d="M449.5,-159.18C449.5,-171.63 449.5,-185.92 449.5,-199.47"/>
<polygon fill="black" stroke="black" points="446,-199.65 449.5,-209.65 453,-199.65 446,-199.65"/>
<text text-anchor="middle" x="480" y="-180.8" font-family="Times,serif" font-size="14.00"> exploits</text>
</g>
<!-- 4_4_1_2_AUTH_CODE_DISCLOSURE_DB_countermeasure0 -->
<g id="node3" class="node">
<title>4_4_1_2_AUTH_CODE_DISCLOSURE_DB_countermeasure0</title>
<polygon fill="#fff2cc" stroke="#d6b656" points="271,-36 0,-36 0,0 271,0 271,-36"/>
<text text-anchor="start" x="79" y="-21.4" font-family="Arial" font-weight="bold" font-size="12.00">Countermeasure</text>
<text text-anchor="start" x="10.5" y="-9.4" font-family="Arial" font-size="12.00"> Enforce Standard System Security Means</text>
</g>
<!-- 4_4_1_2_AUTH_CODE_DISCLOSURE_DB_countermeasure0&#45;&gt;4_4_1_2_AUTH_CODE_DISCLOSURE_DB_attack -->
<g id="edge2" class="edge">
<title>4_4_1_2_AUTH_CODE_DISCLOSURE_DB_countermeasure0&#45;&gt;4_4_1_2_AUTH_CODE_DISCLOSURE_DB_attack</title>
<path fill="none" stroke="black" d="M187.35,-36.01C226.87,-48.97 282.84,-67.33 332.92,-83.76"/>
<polygon fill="black" stroke="black" points="331.93,-87.12 342.53,-86.91 334.12,-80.47 331.93,-87.12"/>
<text text-anchor="middle" x="320" y="-57.8" font-family="Times,serif" font-size="14.00"> mitigates</text>
</g>
<!-- 4_4_1_2_AUTH_CODE_DISCLOSURE_DB_countermeasure1 -->
<g id="node4" class="node">
<title>4_4_1_2_AUTH_CODE_DISCLOSURE_DB_countermeasure1</title>
<polygon fill="#fff2cc" stroke="#d6b656" points="609.5,-36 289.5,-36 289.5,0 609.5,0 609.5,-36"/>
<text text-anchor="start" x="392.5" y="-21.4" font-family="Arial" font-weight="bold" font-size="12.00">Countermeasure</text>
<text text-anchor="start" x="299.5" y="-9.4" font-family="Arial" font-size="12.00"> Enforce Standard SQL Injection Countermeasures</text>
</g>
<!-- 4_4_1_2_AUTH_CODE_DISCLOSURE_DB_countermeasure1&#45;&gt;4_4_1_2_AUTH_CODE_DISCLOSURE_DB_attack -->
<g id="edge3" class="edge">
<title>4_4_1_2_AUTH_CODE_DISCLOSURE_DB_countermeasure1&#45;&gt;4_4_1_2_AUTH_CODE_DISCLOSURE_DB_attack</title>
<path fill="none" stroke="black" d="M449.5,-36.01C449.5,-47.04 449.5,-61.99 449.5,-76.32"/>
<polygon fill="black" stroke="black" points="446,-76.59 449.5,-86.59 453,-76.59 446,-76.59"/>
<text text-anchor="middle" x="486" y="-57.8" font-family="Times,serif" font-size="14.00"> mitigates</text>
</g>
<!-- 4_4_1_2_AUTH_CODE_DISCLOSURE_DB_countermeasure2 -->
<g id="node5" class="node">
<title>4_4_1_2_AUTH_CODE_DISCLOSURE_DB_countermeasure2</title>
<polygon fill="#d5e8d4" stroke="#82b366" points="957,-36 628,-36 628,0 957,0 957,-36"/>
<text text-anchor="start" x="736" y="-21.4" font-family="Arial" font-weight="bold" font-size="12.00">Countermeasure</text>
<text text-anchor="start" x="638.5" y="-9.4" font-family="Arial" font-size="12.00"> Store access token hashes only (Section 5.1.4.1.3).</text>
</g>
<!-- 4_4_1_2_AUTH_CODE_DISCLOSURE_DB_countermeasure2&#45;&gt;4_4_1_2_AUTH_CODE_DISCLOSURE_DB_attack -->
<g id="edge4" class="edge">
<title>4_4_1_2_AUTH_CODE_DISCLOSURE_DB_countermeasure2&#45;&gt;4_4_1_2_AUTH_CODE_DISCLOSURE_DB_attack</title>
<path fill="none" stroke="black" d="M735.86,-36.01C692.51,-49.03 631.04,-67.48 576.16,-83.96"/>
<polygon fill="black" stroke="black" points="574.92,-80.68 566.35,-86.91 576.94,-87.39 574.92,-80.68"/>
<text text-anchor="middle" x="708" y="-57.8" font-family="Times,serif" font-size="14.00"> mitigates</text>
</g>
</g>
</svg>
