<?xml version="1.0" encoding="UTF-8" standalone="no"?>
<!DOCTYPE svg PUBLIC "-//W3C//DTD SVG 1.1//EN"
 "http://www.w3.org/Graphics/SVG/1.1/DTD/svg11.dtd">
<!-- Generated by graphviz version 2.43.0 (0)
 -->
<!-- Title: G Pages: 1 -->
<svg width="1516pt" height="291pt"
 viewBox="0.00 0.00 1516.00 291.00" xmlns="http://www.w3.org/2000/svg" xmlns:xlink="http://www.w3.org/1999/xlink">
<g id="graph0" class="graph" transform="scale(1 1) rotate(0) translate(4 287)">
<title>G</title>
<polygon fill="white" stroke="transparent" points="-4,4 -4,-287 1512,-287 1512,4 -4,4"/>
<!-- Client_Secrets_disclosure -->
<g id="node1" class="node">
<title>Client_Secrets_disclosure</title>
<polygon fill="#f8cecc" stroke="#b85450" points="927.5,-283 640.5,-283 640.5,-210 927.5,-210 927.5,-283"/>
<text text-anchor="start" x="761.5" y="-267.9" font-family="Arial" font-weight="bold" font-size="12.00">Threat</text>
<text text-anchor="start" x="651" y="-255.9" font-family="Arial" font-size="12.00"> Client Secrets Disclosure and impersonation</text>
<g id="a_node1_0"><a xlink:href="#OAuth2.CONFIDENTIALITY" xlink:title="&lt;TABLE&gt;">
<polygon fill="#eeeeee" stroke="transparent" points="659,-223.5 659,-240.5 803,-240.5 803,-223.5 659,-223.5"/>
<text text-anchor="start" x="676.5" y="-228.9" font-family="Arial" font-size="12.00" fill="blue">CONFIDENTIALITY</text>
</a>
</g>
<g id="a_node1_1"><a xlink:href="#OAuth2.INTEGRITY" xlink:title="&lt;TABLE&gt;">
<polygon fill="#eeeeee" stroke="transparent" points="811,-223.5 811,-240.5 910,-240.5 910,-223.5 811,-223.5"/>
<text text-anchor="start" x="828.5" y="-228.9" font-family="Arial" font-size="12.00" fill="blue">INTEGRITY</text>
</a>
</g>
</g>
<!-- Client_Secrets_disclosure_attack -->
<g id="node2" class="node">
<title>Client_Secrets_disclosure_attack</title>
<polygon fill="#f5f5f5" stroke="#666666" points="1031.5,-159 536.5,-159 536.5,-87 1031.5,-87 1031.5,-159"/>
<text text-anchor="start" x="762" y="-144.4" font-family="Arial" font-weight="bold" font-size="12.00">Attack</text>
<text text-anchor="start" x="562" y="-132.4" font-family="Arial" font-size="12.00">Obtain Secret From Source Code or Binary: This applies for all client types.</text>
<text text-anchor="start" x="547" y="-120.4" font-family="Arial" font-size="12.00">For open source projects, secrets can be extracted directly from source code in</text>
<text text-anchor="start" x="557.5" y="-108.4" font-family="Arial" font-size="12.00">their public repositories. &#160;Secrets can be extracted from application binaries</text>
<text text-anchor="start" x="568" y="-96.4" font-family="Arial" font-size="12.00">just as easily when the published source is not available to the attack[...]</text>
</g>
<!-- Client_Secrets_disclosure_attack&#45;&gt;Client_Secrets_disclosure -->
<g id="edge1" class="edge">
<title>Client_Secrets_disclosure_attack&#45;&gt;Client_Secrets_disclosure</title>
<path fill="none" stroke="black" d="M784,-159.14C784,-171.76 784,-186.19 784,-199.59"/>
<polygon fill="black" stroke="black" points="780.5,-199.59 784,-209.59 787.5,-199.59 780.5,-199.59"/>
<text text-anchor="middle" x="814.5" y="-180.8" font-family="Times,serif" font-size="14.00"> exploits</text>
</g>
<!-- Client_Secrets_disclosure_countermeasure0 -->
<g id="node3" class="node">
<title>Client_Secrets_disclosure_countermeasure0</title>
<polygon fill="#d5e8d4" stroke="#82b366" points="220,-36 0,-36 0,0 220,0 220,-36"/>
<text text-anchor="start" x="53" y="-21.4" font-family="Arial" font-weight="bold" font-size="12.00">Countermeasure</text>
<text text-anchor="start" x="10" y="-9.4" font-family="Arial" font-size="12.00"> Checks on client&#39;s security policy</text>
</g>
<!-- Client_Secrets_disclosure_countermeasure0&#45;&gt;Client_Secrets_disclosure_attack -->
<g id="edge2" class="edge">
<title>Client_Secrets_disclosure_countermeasure0&#45;&gt;Client_Secrets_disclosure_attack</title>
<path fill="none" stroke="black" d="M220.17,-35.84C307.93,-49.25 434.02,-68.52 544.71,-85.43"/>
<polygon fill="black" stroke="black" points="544.27,-88.91 554.69,-86.96 545.33,-81.99 544.27,-88.91"/>
<text text-anchor="middle" x="463.5" y="-57.8" font-family="Times,serif" font-size="14.00"> mitigates</text>
</g>
<!-- Client_Secrets_disclosure_countermeasure1 -->
<g id="node4" class="node">
<title>Client_Secrets_disclosure_countermeasure1</title>
<polygon fill="#d5e8d4" stroke="#82b366" points="584,-36 238,-36 238,0 584,0 584,-36"/>
<text text-anchor="start" x="354" y="-21.4" font-family="Arial" font-weight="bold" font-size="12.00">Countermeasure</text>
<text text-anchor="start" x="248" y="-9.4" font-family="Arial" font-size="12.00"> Require User Consent for Public Clients without Secret</text>
</g>
<!-- Client_Secrets_disclosure_countermeasure1&#45;&gt;Client_Secrets_disclosure_attack -->
<g id="edge3" class="edge">
<title>Client_Secrets_disclosure_countermeasure1&#45;&gt;Client_Secrets_disclosure_attack</title>
<path fill="none" stroke="black" d="M472.59,-36.01C519.93,-49.08 587.13,-67.64 647,-84.17"/>
<polygon fill="black" stroke="black" points="646.36,-87.62 656.93,-86.91 648.22,-80.87 646.36,-87.62"/>
<text text-anchor="middle" x="623.5" y="-57.8" font-family="Times,serif" font-size="14.00"> mitigates</text>
</g>
<!-- Client_Secrets_disclosure_countermeasure2 -->
<g id="node5" class="node">
<title>Client_Secrets_disclosure_countermeasure2</title>
<polygon fill="#d5e8d4" stroke="#82b366" points="966,-36 602,-36 602,0 966,0 966,-36"/>
<text text-anchor="start" x="727" y="-21.4" font-family="Arial" font-weight="bold" font-size="12.00">Countermeasure</text>
<text text-anchor="start" x="612" y="-9.4" font-family="Arial" font-size="12.00"> Issue a &quot;client_id&quot; Only in Combination with &quot;redirect_uri&quot;</text>
</g>
<!-- Client_Secrets_disclosure_countermeasure2&#45;&gt;Client_Secrets_disclosure_attack -->
<g id="edge4" class="edge">
<title>Client_Secrets_disclosure_countermeasure2&#45;&gt;Client_Secrets_disclosure_attack</title>
<path fill="none" stroke="black" d="M784,-36.01C784,-47.04 784,-61.99 784,-76.32"/>
<polygon fill="black" stroke="black" points="780.5,-76.59 784,-86.59 787.5,-76.59 780.5,-76.59"/>
<text text-anchor="middle" x="820.5" y="-57.8" font-family="Times,serif" font-size="14.00"> mitigates</text>
</g>
<!-- Client_Secrets_disclosure_countermeasure3 -->
<g id="node6" class="node">
<title>Client_Secrets_disclosure_countermeasure3</title>
<polygon fill="#d5e8d4" stroke="#82b366" points="1245.5,-36 984.5,-36 984.5,0 1245.5,0 1245.5,-36"/>
<text text-anchor="start" x="1058.5" y="-21.4" font-family="Arial" font-weight="bold" font-size="12.00">Countermeasure</text>
<text text-anchor="start" x="995" y="-9.4" font-family="Arial" font-size="12.00"> Issue Installation&#45;Specific Client Secrets</text>
</g>
<!-- Client_Secrets_disclosure_countermeasure3&#45;&gt;Client_Secrets_disclosure_attack -->
<g id="edge5" class="edge">
<title>Client_Secrets_disclosure_countermeasure3&#45;&gt;Client_Secrets_disclosure_attack</title>
<path fill="none" stroke="black" d="M1060.34,-36.01C1018.6,-49 959.44,-67.41 906.56,-83.86"/>
<polygon fill="black" stroke="black" points="905.27,-80.6 896.77,-86.91 907.35,-87.28 905.27,-80.6"/>
<text text-anchor="middle" x="1035.5" y="-57.8" font-family="Times,serif" font-size="14.00"> mitigates</text>
</g>
<!-- Client_Secrets_disclosure_countermeasure4 -->
<g id="node7" class="node">
<title>Client_Secrets_disclosure_countermeasure4</title>
<polygon fill="#fff2cc" stroke="#d6b656" points="1508,-36 1264,-36 1264,0 1508,0 1508,-36"/>
<text text-anchor="start" x="1329" y="-21.4" font-family="Arial" font-weight="bold" font-size="12.00">Countermeasure</text>
<text text-anchor="start" x="1274" y="-9.4" font-family="Arial" font-size="12.00"> Validate Pre&#45;Registered &quot;redirect_uri&quot;</text>
</g>
<!-- Client_Secrets_disclosure_countermeasure4&#45;&gt;Client_Secrets_disclosure_attack -->
<g id="edge6" class="edge">
<title>Client_Secrets_disclosure_countermeasure4&#45;&gt;Client_Secrets_disclosure_attack</title>
<path fill="none" stroke="black" d="M1286.59,-36.01C1208.54,-49.36 1097.01,-68.44 998.84,-85.24"/>
<polygon fill="black" stroke="black" points="998.04,-81.83 988.78,-86.96 999.22,-88.73 998.04,-81.83"/>
<text text-anchor="middle" x="1210.5" y="-57.8" font-family="Times,serif" font-size="14.00"> mitigates</text>
</g>
</g>
</svg>
