<?xml version="1.0" encoding="UTF-8" standalone="no"?>
<!DOCTYPE svg PUBLIC "-//W3C//DTD SVG 1.1//EN"
 "http://www.w3.org/Graphics/SVG/1.1/DTD/svg11.dtd">
<!-- Generated by graphviz version 2.43.0 (0)
 -->
<!-- Title: G Pages: 1 -->
<svg width="502pt" height="278pt"
 viewBox="0.00 0.00 502.00 278.00" xmlns="http://www.w3.org/2000/svg" xmlns:xlink="http://www.w3.org/1999/xlink">
<g id="graph0" class="graph" transform="scale(1 1) rotate(0) translate(4 274)">
<title>G</title>
<polygon fill="white" stroke="transparent" points="-4,4 -4,-274 498,-274 498,4 -4,4"/>
<!-- OPEN_REDIRECTOR -->
<g id="node1" class="node">
<title>OPEN_REDIRECTOR</title>
<polygon fill="#f8cecc" stroke="#b85450" points="493,-270 1,-270 1,-222 493,-222 493,-270"/>
<text text-anchor="start" x="224" y="-255.4" font-family="Arial" font-weight="bold" font-size="12.00">Threat</text>
<text text-anchor="start" x="11" y="-243.4" font-family="Arial" font-size="12.00"> Spoofing, Information Disclosure in Auth User Agent Redirection, Authorization</text>
<text text-anchor="start" x="97" y="-231.4" font-family="Arial" font-size="12.00">server, Authorization endpoint for resource owner</text>
</g>
<!-- OPEN_REDIRECTOR_attack -->
<g id="node2" class="node">
<title>OPEN_REDIRECTOR_attack</title>
<polygon fill="#f5f5f5" stroke="#666666" points="494,-171 0,-171 0,-87 494,-87 494,-171"/>
<text text-anchor="start" x="224.5" y="-156.4" font-family="Arial" font-weight="bold" font-size="12.00">Attack</text>
<text text-anchor="start" x="10" y="-144.4" font-family="Arial" font-size="12.00">An attacker could use the end&#45;user authorization endpoint and the redirect URI</text>
<text text-anchor="start" x="19" y="-132.4" font-family="Arial" font-size="12.00">parameter to abuse the authorization server as an open redirector. An open</text>
<text text-anchor="start" x="20.5" y="-120.4" font-family="Arial" font-size="12.00">redirector is an endpoint using a parameter to automatically redirect a user</text>
<text text-anchor="start" x="46.5" y="-108.4" font-family="Arial" font-size="12.00">agent to the location specified by the parameter value without any</text>
<text text-anchor="start" x="207.5" y="-96.4" font-family="Arial" font-size="12.00">validation[...]</text>
</g>
<!-- OPEN_REDIRECTOR_attack&#45;&gt;OPEN_REDIRECTOR -->
<g id="edge1" class="edge">
<title>OPEN_REDIRECTOR_attack&#45;&gt;OPEN_REDIRECTOR</title>
<path fill="none" stroke="black" d="M247,-171.19C247,-184.49 247,-199.05 247,-211.7"/>
<polygon fill="black" stroke="black" points="243.5,-211.8 247,-221.8 250.5,-211.8 243.5,-211.8"/>
<text text-anchor="middle" x="277.5" y="-192.8" font-family="Times,serif" font-size="14.00"> exploits</text>
</g>
<!-- OPEN_REDIRECTOR_countermeasure0 -->
<g id="node3" class="node">
<title>OPEN_REDIRECTOR_countermeasure0</title>
<polygon fill="#d5e8d4" stroke="#82b366" points="338,-36 156,-36 156,0 338,0 338,-36"/>
<text text-anchor="start" x="190" y="-21.4" font-family="Arial" font-weight="bold" font-size="12.00">Countermeasure</text>
<text text-anchor="start" x="166" y="-9.4" font-family="Arial" font-size="12.00"> Pre&#45;registered redirect URI</text>
</g>
<!-- OPEN_REDIRECTOR_countermeasure0&#45;&gt;OPEN_REDIRECTOR_attack -->
<g id="edge2" class="edge">
<title>OPEN_REDIRECTOR_countermeasure0&#45;&gt;OPEN_REDIRECTOR_attack</title>
<path fill="none" stroke="black" d="M247,-36.03C247,-47.03 247,-61.96 247,-76.6"/>
<polygon fill="black" stroke="black" points="243.5,-76.64 247,-86.64 250.5,-76.64 243.5,-76.64"/>
<text text-anchor="middle" x="283.5" y="-57.8" font-family="Times,serif" font-size="14.00"> mitigates</text>
</g>
</g>
</svg>
