<?xml version="1.0" encoding="UTF-8" standalone="no"?>
<!DOCTYPE svg PUBLIC "-//W3C//DTD SVG 1.1//EN"
 "http://www.w3.org/Graphics/SVG/1.1/DTD/svg11.dtd">
<!-- Generated by graphviz version 2.43.0 (0)
 -->
<!-- Title: G Pages: 1 -->
<svg width="514pt" height="278pt"
 viewBox="0.00 0.00 514.00 278.00" xmlns="http://www.w3.org/2000/svg" xmlns:xlink="http://www.w3.org/1999/xlink">
<g id="graph0" class="graph" transform="scale(1 1) rotate(0) translate(4 274)">
<title>G</title>
<polygon fill="white" stroke="transparent" points="-4,4 -4,-274 510,-274 510,4 -4,4"/>
<!-- OPEN_REDIRECTOR -->
<g id="node1" class="node">
<title>OPEN_REDIRECTOR</title>
<polygon fill="#f8cecc" stroke="#b85450" points="506,-270 0,-270 0,-222 506,-222 506,-270"/>
<text text-anchor="start" x="230" y="-255.4" font-family="Arial" font-weight="bold" font-size="12.00">Threat</text>
<text text-anchor="start" x="29" y="-243.4" font-family="Arial" font-size="12.00"> Spoofing, Information Disclosure in: dataflow Auth User Agent Redirection,</text>
<text text-anchor="start" x="10" y="-231.4" font-family="Arial" font-size="12.00">system Authorization server, endpoint Authorization endpoint for resource owner</text>
</g>
<!-- OPEN_REDIRECTOR_attack -->
<g id="node2" class="node">
<title>OPEN_REDIRECTOR_attack</title>
<polygon fill="#f5f5f5" stroke="#666666" points="500,-171 6,-171 6,-87 500,-87 500,-171"/>
<text text-anchor="start" x="230.5" y="-156.4" font-family="Arial" font-weight="bold" font-size="12.00">Attack</text>
<text text-anchor="start" x="16" y="-144.4" font-family="Arial" font-size="12.00">An attacker could use the end&#45;user authorization endpoint and the redirect URI</text>
<text text-anchor="start" x="25" y="-132.4" font-family="Arial" font-size="12.00">parameter to abuse the authorization server as an open redirector. An open</text>
<text text-anchor="start" x="26.5" y="-120.4" font-family="Arial" font-size="12.00">redirector is an endpoint using a parameter to automatically redirect a user</text>
<text text-anchor="start" x="52.5" y="-108.4" font-family="Arial" font-size="12.00">agent to the location specified by the parameter value without any</text>
<text text-anchor="start" x="213.5" y="-96.4" font-family="Arial" font-size="12.00">validation[...]</text>
</g>
<!-- OPEN_REDIRECTOR_attack&#45;&gt;OPEN_REDIRECTOR -->
<g id="edge1" class="edge">
<title>OPEN_REDIRECTOR_attack&#45;&gt;OPEN_REDIRECTOR</title>
<path fill="none" stroke="black" d="M253,-171.19C253,-184.49 253,-199.05 253,-211.7"/>
<polygon fill="black" stroke="black" points="249.5,-211.8 253,-221.8 256.5,-211.8 249.5,-211.8"/>
<text text-anchor="middle" x="283.5" y="-192.8" font-family="Times,serif" font-size="14.00"> exploits</text>
</g>
<!-- OPEN_REDIRECTOR_countermeasure0 -->
<g id="node3" class="node">
<title>OPEN_REDIRECTOR_countermeasure0</title>
<polygon fill="#d5e8d4" stroke="#82b366" points="344,-36 162,-36 162,0 344,0 344,-36"/>
<text text-anchor="start" x="196" y="-21.4" font-family="Arial" font-weight="bold" font-size="12.00">Countermeasure</text>
<text text-anchor="start" x="172" y="-9.4" font-family="Arial" font-size="12.00"> Pre&#45;registered redirect URI</text>
</g>
<!-- OPEN_REDIRECTOR_countermeasure0&#45;&gt;OPEN_REDIRECTOR_attack -->
<g id="edge2" class="edge">
<title>OPEN_REDIRECTOR_countermeasure0&#45;&gt;OPEN_REDIRECTOR_attack</title>
<path fill="none" stroke="black" d="M253,-36.03C253,-47.03 253,-61.96 253,-76.6"/>
<polygon fill="black" stroke="black" points="249.5,-76.64 253,-86.64 256.5,-76.64 249.5,-76.64"/>
<text text-anchor="middle" x="289.5" y="-57.8" font-family="Times,serif" font-size="14.00"> mitigates</text>
</g>
</g>
</svg>
