<?xml version="1.0" encoding="UTF-8" standalone="no"?>
<!DOCTYPE svg PUBLIC "-//W3C//DTD SVG 1.1//EN"
 "http://www.w3.org/Graphics/SVG/1.1/DTD/svg11.dtd">
<!-- Generated by graphviz version 2.43.0 (0)
 -->
<!-- Title: G Pages: 1 -->
<svg width="684pt" height="291pt"
 viewBox="0.00 0.00 683.50 291.00" xmlns="http://www.w3.org/2000/svg" xmlns:xlink="http://www.w3.org/1999/xlink">
<g id="graph0" class="graph" transform="scale(1 1) rotate(0) translate(4 287)">
<title>G</title>
<polygon fill="white" stroke="transparent" points="-4,4 -4,-287 679.5,-287 679.5,4 -4,4"/>
<!-- PUBLIC_CLIENT_SPOOFING1 -->
<g id="node1" class="node">
<title>PUBLIC_CLIENT_SPOOFING1</title>
<polygon fill="#f8cecc" stroke="#b85450" points="441,-283 87,-283 87,-210 441,-210 441,-283"/>
<text text-anchor="start" x="241" y="-267.9" font-family="Arial" font-weight="bold" font-size="12.00">Threat</text>
<text text-anchor="start" x="97" y="-255.9" font-family="Arial" font-size="12.00"> Malicious Client Obtains Existing Authorization by Fraud</text>
<g id="a_node1_0"><a xlink:href="#OAuth2.CONFIDENTIALITY" xlink:title="&lt;TABLE&gt;">
<polygon fill="#eeeeee" stroke="transparent" points="105,-223.5 105,-240.5 423,-240.5 423,-223.5 105,-223.5"/>
<text text-anchor="start" x="209.5" y="-228.9" font-family="Arial" font-size="12.00" fill="blue">CONFIDENTIALITY</text>
</a>
</g>
</g>
<!-- PUBLIC_CLIENT_SPOOFING1_attack -->
<g id="node2" class="node">
<title>PUBLIC_CLIENT_SPOOFING1_attack</title>
<polygon fill="#f5f5f5" stroke="#666666" points="511.5,-159 16.5,-159 16.5,-87 511.5,-87 511.5,-159"/>
<text text-anchor="start" x="242" y="-144.4" font-family="Arial" font-weight="bold" font-size="12.00">Attack</text>
<text text-anchor="start" x="27" y="-132.4" font-family="Arial" font-size="12.00">Authorization servers may wish to automatically process authorization requests</text>
<text text-anchor="start" x="27" y="-120.4" font-family="Arial" font-size="12.00">from clients that have been previously authorized by the user. When the user is</text>
<text text-anchor="start" x="48" y="-108.4" font-family="Arial" font-size="12.00">redirected to the authorization server&#39;s end&#45; user authorization endpoint</text>
<text text-anchor="start" x="31.5" y="-96.4" font-family="Arial" font-size="12.00">to grant access, the authorization server detects that the user has already[...]</text>
</g>
<!-- PUBLIC_CLIENT_SPOOFING1_attack&#45;&gt;PUBLIC_CLIENT_SPOOFING1 -->
<g id="edge1" class="edge">
<title>PUBLIC_CLIENT_SPOOFING1_attack&#45;&gt;PUBLIC_CLIENT_SPOOFING1</title>
<path fill="none" stroke="black" d="M264,-159.14C264,-171.76 264,-186.19 264,-199.59"/>
<polygon fill="black" stroke="black" points="260.5,-199.59 264,-209.59 267.5,-199.59 260.5,-199.59"/>
<text text-anchor="middle" x="294.5" y="-180.8" font-family="Times,serif" font-size="14.00"> exploits</text>
</g>
<!-- PUBLIC_CLIENT_SPOOFING1_countermeasure0 -->
<g id="node3" class="node">
<title>PUBLIC_CLIENT_SPOOFING1_countermeasure0</title>
<polygon fill="#d5e8d4" stroke="#82b366" points="182,-36 0,-36 0,0 182,0 182,-36"/>
<text text-anchor="start" x="34" y="-21.4" font-family="Arial" font-weight="bold" font-size="12.00">Countermeasure</text>
<text text-anchor="start" x="10" y="-9.4" font-family="Arial" font-size="12.00"> Pre&#45;registered redirect URI</text>
</g>
<!-- PUBLIC_CLIENT_SPOOFING1_countermeasure0&#45;&gt;PUBLIC_CLIENT_SPOOFING1_attack -->
<g id="edge2" class="edge">
<title>PUBLIC_CLIENT_SPOOFING1_countermeasure0&#45;&gt;PUBLIC_CLIENT_SPOOFING1_attack</title>
<path fill="none" stroke="black" d="M119.57,-36.01C140.35,-48.38 169.38,-65.67 195.97,-81.5"/>
<polygon fill="black" stroke="black" points="194.5,-84.69 204.88,-86.8 198.08,-78.68 194.5,-84.69"/>
<text text-anchor="middle" x="209.5" y="-57.8" font-family="Times,serif" font-size="14.00"> mitigates</text>
</g>
<!-- PUBLIC_CLIENT_SPOOFING1_countermeasure1 -->
<g id="node4" class="node">
<title>PUBLIC_CLIENT_SPOOFING1_countermeasure1</title>
<polygon fill="#fff2cc" stroke="#d6b656" points="675.5,-36 200.5,-36 200.5,0 675.5,0 675.5,-36"/>
<text text-anchor="start" x="381.5" y="-21.4" font-family="Arial" font-weight="bold" font-size="12.00">Countermeasure</text>
<text text-anchor="start" x="211" y="-9.4" font-family="Arial" font-size="12.00"> Limiting the scope of access tokens obtained through automated approvals</text>
</g>
<!-- PUBLIC_CLIENT_SPOOFING1_countermeasure1&#45;&gt;PUBLIC_CLIENT_SPOOFING1_attack -->
<g id="edge3" class="edge">
<title>PUBLIC_CLIENT_SPOOFING1_countermeasure1&#45;&gt;PUBLIC_CLIENT_SPOOFING1_attack</title>
<path fill="none" stroke="black" d="M409.27,-36.01C388.28,-48.43 358.91,-65.82 332.07,-81.71"/>
<polygon fill="black" stroke="black" points="330.28,-78.7 323.46,-86.8 333.85,-84.72 330.28,-78.7"/>
<text text-anchor="middle" x="412.5" y="-57.8" font-family="Times,serif" font-size="14.00"> mitigates</text>
</g>
</g>
</svg>
