<?xml version="1.0" encoding="UTF-8" standalone="no"?>
<!DOCTYPE svg PUBLIC "-//W3C//DTD SVG 1.1//EN"
 "http://www.w3.org/Graphics/SVG/1.1/DTD/svg11.dtd">
<!-- Generated by graphviz version 2.43.0 (0)
 -->
<!-- Title: G Pages: 1 -->
<svg width="638pt" height="279pt"
 viewBox="0.00 0.00 637.50 279.00" xmlns="http://www.w3.org/2000/svg" xmlns:xlink="http://www.w3.org/1999/xlink">
<g id="graph0" class="graph" transform="scale(1 1) rotate(0) translate(4 275)">
<title>G</title>
<polygon fill="white" stroke="transparent" points="-4,4 -4,-275 633.5,-275 633.5,4 -4,4"/>
<!-- TOO_MUCH_GRANT -->
<g id="node1" class="node">
<title>TOO_MUCH_GRANT</title>
<polygon fill="#f8cecc" stroke="#b85450" points="499.5,-271 165.5,-271 165.5,-198 499.5,-198 499.5,-271"/>
<text text-anchor="start" x="309.5" y="-255.9" font-family="Arial" font-weight="bold" font-size="12.00">Threat</text>
<text text-anchor="start" x="175.5" y="-243.9" font-family="Arial" font-size="12.00"> User Unintentionally Grants Too Much Access Scope</text>
<g id="a_node1_0"><a xlink:href="#OAuth2.CONFIDENTIALITY" xlink:title="&lt;TABLE&gt;">
<polygon fill="#eeeeee" stroke="transparent" points="183.5,-211.5 183.5,-228.5 481.5,-228.5 481.5,-211.5 183.5,-211.5"/>
<text text-anchor="start" x="278" y="-216.9" font-family="Arial" font-size="12.00" fill="blue">CONFIDENTIALITY</text>
</a>
</g>
</g>
<!-- TOO_MUCH_GRANT_attack -->
<g id="node2" class="node">
<title>TOO_MUCH_GRANT_attack</title>
<polygon fill="#f5f5f5" stroke="#666666" points="595,-147 70,-147 70,-87 595,-87 595,-147"/>
<text text-anchor="start" x="310.5" y="-132.4" font-family="Arial" font-weight="bold" font-size="12.00">Attack</text>
<text text-anchor="start" x="80.5" y="-120.4" font-family="Arial" font-size="12.00">When obtaining end&#45;user authorization, the end user may not understand the scope</text>
<text text-anchor="start" x="92.5" y="-108.4" font-family="Arial" font-size="12.00">of the access being granted and to whom, or they may end up providing a client</text>
<text text-anchor="start" x="170.5" y="-96.4" font-family="Arial" font-size="12.00">with access to resources that should not be permitted.</text>
</g>
<!-- TOO_MUCH_GRANT_attack&#45;&gt;TOO_MUCH_GRANT -->
<g id="edge1" class="edge">
<title>TOO_MUCH_GRANT_attack&#45;&gt;TOO_MUCH_GRANT</title>
<path fill="none" stroke="black" d="M332.5,-147.15C332.5,-159.39 332.5,-173.94 332.5,-187.57"/>
<polygon fill="black" stroke="black" points="329,-187.76 332.5,-197.76 336,-187.76 329,-187.76"/>
<text text-anchor="middle" x="363" y="-168.8" font-family="Times,serif" font-size="14.00"> exploits</text>
</g>
<!-- TOO_MUCH_GRANT_countermeasure0 -->
<g id="node3" class="node">
<title>TOO_MUCH_GRANT_countermeasure0</title>
<polygon fill="#d5e8d4" stroke="#82b366" points="341,-36 0,-36 0,0 341,0 341,-36"/>
<text text-anchor="start" x="114" y="-21.4" font-family="Arial" font-weight="bold" font-size="12.00">Countermeasure</text>
<text text-anchor="start" x="10.5" y="-9.4" font-family="Arial" font-size="12.00"> AUTHORIZATION_SERVER policy discretional decision</text>
</g>
<!-- TOO_MUCH_GRANT_countermeasure0&#45;&gt;TOO_MUCH_GRANT_attack -->
<g id="edge2" class="edge">
<title>TOO_MUCH_GRANT_countermeasure0&#45;&gt;TOO_MUCH_GRANT_attack</title>
<path fill="none" stroke="black" d="M199.09,-36.12C220.14,-48.73 249.48,-66.29 275.28,-81.74"/>
<polygon fill="black" stroke="black" points="273.5,-84.75 283.88,-86.89 277.1,-78.75 273.5,-84.75"/>
<text text-anchor="middle" x="288" y="-57.8" font-family="Times,serif" font-size="14.00"> mitigates</text>
</g>
<!-- TOO_MUCH_GRANT_countermeasure1 -->
<g id="node4" class="node">
<title>TOO_MUCH_GRANT_countermeasure1</title>
<polygon fill="#d5e8d4" stroke="#82b366" points="629.5,-36 359.5,-36 359.5,0 629.5,0 629.5,-36"/>
<text text-anchor="start" x="437.5" y="-21.4" font-family="Arial" font-weight="bold" font-size="12.00">Countermeasure</text>
<text text-anchor="start" x="369.5" y="-9.4" font-family="Arial" font-size="12.00"> Users educated to avoid phishing attacks</text>
</g>
<!-- TOO_MUCH_GRANT_countermeasure1&#45;&gt;TOO_MUCH_GRANT_attack -->
<g id="edge3" class="edge">
<title>TOO_MUCH_GRANT_countermeasure1&#45;&gt;TOO_MUCH_GRANT_attack</title>
<path fill="none" stroke="black" d="M465.91,-36.12C444.86,-48.73 415.52,-66.29 389.72,-81.74"/>
<polygon fill="black" stroke="black" points="387.9,-78.75 381.12,-86.89 391.5,-84.75 387.9,-78.75"/>
<text text-anchor="middle" x="469" y="-57.8" font-family="Times,serif" font-size="14.00"> mitigates</text>
</g>
</g>
</svg>
