<?xml version="1.0" encoding="UTF-8" standalone="no"?>
<!DOCTYPE svg PUBLIC "-//W3C//DTD SVG 1.1//EN"
 "http://www.w3.org/Graphics/SVG/1.1/DTD/svg11.dtd">
<!-- Generated by graphviz version 2.43.0 (0)
 -->
<!-- Title: G Pages: 1 -->
<svg width="1176pt" height="803pt"
 viewBox="0.00 0.00 1176.00 803.00" xmlns="http://www.w3.org/2000/svg" xmlns:xlink="http://www.w3.org/1999/xlink">
<g id="graph0" class="graph" transform="scale(1 1) rotate(0) translate(4 799)">
<title>G</title>
<polygon fill="white" stroke="transparent" points="-4,4 -4,-799 1172,-799 1172,4 -4,4"/>
<g id="clust1" class="cluster">
<title>cluster_General_security_Objectives</title>
<polygon fill="none" stroke="black" points="8,-548 8,-623 402,-623 402,-548 8,-548"/>
<text text-anchor="middle" x="205" y="-555.8" font-family="Times,serif" font-size="14.00">General security Objectives</text>
</g>
<g id="clust2" class="cluster">
<title>cluster_Business_specific</title>
<polygon fill="none" stroke="black" points="73,-8 73,-443 473,-443 473,-8 73,-8"/>
<text text-anchor="middle" x="273" y="-15.8" font-family="Times,serif" font-size="14.00">Business specific</text>
</g>
<g id="clust3" class="cluster">
<title>cluster_Advanced_security_features</title>
<polygon fill="none" stroke="black" points="481,-8 481,-83 1160,-83 1160,-8 481,-8"/>
<text text-anchor="middle" x="820.5" y="-15.8" font-family="Times,serif" font-size="14.00">Advanced security features</text>
</g>
<!-- INTEGRITY -->
<g id="node1" class="node">
<title>INTEGRITY</title>
<polygon fill="LightGray" stroke="LightGray" points="394,-615 304,-615 304,-579 394,-579 394,-615"/>
<text text-anchor="middle" x="349" y="-593.3" font-family="Arial" font-size="14.00">INTEGRITY</text>
</g>
<!-- FULL_CIA -->
<g id="node2" class="node">
<title>FULL_CIA</title>
<polygon fill="LightGray" stroke="LightGray" points="322.5,-795 241.5,-795 241.5,-759 322.5,-759 322.5,-795"/>
<text text-anchor="middle" x="282" y="-773.3" font-family="Arial" font-size="14.00">FULL_CIA</text>
</g>
<!-- INTEGRITY&#45;&gt;FULL_CIA -->
<g id="edge1" class="edge">
<title>INTEGRITY&#45;&gt;FULL_CIA</title>
<path fill="none" stroke="black" d="M342.58,-615.07C330.87,-646.17 305.99,-712.27 292.03,-749.35"/>
<polygon fill="black" stroke="black" points="288.65,-748.39 288.4,-758.98 295.2,-750.86 288.65,-748.39"/>
</g>
<!-- CONFIDENTIALITY -->
<g id="node3" class="node">
<title>CONFIDENTIALITY</title>
<polygon fill="LightGray" stroke="LightGray" points="286,-615 144,-615 144,-579 286,-579 286,-615"/>
<text text-anchor="middle" x="215" y="-593.3" font-family="Arial" font-size="14.00">CONFIDENTIALITY</text>
</g>
<!-- CONFIDENTIALITY&#45;&gt;FULL_CIA -->
<g id="edge2" class="edge">
<title>CONFIDENTIALITY&#45;&gt;FULL_CIA</title>
<path fill="none" stroke="black" d="M221.42,-615.07C233.13,-646.17 258.01,-712.27 271.97,-749.35"/>
<polygon fill="black" stroke="black" points="268.8,-750.86 275.6,-758.98 275.35,-748.39 268.8,-750.86"/>
</g>
<!-- AVAILABILITY -->
<g id="node4" class="node">
<title>AVAILABILITY</title>
<polygon fill="LightGray" stroke="LightGray" points="126,-615 16,-615 16,-579 126,-579 126,-615"/>
<text text-anchor="middle" x="71" y="-593.3" font-family="Arial" font-size="14.00">AVAILABILITY</text>
</g>
<!-- AVAILABILITY&#45;&gt;FULL_CIA -->
<g id="edge3" class="edge">
<title>AVAILABILITY&#45;&gt;FULL_CIA</title>
<path fill="none" stroke="black" d="M91.23,-615.07C129.12,-647.03 210.83,-715.96 253.99,-752.37"/>
<polygon fill="black" stroke="black" points="251.93,-755.21 261.83,-758.98 256.44,-749.86 251.93,-755.21"/>
</g>
<!-- COMPLIANCE -->
<g id="node5" class="node">
<title>COMPLIANCE</title>
<polygon fill="LightGray" stroke="LightGray" points="211.5,-435 102.5,-435 102.5,-399 211.5,-399 211.5,-435"/>
<text text-anchor="middle" x="157" y="-413.3" font-family="Arial" font-size="14.00">COMPLIANCE</text>
</g>
<!-- COMPLIANCE&#45;&gt;AVAILABILITY -->
<g id="edge4" class="edge">
<title>COMPLIANCE&#45;&gt;AVAILABILITY</title>
<path fill="none" stroke="black" d="M148.75,-435.07C133.66,-466.3 101.52,-532.83 83.65,-569.82"/>
<polygon fill="black" stroke="black" points="80.42,-568.46 79.22,-578.98 86.72,-571.5 80.42,-568.46"/>
</g>
<!-- NON_REPUDIATION -->
<g id="node6" class="node">
<title>NON_REPUDIATION</title>
<polygon fill="LightGray" stroke="LightGray" points="232.5,-255 81.5,-255 81.5,-219 232.5,-219 232.5,-255"/>
<text text-anchor="middle" x="157" y="-233.3" font-family="Arial" font-size="14.00">NON_REPUDIATION</text>
</g>
<!-- NON_REPUDIATION&#45;&gt;COMPLIANCE -->
<g id="edge5" class="edge">
<title>NON_REPUDIATION&#45;&gt;COMPLIANCE</title>
<path fill="none" stroke="black" d="M157,-255.07C157,-286.03 157,-351.7 157,-388.87"/>
<polygon fill="black" stroke="black" points="153.5,-388.98 157,-398.98 160.5,-388.98 153.5,-388.98"/>
</g>
<!-- CLIENT_ACCESS_LIMITATION -->
<g id="node7" class="node">
<title>CLIENT_ACCESS_LIMITATION</title>
<polygon fill="LightGray" stroke="LightGray" points="465,-255 251,-255 251,-219 465,-219 465,-255"/>
<text text-anchor="middle" x="358" y="-233.3" font-family="Arial" font-size="14.00">CLIENT_ACCESS_LIMITATION</text>
</g>
<!-- CLIENT_ACCESS_LIMITATION&#45;&gt;FULL_CIA -->
<g id="edge6" class="edge">
<title>CLIENT_ACCESS_LIMITATION&#45;&gt;FULL_CIA</title>
<path fill="none" stroke="black" d="M365.5,-255.1C388.56,-310.21 454.03,-487.45 406,-623 387.13,-676.25 340.96,-724.5 310.59,-752.02"/>
<polygon fill="black" stroke="black" points="308.01,-749.63 302.86,-758.89 312.66,-754.86 308.01,-749.63"/>
</g>
<!-- CLIENT_ACCESS_LIMITATION&#45;&gt;COMPLIANCE -->
<g id="edge7" class="edge">
<title>CLIENT_ACCESS_LIMITATION&#45;&gt;COMPLIANCE</title>
<path fill="none" stroke="black" d="M338.73,-255.07C302.71,-286.96 225.12,-355.68 183.94,-392.14"/>
<polygon fill="black" stroke="black" points="181.38,-389.73 176.21,-398.98 186.02,-394.97 181.38,-389.73"/>
</g>
<!-- CLIENT_REVOKE_ACCESS -->
<g id="node8" class="node">
<title>CLIENT_REVOKE_ACCESS</title>
<polygon fill="LightGray" stroke="LightGray" points="464,-75 272,-75 272,-39 464,-39 464,-75"/>
<text text-anchor="middle" x="368" y="-53.3" font-family="Arial" font-size="14.00">CLIENT_REVOKE_ACCESS</text>
</g>
<!-- CLIENT_REVOKE_ACCESS&#45;&gt;CLIENT_ACCESS_LIMITATION -->
<g id="edge8" class="edge">
<title>CLIENT_REVOKE_ACCESS&#45;&gt;CLIENT_ACCESS_LIMITATION</title>
<path fill="none" stroke="black" d="M367.04,-75.07C365.3,-106.03 361.61,-171.7 359.52,-208.87"/>
<polygon fill="black" stroke="black" points="356.02,-208.8 358.96,-218.98 363.01,-209.2 356.02,-208.8"/>
</g>
<!-- CLIENT_LIMIT_ACCESS -->
<g id="node9" class="node">
<title>CLIENT_LIMIT_ACCESS</title>
<polygon fill="LightGray" stroke="LightGray" points="254,-75 82,-75 82,-39 254,-39 254,-75"/>
<text text-anchor="middle" x="168" y="-53.3" font-family="Arial" font-size="14.00">CLIENT_LIMIT_ACCESS</text>
</g>
<!-- CLIENT_LIMIT_ACCESS&#45;&gt;CLIENT_ACCESS_LIMITATION -->
<g id="edge9" class="edge">
<title>CLIENT_LIMIT_ACCESS&#45;&gt;CLIENT_ACCESS_LIMITATION</title>
<path fill="none" stroke="black" d="M186.22,-75.07C220.26,-106.96 293.61,-175.68 332.53,-212.14"/>
<polygon fill="black" stroke="black" points="330.15,-214.7 339.84,-218.98 334.93,-209.59 330.15,-214.7"/>
</g>
<!-- NOT_SHARING_OWNER_CREDENTIAL -->
<g id="node10" class="node">
<title>NOT_SHARING_OWNER_CREDENTIAL</title>
<polygon fill="LightGray" stroke="LightGray" points="1152,-75 878,-75 878,-39 1152,-39 1152,-75"/>
<text text-anchor="middle" x="1015" y="-53.3" font-family="Arial" font-size="14.00">NOT_SHARING_OWNER_CREDENTIAL</text>
</g>
<!-- NOT_SHARING_OWNER_CREDENTIAL&#45;&gt;CLIENT_ACCESS_LIMITATION -->
<g id="edge10" class="edge">
<title>NOT_SHARING_OWNER_CREDENTIAL&#45;&gt;CLIENT_ACCESS_LIMITATION</title>
<path fill="none" stroke="black" d="M952,-75.07C829.61,-108.23 560.36,-181.18 430.65,-216.32"/>
<polygon fill="black" stroke="black" points="429.54,-212.99 420.81,-218.98 431.37,-219.75 429.54,-212.99"/>
</g>
<!-- USER_AGENT_RESILIENCY -->
<g id="node11" class="node">
<title>USER_AGENT_RESILIENCY</title>
<polygon fill="LightGray" stroke="LightGray" points="859.5,-75 662.5,-75 662.5,-39 859.5,-39 859.5,-75"/>
<text text-anchor="middle" x="761" y="-53.3" font-family="Arial" font-size="14.00">USER_AGENT_RESILIENCY</text>
</g>
<!-- USER_AGENT_RESILIENCY&#45;&gt;CLIENT_ACCESS_LIMITATION -->
<g id="edge11" class="edge">
<title>USER_AGENT_RESILIENCY&#45;&gt;CLIENT_ACCESS_LIMITATION</title>
<path fill="none" stroke="black" d="M722.36,-75.07C648.34,-107.76 486.74,-179.14 405.96,-214.82"/>
<polygon fill="black" stroke="black" points="404.26,-211.74 396.52,-218.98 407.09,-218.15 404.26,-211.74"/>
</g>
<!-- CLIENT_RESILIENCY -->
<g id="node12" class="node">
<title>CLIENT_RESILIENCY</title>
<polygon fill="LightGray" stroke="LightGray" points="644.5,-75 489.5,-75 489.5,-39 644.5,-39 644.5,-75"/>
<text text-anchor="middle" x="567" y="-53.3" font-family="Arial" font-size="14.00">CLIENT_RESILIENCY</text>
</g>
<!-- CLIENT_RESILIENCY&#45;&gt;CLIENT_ACCESS_LIMITATION -->
<g id="edge12" class="edge">
<title>CLIENT_RESILIENCY&#45;&gt;CLIENT_ACCESS_LIMITATION</title>
<path fill="none" stroke="black" d="M546.96,-75.07C509.43,-107.03 428.49,-175.96 385.75,-212.37"/>
<polygon fill="black" stroke="black" points="383.32,-209.84 377.98,-218.98 387.86,-215.16 383.32,-209.84"/>
</g>
</g>
</svg>
